{
.appVersion = "1056";
copyright = "Copyright 2019 the Libre Clarendon Project Authors (https://github.com/googlefonts/Libre-Clarendon), with Reserved Font Name 'Libre Clarendon'.";
customParameters = (
{
name = openTypeOS2Type;
value = (
);
},
{
name = licenseURL;
value = "http://scripts.sil.org/OFL";
},
{
name = license;
value = "This Font Software is licensed under the SIL Open Font License, Version 1.1. This license is available with a FAQ at: http://scripts.sil.org/OFL";
},
{
name = trademark;
value = "Libre Clarendon is a trademark of Impallari Type.";
},
{
name = vendorID;
value = IMPA;
},
{
name = Axes;
value = (
{
Name = Weight;
Tag = wght;
},
{
Name = Width;
Tag = wdth;
}
);
},
{
name = "Use Typo Metrics";
value = 1;
},
{
name = fsType;
value = (
);
},
{
name = "Disable Last Change";
value = 1;
},
{
name = "Variation Font Origin";
value = "E9E6D55E-9446-45F2-B66C-3272698B0216";
}
);
date = "2019-10-01 10:33:11 +0000";
designer = "Pablo Impallari, Rodrigo Fuenzalida, Aleksandar Kovač";
designerURL = "http://www.impallari.com/";
familyName = "Libre Clarendon";
featurePrefixes = (
{
automatic = 1;
code = "languagesystem DFLT dflt;\012languagesystem latn dflt;\012languagesystem latn ROM;\012languagesystem latn MOL;\012languagesystem latn KAZ;\012languagesystem latn TAT;\012languagesystem latn TRK;\012languagesystem latn CRT;\012languagesystem latn AZE;\012";
name = Languagesystems;
}
);
features = (
{
automatic = 1;
code = "feature ccmp;\012feature locl;\012feature ordn;\012";
name = aalt;
},
{
automatic = 1;

glyphs = (
{
color = 6;
glyphname = A;
layers = (
{
anchors = (
{
name = bottom;
position = "{483, 0}";
},
{
name = ogonek;
position = "{828, 10}";
},
{
name = top;
position = "{483, 1260}";
}
);
background = {
paths = (
{
closed = 1;
nodes = (
"16 0 LINE",
"364 0 LINE",
"364 60 LINE",
"292 60 LINE SMOOTH",
"236 60 OFFCURVE",
"214 78 OFFCURVE",
"214 116 CURVE SMOOTH",
"214 128 OFFCURVE",
"216 142 OFFCURVE",
"220 158 CURVE SMOOTH",
"438 1122 LINE",
"448 1122 LINE",
"650 158 LINE SMOOTH",
"654 140 OFFCURVE",
"656 126 OFFCURVE",
"656 112 CURVE SMOOTH",
"656 76 OFFCURVE",
"638 60 OFFCURVE",
"590 60 CURVE SMOOTH",
"518 60 LINE",
"518 0 LINE",
"890 0 LINE",
"890 60 LINE",
"824 60 LINE SMOOTH",
"778 60 OFFCURVE",
"756 80 OFFCURVE",
"740 160 CURVE SMOOTH",
"510 1258 LINE",
"402 1258 LINE",
"148 158 LINE SMOOTH",
"130 80 OFFCURVE",
"116 60 OFFCURVE",
"64 60 CURVE SMOOTH",
"16 60 LINE"
);
},
{
closed = 1;
nodes = (
"274 468 LINE",
"606 468 LINE",
"594 528 LINE",
"288 528 LINE"
);
}
);
};
guideLines = (
{
angle = 90;
position = "{236, 79}";
}
);
layerId = "E9E6D55E-9446-45F2-B66C-3272698B0216";
paths = (
{
closed = 1;
nodes = (
"16 0 LINE",
"360 0 LINE",
"360 60 LINE",
"288 60 LINE SMOOTH",
"232 60 OFFCURVE",
"210 78 OFFCURVE",
"210 116 CURVE SMOOTH",
"210 128 OFFCURVE",
"212 142 OFFCURVE",
"216 158 CURVE SMOOTH",
"468 1166 LINE",
"478 1166 LINE",
"710 158 LINE SMOOTH",
"714 140 OFFCURVE",
"716 126 OFFCURVE",
"716 112 CURVE SMOOTH",
"716 76 OFFCURVE",
"698 60 OFFCURVE",
"650 60 CURVE SMOOTH",
"578 60 LINE",
"578 0 LINE",
"950 0 LINE",
"950 60 LINE",
"884 60 LINE SMOOTH",
"838 60 OFFCURVE",
"818 80 OFFCURVE",
"800 160 CURVE SMOOTH",
"540 1258 LINE",
"432 1258 LINE",
"148 158 LINE SMOOTH",
"128 80 OFFCURVE",
"116 60 OFFCURVE",
"64 60 CURVE SMOOTH",
"16 60 LINE"
);
},
{
closed = 1;
nodes = (
"274 468 LINE",
"686 468 LINE",
"674 528 LINE",
"288 528 LINE"
);
}
);
width = 966;
},
{
anchors = (
{
name = bottom;
position = "{567, 0}";
},
{
name = ogonek;
position = "{1021, 10}";
},
{
name = top;
position = "{567, 1260}";
}
);
background = {
paths = (
{
closed = 1;
nodes = (
"22 0 LINE",
"466 0 LINE",
"466 180 LINE",
"390 180 LINE SMOOTH",
"356 180 OFFCURVE",
"342 194 OFFCURVE",
"342 224 CURVE SMOOTH",
"342 240 OFFCURVE",
"344 252 OFFCURVE",
"348 270 CURVE SMOOTH",
"524 1008 LINE",
"532 1008 LINE",
"690 260 LINE SMOOTH",
"692 248 OFFCURVE",
"694 238 OFFCURVE",
"694 226 CURVE SMOOTH",
"694 198 OFFCURVE",
"678 180 OFFCURVE",
"648 180 CURVE SMOOTH",
"554 180 LINE",
"554 0 LINE",
"1116 0 LINE",
"1116 180 LINE",
"1098 180 LINE SMOOTH",
"1032 182 OFFCURVE",
"1006 202 OFFCURVE",
"990 260 CURVE SMOOTH",
"724 1260 LINE",
"404 1260 LINE",
"134 238 LINE SMOOTH",
"122 194 OFFCURVE",
"100 180 OFFCURVE",
"62 180 CURVE SMOOTH",
"22 180 LINE"
);
},
{
closed = 1;
nodes = (
"360 448 LINE",
"678 448 LINE",
"642 602 LINE",
"392 602 LINE"
);
}
);
};
layerId = "B25F85BC-C782-4067-8484-07202F80B8CD";
paths = (
{
closed = 1;
nodes = (
"22 0 LINE",
"466 0 LINE",
"466 180 LINE",
"390 180 LINE SMOOTH",
"356 180 OFFCURVE",
"342 194 OFFCURVE",
"342 224 CURVE SMOOTH",
"342 240 OFFCURVE",
"344 252 OFFCURVE",
"348 270 CURVE SMOOTH",
"524 1008 LINE",
"532 1008 LINE",
"690 260 LINE SMOOTH",
"692 248 OFFCURVE",
"694 238 OFFCURVE",
"694 226 CURVE SMOOTH",
"694 198 OFFCURVE",
"678 180 OFFCURVE",
"648 180 CURVE SMOOTH",
"554 180 LINE",
"554 0 LINE",
"1116 0 LINE",
"1116 180 LINE",
"1098 180 LINE SMOOTH",
"1032 182 OFFCURVE",
"1004 202 OFFCURVE",
"990 260 CURVE SMOOTH",
"734 1260 LINE",
"394 1260 LINE",
"134 238 LINE SMOOTH",
"122 194 OFFCURVE",
"100 180 OFFCURVE",
"62 180 CURVE SMOOTH",
"22 180 LINE"
);
},
{
closed = 1;
nodes = (
"360 438 LINE",
"678 438 LINE",
"642 612 LINE",
"392 612 LINE"
);
}
);
width = 1134;
},
{
anchors = (
{
name = bottom;
position = "{511, 0}";
},
{
name = ogonek;
position = "{920, 10}";
},
{
name = top;
position = "{526, 1260}";
}
);
layerId = "B817C739-5D48-43E8-AAEE-CE891513D7BC";
paths = (
{
closed = 1;
nodes = (
"10 0 LINE",
"472 0 LINE",
"472 216 LINE",
"454 216 LINE SMOOTH",
"404 216 OFFCURVE",
"386 234 OFFCURVE",
"386 268 CURVE SMOOTH",
"386 280 OFFCURVE",
"388 292 OFFCURVE",
"390 306 CURVE SMOOTH",
"476 800 LINE",
"486 800 LINE",
"572 316 LINE SMOOTH",
"574 304 OFFCURVE",
"576 292 OFFCURVE",
"576 280 CURVE SMOOTH",
"576 238 OFFCURVE",
"554 216 OFFCURVE",
"516 216 CURVE SMOOTH",
"500 216 LINE",
"500 0 LINE",
"1012 0 LINE",
"1012 216 LINE",
"1004 216 LINE SMOOTH",
"974 216 OFFCURVE",
"958 230 OFFCURVE",
"942 296 CURVE SMOOTH",
"716 1260 LINE",
"340 1260 LINE",
"94 284 LINE SMOOTH",
"80 232 OFFCURVE",
"62 216 OFFCURVE",
"18 216 CURVE SMOOTH",
"10 216 LINE"
);
},
{
closed = 1;
nodes = (
"374 348 LINE",
"588 348 LINE",
"566 568 LINE",
"400 568 LINE"
);
}
);
width = 1022;
},
{
anchors = (
{
name = bottom;
position = "{752, 0}";
},
{
name = ogonek;
position = "{1287, 10}";
},
{
name = top;
position = "{752, 1260}";
}
);
background = {
paths = (
{
closed = 1;
nodes = (
"30 0 LINE",
"528 0 LINE",
"528 72 LINE",
"376 72 LINE SMOOTH",
"344 72 OFFCURVE",
"326 92 OFFCURVE",
"326 116 CURVE SMOOTH",
"326 122 OFFCURVE",
"328 130 OFFCURVE",
"330 136 CURVE SMOOTH",
"732 1166 LINE",
"740 1166 LINE",
"1152 136 LINE SMOOTH",
"1154 130 OFFCURVE",
"1156 122 OFFCURVE",
"1156 116 CURVE SMOOTH",
"1156 92 OFFCURVE",
"1138 72 OFFCURVE",
"1098 72 CURVE SMOOTH",
"954 72 LINE",
"954 0 LINE",
"1474 0 LINE",
"1474 72 LINE",
"1330 72 LINE SMOOTH",
"1292 72 OFFCURVE",
"1276 88 OFFCURVE",
"1256 136 CURVE SMOOTH",
"810 1260 LINE",
"682 1260 LINE",
"248 136 LINE SMOOTH",
"228 84 OFFCURVE",
"204 72 OFFCURVE",
"160 72 CURVE SMOOTH",
"30 72 LINE"
);
},
{
closed = 1;
nodes = (
"442 480 LINE",
"1066 480 LINE",
"1066 552 LINE",
"442 552 LINE"
);
}
);
};
layerId = UUID0;
paths = (
{
closed = 1;
nodes = (
"0 0 LINE",
"498 0 LINE",
"498 72 LINE",
"346 72 LINE SMOOTH",
"310 72 OFFCURVE",
"292 84 OFFCURVE",
"292 106 CURVE SMOOTH",
"292 116 OFFCURVE",
"296 124 OFFCURVE",
"300 136 CURVE SMOOTH",
"732 1166 LINE",
"740 1166 LINE",
"1182 136 LINE SMOOTH",
"1186 128 OFFCURVE",
"1186 120 OFFCURVE",
"1186 114 CURVE SMOOTH",
"1186 86 OFFCURVE",
"1166 72 OFFCURVE",
"1128 72 CURVE SMOOTH",
"984 72 LINE",
"984 0 LINE",
"1504 0 LINE",
"1504 72 LINE",
"1360 72 LINE SMOOTH",
"1322 72 OFFCURVE",
"1306 88 OFFCURVE",
"1286 136 CURVE SMOOTH",
"806 1260 LINE",
"690 1260 LINE",
"218 136 LINE SMOOTH",
"196 84 OFFCURVE",
"174 72 OFFCURVE",
"130 72 CURVE SMOOTH",
"0 72 LINE"
);
},
{
closed = 1;
nodes = (
"442 480 LINE",
"1066 480 LINE",
"1066 552 LINE",
"442 552 LINE"
);
}
);
width = 1504;
},
{
anchors = (
{
name = bottom;
position = "{833, 0}";
},
{
name = ogonek;
position = "{1404, 10}";
},
{
name = top;
position = "{833, 1260}";
}
);
background = {
paths = (
{
closed = 1;
nodes = (
"20 0 LINE",
"678 0 LINE",
"678 180 LINE",
"492 180 LINE SMOOTH",
"446 180 OFFCURVE",
"420 202 OFFCURVE",
"420 244 CURVE SMOOTH",
"420 256 OFFCURVE",
"422 274 OFFCURVE",
"430 292 CURVE SMOOTH",
"728 1038 LINE",
"738 1038 LINE",
"1006 292 LINE SMOOTH",
"1014 268 OFFCURVE",
"1018 248 OFFCURVE",
"1018 232 CURVE SMOOTH",
"1018 196 OFFCURVE",
"1000 180 OFFCURVE",
"956 180 CURVE SMOOTH",
"788 180 LINE",
"788 0 LINE",
"1506 0 LINE",
"1506 180 LINE",
"1480 180 LINE SMOOTH",
"1382 182 OFFCURVE",
"1352 206 OFFCURVE",
"1318 292 CURVE SMOOTH",
"936 1260 LINE",
"616 1260 LINE",
"216 292 LINE SMOOTH",
"178 202 OFFCURVE",
"154 180 OFFCURVE",
"86 180 CURVE SMOOTH",
"20 180 LINE"
);
},
{
closed = 1;
nodes = (
"468 420 LINE",
"976 420 LINE",
"916 600 LINE",
"536 600 LINE"
);
}
);
};
layerId = "4355E1B8-19E6-44BD-A1D7-6E3C2DECA4C8";
paths = (
{
closed = 1;
nodes = (
"20 0 LINE",
"664 0 LINE",
"664 180 LINE",
"526 180 LINE SMOOTH",
"482 180 OFFCURVE",
"458 202 OFFCURVE",
"458 238 CURVE SMOOTH",
"458 254 OFFCURVE",
"462 272 OFFCURVE",
"470 292 CURVE SMOOTH",
"788 1038 LINE",
"798 1038 LINE",
"1106 292 LINE SMOOTH",
"1116 268 OFFCURVE",
"1118 248 OFFCURVE",
"1118 232 CURVE SMOOTH",
"1118 196 OFFCURVE",
"1100 180 OFFCURVE",
"1056 180 CURVE SMOOTH",
"914 180 LINE",
"914 0 LINE",
"1646 0 LINE",
"1646 180 LINE",
"1580 180 LINE SMOOTH",
"1482 180 OFFCURVE",
"1456 206 OFFCURVE",
"1418 292 CURVE SMOOTH",
"996 1260 LINE",
"676 1260 LINE",
"246 292 LINE SMOOTH",
"206 202 OFFCURVE",
"194 180 OFFCURVE",
"126 180 CURVE SMOOTH",
"20 180 LINE"
);
},
{
closed = 1;
nodes = (
"468 420 LINE",
"1144 420 LINE",
"1084 600 LINE",
"536 600 LINE"
);
}
);
width = 1666;
},
{
anchors = (
{
name = bottom;
position = "{837, 0}";
},
{
name = ogonek;
position = "{1507, 10}";
},
{
name = top;
position = "{837, 1260}";
}
);
background = {
paths = (
{
closed = 1;
nodes = (
"40 0 LINE",
"710 0 LINE",
"710 304 LINE",
"622 304 LINE SMOOTH",
"578 304 OFFCURVE",
"558 330 OFFCURVE",
"558 362 CURVE SMOOTH",
"558 374 OFFCURVE",
"560 388 OFFCURVE",
"566 404 CURVE SMOOTH",
"762 908 LINE",
"770 908 LINE",
"974 384 LINE SMOOTH",
"978 372 OFFCURVE",
"980 362 OFFCURVE",
"980 352 CURVE SMOOTH",
"980 322 OFFCURVE",
"962 304 OFFCURVE",
"924 304 CURVE SMOOTH",
"802 304 LINE",
"802 0 LINE",
"1634 0 LINE",
"1634 304 LINE",
"1618 304 LINE SMOOTH",
"1550 306 OFFCURVE",
"1524 326 OFFCURVE",
"1496 384 CURVE SMOOTH",
"1074 1260 LINE",
"582 1260 LINE",
"200 374 LINE SMOOTH",
"176 320 OFFCURVE",
"158 304 OFFCURVE",
"102 304 CURVE SMOOTH",
"40 304 LINE"
);
},
{
closed = 1;
nodes = (
"550 416 LINE",
"988 416 LINE",
"916 662 LINE",
"622 662 LINE"
);
}
);
};
layerId = "14C77FDB-037D-4842-9381-6D9ED15DD48C";
paths = (
{
closed = 1;
nodes = (
"20 0 LINE",
"710 0 LINE",
"710 304 LINE",
"602 304 LINE SMOOTH",
"558 304 OFFCURVE",
"538 330 OFFCURVE",
"538 362 CURVE SMOOTH",
"538 374 OFFCURVE",
"540 388 OFFCURVE",
"546 404 CURVE SMOOTH",
"762 928 LINE",
"770 928 LINE",
"994 384 LINE SMOOTH",
"998 372 OFFCURVE",
"1000 362 OFFCURVE",
"1000 352 CURVE SMOOTH",
"1000 322 OFFCURVE",
"982 304 OFFCURVE",
"944 304 CURVE SMOOTH",
"802 304 LINE",
"802 0 LINE",
"1654 0 LINE",
"1654 304 LINE",
"1638 304 LINE SMOOTH",
"1570 306 OFFCURVE",
"1544 326 OFFCURVE",
"1516 384 CURVE SMOOTH",
"1094 1260 LINE",
"562 1260 LINE",
"180 374 LINE SMOOTH",
"156 320 OFFCURVE",
"138 304 OFFCURVE",
"82 304 CURVE SMOOTH",
"20 304 LINE"
);
},
{
closed = 1;
nodes = (
"530 416 LINE",
"1008 416 LINE",
"936 662 LINE",
"602 662 LINE"
);
}
);
width = 1674;
}
);
leftKerningGroup = A;
rightKerningGroup = A;
unicode = 0041;
},
{
color = 6;
glyphname = AE;
layers = (
{
layerId = "E9E6D55E-9446-45F2-B66C-3272698B0216";
paths = (
{
closed = 1;
nodes = (
"16 0 LINE",
"364 0 LINE",
"364 60 LINE",
"312 60 LINE SMOOTH",
"254 60 OFFCURVE",
"236 70 OFFCURVE",
"236 90 CURVE SMOOTH",
"236 98 OFFCURVE",
"240 110 OFFCURVE",
"246 122 CURVE SMOOTH",
"714 1122 LINE",
"724 1122 LINE",
"786 1258 LINE",
"704 1258 LINE",
"164 112 LINE SMOOTH",
"146 74 OFFCURVE",
"134 60 OFFCURVE",
"82 60 CURVE SMOOTH",
"16 60 LINE"
);
},
{
closed = 1;
nodes = (
"374 468 LINE",
"766 468 LINE",
"754 528 LINE",
"388 528 LINE"
);
},
{
closed = 1;
nodes = (
"580 0 LINE",
"1310 0 LINE",
"1310 418 LINE",
"1246 418 LINE",
"1246 106 OFFCURVE",
"1212 60 OFFCURVE",
"1122 60 CURVE SMOOTH",
"810 60 LINE",
"810 606 LINE",
"956 606 LINE SMOOTH",
"1030 606 OFFCURVE",
"1038 568 OFFCURVE",
"1042 360 CURVE",
"1106 360 LINE",
"1106 892 LINE",
"1042 892 LINE",
"1038 708 OFFCURVE",
"1030 670 OFFCURVE",
"956 670 CURVE SMOOTH",
"810 670 LINE",
"810 1200 LINE",
"1122 1200 LINE SMOOTH",
"1208 1200 OFFCURVE",
"1246 1154 OFFCURVE",
"1246 876 CURVE",
"1310 876 LINE",
"1310 1260 LINE",
"506 1260 LINE",
"506 1200 LINE",
"724 1200 LINE",
"724 142 LINE SMOOTH",
"724 90 OFFCURVE",
"696 60 OFFCURVE",
"634 60 CURVE SMOOTH",
"580 60 LINE"
);
}
);
width = 1410;
},
{
layerId = "B25F85BC-C782-4067-8484-07202F80B8CD";
paths = (
{
closed = 1;
nodes = (
"22 0 LINE",
"504 0 LINE",
"504 180 LINE",
"430 180 LINE SMOOTH",
"394 180 OFFCURVE",
"376 192 OFFCURVE",
"376 212 CURVE SMOOTH",
"376 220 OFFCURVE",
"380 230 OFFCURVE",
"386 242 CURVE SMOOTH",
"834 1080 LINE",
"844 1080 LINE",
"926 1258 LINE",
"704 1258 LINE",
"152 208 LINE SMOOTH",
"140 184 OFFCURVE",
"126 180 OFFCURVE",
"82 180 CURVE SMOOTH",
"22 180 LINE"
);
},
{
closed = 1;
nodes = (
"414 448 LINE",
"946 448 LINE",
"934 602 LINE",
"428 602 LINE"
);
},
{
closed = 1;
nodes = (
"720 0 LINE",
"1676 0 LINE",
"1676 544 LINE",
"1438 544 LINE",
"1438 224 OFFCURVE",
"1412 180 OFFCURVE",
"1318 180 CURVE SMOOTH",
"1120 180 LINE",
"1120 536 LINE",
"1130 536 LINE SMOOTH",
"1202 536 OFFCURVE",
"1214 492 OFFCURVE",
"1214 336 CURVE",
"1356 336 LINE",
"1356 896 LINE",
"1214 896 LINE",
"1214 732 OFFCURVE",
"1204 700 OFFCURVE",
"1130 700 CURVE SMOOTH",
"1120 700 LINE",
"1120 1080 LINE",
"1314 1080 LINE SMOOTH",
"1398 1080 OFFCURVE",
"1438 1014 OFFCURVE",
"1438 708 CURVE",
"1676 708 LINE",
"1676 1260 LINE",
"480 1260 LINE",
"480 1080 LINE",
"844 1080 LINE",
"844 246 LINE SMOOTH",
"844 204 OFFCURVE",
"832 180 OFFCURVE",
"794 180 CURVE SMOOTH",
"720 180 LINE"
);
}
);
width = 1756;
},
{
layerId = "B817C739-5D48-43E8-AAEE-CE891513D7BC";
paths = (
{
closed = 1;
nodes = (
"10 0 LINE",
"498 0 LINE",
"498 216 LINE",
"474 216 LINE SMOOTH",
"440 216 OFFCURVE",
"424 230 OFFCURVE",
"424 252 CURVE SMOOTH",
"424 260 OFFCURVE",
"426 268 OFFCURVE",
"430 278 CURVE SMOOTH",
"668 1044 LINE",
"678 1044 LINE",
"780 1258 LINE",
"456 1258 LINE",
"120 260 LINE SMOOTH",
"110 228 OFFCURVE",
"78 216 OFFCURVE",
"46 216 CURVE SMOOTH",
"10 216 LINE"
);
},
{
closed = 1;
nodes = (
"262 408 LINE",
"754 408 LINE",
"742 628 LINE",
"276 628 LINE"
);
},
{
closed = 1;
nodes = (
"590 0 LINE",
"1524 0 LINE",
"1524 592 LINE",
"1222 592 LINE",
"1222 260 OFFCURVE",
"1188 216 OFFCURVE",
"1124 216 CURVE SMOOTH",
"1038 216 LINE",
"1038 608 LINE",
"1044 608 LINE",
"1066 608 OFFCURVE",
"1072 594 OFFCURVE",
"1072 422 CURVE",
"1186 422 LINE",
"1186 856 LINE",
"1072 856 LINE",
"1072 694 OFFCURVE",
"1066 672 OFFCURVE",
"1044 672 CURVE SMOOTH",
"1038 672 LINE",
"1038 1044 LINE",
"1118 1044 LINE SMOOTH",
"1188 1044 OFFCURVE",
"1222 998 OFFCURVE",
"1222 684 CURVE",
"1524 684 LINE",
"1524 1260 LINE",
"290 1260 LINE",
"290 1044 LINE",
"678 1044 LINE",
"678 282 LINE SMOOTH",
"678 240 OFFCURVE",
"664 216 OFFCURVE",
"628 216 CURVE SMOOTH",
"590 216 LINE"
);
}
);
width = 1594;
},
{
layerId = UUID0;
paths = (
{
closed = 1;
nodes = (
"0 0 LINE",
"508 0 LINE",
"508 72 LINE",
"396 72 LINE SMOOTH",
"344 72 OFFCURVE",
"312 94 OFFCURVE",
"312 124 CURVE SMOOTH",
"312 134 OFFCURVE",
"316 146 OFFCURVE",
"326 158 CURVE SMOOTH",
"1056 1122 LINE",
"1066 1122 LINE",
"1142 1258 LINE",
"1060 1258 LINE",
"236 160 LINE SMOOTH",
"182 86 OFFCURVE",
"150 72 OFFCURVE",
"86 72 CURVE SMOOTH",
"0 72 LINE"
);
},
{
closed = 1;
nodes = (
"528 480 LINE",
"1128 480 LINE",
"1116 552 LINE",
"542 552 LINE"
);
},
{
closed = 1;
nodes = (
"868 0 LINE",
"1992 0 LINE",
"1992 422 LINE",
"1928 422 LINE",
"1928 128 OFFCURVE",
"1908 72 OFFCURVE",
"1804 72 CURVE SMOOTH",
"1162 72 LINE",
"1162 606 LINE",
"1518 606 LINE SMOOTH",
"1588 606 OFFCURVE",
"1600 576 OFFCURVE",
"1604 380 CURVE",
"1668 380 LINE",
"1668 892 LINE",
"1604 892 LINE",
"1600 700 OFFCURVE",
"1588 670 OFFCURVE",
"1518 670 CURVE SMOOTH",
"1162 670 LINE",
"1162 1188 LINE",
"1804 1188 LINE SMOOTH",
"1908 1188 OFFCURVE",
"1928 1130 OFFCURVE",
"1928 836 CURVE",
"1992 836 LINE",
"1992 1260 LINE",
"666 1260 LINE",
"666 1188 LINE",
"1066 1188 LINE",
"1066 134 LINE SMOOTH",
"1066 92 OFFCURVE",
"1050 72 OFFCURVE",
"1016 72 CURVE SMOOTH",
"868 72 LINE"
);
}
);
width = 2172;
},
{
layerId = "4355E1B8-19E6-44BD-A1D7-6E3C2DECA4C8";
paths = (
{
closed = 1;
nodes = (
"20 0 LINE",
"676 0 LINE",
"676 180 LINE",
"548 180 LINE SMOOTH",
"508 180 OFFCURVE",
"490 198 OFFCURVE",
"490 222 CURVE SMOOTH",
"490 236 OFFCURVE",
"500 250 OFFCURVE",
"514 266 CURVE SMOOTH",
"1204 1080 LINE",
"1214 1080 LINE",
"1290 1258 LINE",
"1086 1258 LINE",
"276 268 LINE SMOOTH",
"214 194 OFFCURVE",
"190 180 OFFCURVE",
"126 180 CURVE SMOOTH",
"20 180 LINE"
);
},
{
closed = 1;
nodes = (
"616 420 LINE",
"1336 420 LINE",
"1324 598 LINE",
"630 598 LINE"
);
},
{
closed = 1;
nodes = (
"1010 0 LINE",
"2384 0 LINE",
"2384 538 LINE",
"2148 538 LINE",
"2148 264 OFFCURVE",
"2106 180 OFFCURVE",
"1952 180 CURVE SMOOTH",
"1490 180 LINE",
"1490 556 LINE",
"1606 556 LINE SMOOTH",
"1720 556 OFFCURVE",
"1744 520 OFFCURVE",
"1744 392 CURVE",
"1936 392 LINE",
"1936 896 LINE",
"1744 896 LINE",
"1744 752 OFFCURVE",
"1722 720 OFFCURVE",
"1606 720 CURVE SMOOTH",
"1490 720 LINE",
"1490 1080 LINE",
"1938 1080 LINE SMOOTH",
"2094 1080 OFFCURVE",
"2148 994 OFFCURVE",
"2148 708 CURVE",
"2384 708 LINE",
"2384 1260 LINE",
"710 1260 LINE",
"710 1080 LINE",
"1214 1080 LINE",
"1214 246 LINE SMOOTH",
"1214 204 OFFCURVE",
"1202 180 OFFCURVE",
"1164 180 CURVE SMOOTH",
"1010 180 LINE"
);
}
);
width = 2472;
},
{
layerId = "14C77FDB-037D-4842-9381-6D9ED15DD48C";
paths = (
{
closed = 1;
nodes = (
"18 0 LINE",
"840 0 LINE",
"840 302 LINE",
"712 302 LINE SMOOTH",
"672 302 OFFCURVE",
"654 320 OFFCURVE",
"654 344 CURVE SMOOTH",
"654 358 OFFCURVE",
"662 370 OFFCURVE",
"678 388 CURVE SMOOTH",
"1148 958 LINE",
"1158 958 LINE",
"1234 1258 LINE",
"1004 1258 LINE",
"274 390 LINE SMOOTH",
"212 316 OFFCURVE",
"188 302 OFFCURVE",
"124 302 CURVE SMOOTH",
"18 302 LINE"
);
},
{
closed = 1;
nodes = (
"614 416 LINE",
"1254 416 LINE",
"1242 662 LINE",
"628 662 LINE"
);
},
{
closed = 1;
nodes = (
"984 0 LINE",
"2430 0 LINE",
"2430 568 LINE",
"1990 568 LINE",
"1990 334 OFFCURVE",
"1946 304 OFFCURVE",
"1854 304 CURVE SMOOTH",
"1662 304 LINE",
"1662 540 LINE",
"1674 540 LINE SMOOTH",
"1708 540 OFFCURVE",
"1736 480 OFFCURVE",
"1736 426 CURVE",
"1948 426 LINE",
"1948 830 LINE",
"1736 830 LINE",
"1736 742 OFFCURVE",
"1710 724 OFFCURVE",
"1676 724 CURVE SMOOTH",
"1662 724 LINE",
"1662 956 LINE",
"1846 956 LINE SMOOTH",
"1944 956 OFFCURVE",
"1990 932 OFFCURVE",
"1990 692 CURVE",
"2430 692 LINE",
"2430 1260 LINE",
"584 1260 LINE",
"584 956 LINE",
"1162 956 LINE",
"1162 370 LINE SMOOTH",
"1162 328 OFFCURVE",
"1150 304 OFFCURVE",
"1112 304 CURVE SMOOTH",
"984 304 LINE"
);
}
);
width = 2490;
}
);
leftKerningGroup = A;
rightKerningGroup = E;
unicode = 00C6;
},
{
color = 6;
glyphname = B;
layers = (
{
anchors = (
{
name = bottom;
position = "{428, 0}";
},
{
name = top;
position = "{428, 1260}";
}
);
layerId = "E9E6D55E-9446-45F2-B66C-3272698B0216";
paths = (
{
closed = 1;
nodes = (
"594 670 LINE",
"710 724 OFFCURVE",
"766 828 OFFCURVE",
"766 960 CURVE SMOOTH",
"766 1134 OFFCURVE",
"668 1260 OFFCURVE",
"402 1260 CURVE SMOOTH",
"26 1260 LINE",
"26 1200 LINE",
"78 1200 LINE SMOOTH",
"140 1200 OFFCURVE",
"170 1174 OFFCURVE",
"170 1116 CURVE SMOOTH",
"170 140 LINE SMOOTH",
"170 86 OFFCURVE",
"140 58 OFFCURVE",
"80 58 CURVE SMOOTH",
"26 58 LINE",
"26 -2 LINE",
"422 -2 LINE SMOOTH",
"670 -2 OFFCURVE",
"806 124 OFFCURVE",
"806 336 CURVE SMOOTH",
"806 492 OFFCURVE",
"732 608 OFFCURVE",
"594 660 CURVE"
);
},
{
closed = 1;
nodes = (
"602 1190 OFFCURVE",
"676 1096 OFFCURVE",
"676 936 CURVE SMOOTH",
"676 790 OFFCURVE",
"614 696 OFFCURVE",
"384 696 CURVE SMOOTH",
"252 696 LINE",
"252 1190 LINE",
"404 1190 LINE SMOOTH"
);
},
{
closed = 1;
nodes = (
"252 68 LINE",
"252 626 LINE",
"404 626 LINE SMOOTH",
"616 626 OFFCURVE",
"716 532 OFFCURVE",
"716 344 CURVE SMOOTH",
"716 162 OFFCURVE",
"620 68 OFFCURVE",
"424 68 CURVE SMOOTH"
);
}
);
width = 856;
},
{
anchors = (
{
name = bottom;
position = "{496, 0}";
},
{
name = top;
position = "{496, 1260}";
}
);
background = {
paths = (
{
closed = 1;
nodes = (
"710 648 LINE",
"878 684 OFFCURVE",
"942 804 OFFCURVE",
"942 950 CURVE SMOOTH",
"942 1136 OFFCURVE",
"836 1260 OFFCURVE",
"498 1260 CURVE SMOOTH",
"30 1260 LINE",
"30 1080 LINE",
"102 1080 LINE SMOOTH",
"140 1080 OFFCURVE",
"154 1056 OFFCURVE",
"154 1016 CURVE SMOOTH",
"154 240 LINE SMOOTH",
"154 196 OFFCURVE",
"134 178 OFFCURVE",
"106 178 CURVE SMOOTH",
"30 178 LINE",
"30 -2 LINE",
"578 -2 LINE SMOOTH",
"826 -2 OFFCURVE",
"962 122 OFFCURVE",
"962 338 CURVE SMOOTH",
"962 542 OFFCURVE",
"840 618 OFFCURVE",
"710 640 CURVE"
);
},
{
closed = 1;
nodes = (
"616 1082 OFFCURVE",
"662 1044 OFFCURVE",
"662 928 CURVE SMOOTH",
"662 810 OFFCURVE",
"616 756 OFFCURVE",
"500 756 CURVE SMOOTH",
"430 756 LINE",
"430 1082 LINE",
"500 1082 LINE SMOOTH"
);
},
{
closed = 1;
nodes = (
"430 178 LINE",
"430 556 LINE",
"500 556 LINE SMOOTH",
"626 556 OFFCURVE",
"674 502 OFFCURVE",
"674 362 CURVE SMOOTH",
"674 246 OFFCURVE",
"640 178 OFFCURVE",
"500 178 CURVE SMOOTH"
);
}
);
};
layerId = "B25F85BC-C782-4067-8484-07202F80B8CD";
paths = (
{
closed = 1;
nodes = (
"690 648 LINE",
"858 684 OFFCURVE",
"922 804 OFFCURVE",
"922 950 CURVE SMOOTH",
"922 1136 OFFCURVE",
"816 1260 OFFCURVE",
"478 1260 CURVE SMOOTH",
"30 1260 LINE",
"30 1080 LINE",
"102 1080 LINE SMOOTH",
"140 1080 OFFCURVE",
"154 1056 OFFCURVE",
"154 1016 CURVE SMOOTH",
"154 240 LINE SMOOTH",
"154 196 OFFCURVE",
"134 178 OFFCURVE",
"106 178 CURVE SMOOTH",
"30 178 LINE",
"30 -2 LINE",
"558 -2 LINE SMOOTH",
"806 -2 OFFCURVE",
"942 122 OFFCURVE",
"942 338 CURVE SMOOTH",
"942 542 OFFCURVE",
"820 618 OFFCURVE",
"690 640 CURVE"
);
},
{
closed = 1;
nodes = (
"596 1082 OFFCURVE",
"642 1044 OFFCURVE",
"642 928 CURVE SMOOTH",
"642 810 OFFCURVE",
"596 756 OFFCURVE",
"480 756 CURVE SMOOTH",
"430 756 LINE",
"430 1082 LINE",
"480 1082 LINE SMOOTH"
);
},
{
closed = 1;
nodes = (
"430 178 LINE",
"430 556 LINE",
"480 556 LINE SMOOTH",
"606 556 OFFCURVE",
"654 502 OFFCURVE",
"654 362 CURVE SMOOTH",
"654 246 OFFCURVE",
"620 178 OFFCURVE",
"480 178 CURVE SMOOTH"
);
}
);
width = 992;
},
{
anchors = (
{
name = bottom;
position = "{463, 0}";
},
{
name = top;
position = "{463, 1260}";
}
);
background = {
paths = (
{
closed = 1;
nodes = (
"670 648 LINE",
"824 678 OFFCURVE",
"896 772 OFFCURVE",
"896 940 CURVE SMOOTH",
"896 1166 OFFCURVE",
"766 1260 OFFCURVE",
"458 1260 CURVE SMOOTH",
"14 1260 LINE",
"14 1044 LINE",
"50 1044 LINE SMOOTH",
"86 1044 OFFCURVE",
"102 1024 OFFCURVE",
"102 980 CURVE SMOOTH",
"102 276 LINE SMOOTH",
"102 236 OFFCURVE",
"84 214 OFFCURVE",
"52 214 CURVE SMOOTH",
"14 214 LINE",
"14 -2 LINE",
"538 -2 LINE SMOOTH",
"778 -2 OFFCURVE",
"916 122 OFFCURVE",
"916 336 CURVE SMOOTH",
"916 504 OFFCURVE",
"830 612 OFFCURVE",
"670 640 CURVE"
);
},
{
closed = 1;
nodes = (
"530 1046 OFFCURVE",
"556 1006 OFFCURVE",
"556 904 CURVE SMOOTH",
"556 794 OFFCURVE",
"526 744 OFFCURVE",
"460 744 CURVE SMOOTH",
"430 744 LINE",
"430 1046 LINE",
"460 1046 LINE SMOOTH"
);
},
{
closed = 1;
nodes = (
"430 214 LINE",
"430 528 LINE",
"470 528 LINE SMOOTH",
"528 528 OFFCURVE",
"554 478 OFFCURVE",
"554 372 CURVE SMOOTH",
"554 264 OFFCURVE",
"528 214 OFFCURVE",
"470 214 CURVE SMOOTH"
);
}
);
};
layerId = "B817C739-5D48-43E8-AAEE-CE891513D7BC";
paths = (
{
closed = 1;
nodes = (
"660 648 LINE",
"814 678 OFFCURVE",
"886 772 OFFCURVE",
"886 940 CURVE SMOOTH",
"886 1166 OFFCURVE",
"756 1260 OFFCURVE",
"458 1260 CURVE SMOOTH",
"14 1260 LINE",
"14 1044 LINE",
"50 1044 LINE SMOOTH",
"86 1044 OFFCURVE",
"102 1024 OFFCURVE",
"102 980 CURVE SMOOTH",
"102 276 LINE SMOOTH",
"102 236 OFFCURVE",
"84 214 OFFCURVE",
"52 214 CURVE SMOOTH",
"14 214 LINE",
"14 -2 LINE",
"528 -2 LINE SMOOTH",
"778 -2 OFFCURVE",
"906 122 OFFCURVE",
"906 336 CURVE SMOOTH",
"906 504 OFFCURVE",
"820 612 OFFCURVE",
"660 640 CURVE"
);
},
{
closed = 1;
nodes = (
"520 1046 OFFCURVE",
"546 1006 OFFCURVE",
"546 904 CURVE SMOOTH",
"546 794 OFFCURVE",
"516 744 OFFCURVE",
"460 744 CURVE SMOOTH",
"430 744 LINE",
"430 1046 LINE",
"460 1046 LINE SMOOTH"
);
},
{
closed = 1;
nodes = (
"430 214 LINE",
"430 528 LINE",
"470 528 LINE SMOOTH",
"518 528 OFFCURVE",
"544 478 OFFCURVE",
"544 372 CURVE SMOOTH",
"544 264 OFFCURVE",
"518 214 OFFCURVE",
"470 214 CURVE SMOOTH"
);
}
);
width = 926;
},
{
anchors = (
{
name = bottom;
position = "{698, 0}";
},
{
name = top;
position = "{698, 1260}";
}
);
layerId = UUID0;
paths = (
{
closed = 1;
nodes = (
"1066 666 LINE",
"1186 716 OFFCURVE",
"1256 810 OFFCURVE",
"1256 952 CURVE SMOOTH",
"1256 1152 OFFCURVE",
"1118 1262 OFFCURVE",
"832 1262 CURVE SMOOTH",
"40 1262 LINE",
"40 1190 LINE",
"198 1190 LINE SMOOTH",
"244 1190 OFFCURVE",
"260 1174 OFFCURVE",
"260 1126 CURVE SMOOTH",
"260 130 LINE SMOOTH",
"260 94 OFFCURVE",
"242 72 OFFCURVE",
"208 72 CURVE SMOOTH",
"42 72 LINE",
"42 0 LINE",
"852 0 LINE SMOOTH",
"1154 0 OFFCURVE",
"1296 118 OFFCURVE",
"1296 340 CURVE SMOOTH",
"1296 508 OFFCURVE",
"1214 622 OFFCURVE",
"1066 662 CURVE"
);
},
{
closed = 1;
nodes = (
"1064 1180 OFFCURVE",
"1166 1102 OFFCURVE",
"1166 942 CURVE SMOOTH",
"1166 776 OFFCURVE",
"1060 698 OFFCURVE",
"814 698 CURVE SMOOTH",
"356 698 LINE",
"356 1180 LINE",
"834 1180 LINE SMOOTH"
);
},
{
closed = 1;
nodes = (
"356 82 LINE",
"356 624 LINE",
"834 624 LINE SMOOTH",
"1086 624 OFFCURVE",
"1198 532 OFFCURVE",
"1198 342 CURVE SMOOTH",
"1198 164 OFFCURVE",
"1098 82 OFFCURVE",
"854 82 CURVE SMOOTH"
);
}
);
width = 1396;
},
{
anchors = (
{
name = bottom;
position = "{767, 0}";
},
{
name = top;
position = "{767, 1260}";
}
);
background = {
paths = (
{
closed = 1;
nodes = (
"1252 648 LINE",
"1404 680 OFFCURVE",
"1484 784 OFFCURVE",
"1484 940 CURVE SMOOTH",
"1484 1158 OFFCURVE",
"1346 1266 OFFCURVE",
"1060 1266 CURVE SMOOTH",
"44 1266 LINE",
"44 1086 LINE",
"196 1086 LINE SMOOTH",
"232 1086 OFFCURVE",
"248 1066 OFFCURVE",
"248 1022 CURVE SMOOTH",
"248 240 LINE SMOOTH",
"248 200 OFFCURVE",
"232 178 OFFCURVE",
"200 178 CURVE SMOOTH",
"44 178 LINE",
"44 -2 LINE",
"1100 -2 LINE SMOOTH",
"1344 -2 OFFCURVE",
"1504 140 OFFCURVE",
"1504 334 CURVE SMOOTH",
"1504 484 OFFCURVE",
"1402 614 OFFCURVE",
"1252 640 CURVE"
);
},
{
closed = 1;
nodes = (
"1134 1088 OFFCURVE",
"1204 1030 OFFCURVE",
"1204 926 CURVE SMOOTH",
"1204 822 OFFCURVE",
"1122 756 OFFCURVE",
"974 756 CURVE SMOOTH",
"524 756 LINE",
"524 1088 LINE",
"994 1088 LINE SMOOTH"
);
},
{
closed = 1;
nodes = (
"524 178 LINE",
"524 556 LINE",
"974 556 LINE SMOOTH",
"1146 556 OFFCURVE",
"1216 494 OFFCURVE",
"1216 364 CURVE SMOOTH",
"1216 232 OFFCURVE",
"1142 178 OFFCURVE",
"934 178 CURVE SMOOTH"
);
}
);
};
hints = (
{
place = "{728, 0}";
}
);
layerId = "4355E1B8-19E6-44BD-A1D7-6E3C2DECA4C8";
paths = (
{
closed = 1;
nodes = (
"1192 648 LINE",
"1344 680 OFFCURVE",
"1424 784 OFFCURVE",
"1424 940 CURVE SMOOTH",
"1424 1158 OFFCURVE",
"1286 1266 OFFCURVE",
"1000 1266 CURVE SMOOTH",
"44 1266 LINE",
"44 1086 LINE",
"196 1086 LINE SMOOTH",
"232 1086 OFFCURVE",
"248 1066 OFFCURVE",
"248 1022 CURVE SMOOTH",
"248 240 LINE SMOOTH",
"248 200 OFFCURVE",
"232 178 OFFCURVE",
"200 178 CURVE SMOOTH",
"44 178 LINE",
"44 -2 LINE",
"1040 -2 LINE SMOOTH",
"1284 -2 OFFCURVE",
"1444 140 OFFCURVE",
"1444 334 CURVE SMOOTH",
"1444 484 OFFCURVE",
"1342 614 OFFCURVE",
"1192 640 CURVE"
);
},
{
closed = 1;
nodes = (
"1074 1088 OFFCURVE",
"1144 1030 OFFCURVE",
"1144 926 CURVE SMOOTH",
"1144 822 OFFCURVE",
"1062 756 OFFCURVE",
"914 756 CURVE SMOOTH",
"524 756 LINE",
"524 1088 LINE",
"934 1088 LINE SMOOTH"
);
},
{
closed = 1;
nodes = (
"524 178 LINE",
"524 556 LINE",
"914 556 LINE SMOOTH",
"1086 556 OFFCURVE",
"1156 494 OFFCURVE",
"1156 364 CURVE SMOOTH",
"1156 232 OFFCURVE",
"1082 178 OFFCURVE",
"874 178 CURVE SMOOTH"
);
}
);
width = 1534;
},
{
anchors = (
{
name = bottom;
position = "{786, 0}";
},
{
name = top;
position = "{786, 1260}";
}
);
background = {
paths = (
{
closed = 1;
nodes = (
"1322 662 LINE",
"1472 718 OFFCURVE",
"1516 840 OFFCURVE",
"1516 974 CURVE SMOOTH",
"1516 1158 OFFCURVE",
"1388 1262 OFFCURVE",
"1136 1262 CURVE SMOOTH",
"34 1262 LINE",
"34 958 LINE",
"160 958 LINE SMOOTH",
"196 958 OFFCURVE",
"212 938 OFFCURVE",
"212 894 CURVE SMOOTH",
"212 366 LINE SMOOTH",
"212 326 OFFCURVE",
"194 304 OFFCURVE",
"162 304 CURVE SMOOTH",
"34 304 LINE",
"34 0 LINE",
"1156 0 LINE SMOOTH",
"1406 0 OFFCURVE",
"1562 144 OFFCURVE",
"1562 346 CURVE SMOOTH",
"1562 496 OFFCURVE",
"1474 600 OFFCURVE",
"1322 654 CURVE"
);
},
{
closed = 1;
nodes = (
"1022 960 OFFCURVE",
"1054 928 OFFCURVE",
"1054 864 CURVE SMOOTH",
"1054 798 OFFCURVE",
"1020 766 OFFCURVE",
"950 766 CURVE SMOOTH",
"712 766 LINE",
"712 960 LINE",
"958 960 LINE SMOOTH"
);
},
{
closed = 1;
nodes = (
"712 304 LINE",
"712 490 LINE",
"968 490 LINE SMOOTH",
"1024 490 OFFCURVE",
"1052 452 OFFCURVE",
"1052 398 CURVE SMOOTH",
"1052 344 OFFCURVE",
"1024 304 OFFCURVE",
"968 304 CURVE SMOOTH"
);
}
);
};
layerId = "14C77FDB-037D-4842-9381-6D9ED15DD48C";
paths = (
{
closed = 1;
nodes = (
"1262 662 LINE",
"1412 718 OFFCURVE",
"1456 840 OFFCURVE",
"1456 974 CURVE SMOOTH",
"1456 1158 OFFCURVE",
"1328 1262 OFFCURVE",
"1076 1262 CURVE SMOOTH",
"34 1262 LINE",
"34 958 LINE",
"160 958 LINE SMOOTH",
"196 958 OFFCURVE",
"212 938 OFFCURVE",
"212 894 CURVE SMOOTH",
"212 366 LINE SMOOTH",
"212 326 OFFCURVE",
"194 304 OFFCURVE",
"162 304 CURVE SMOOTH",
"34 304 LINE",
"34 0 LINE",
"1096 0 LINE SMOOTH",
"1346 0 OFFCURVE",
"1502 144 OFFCURVE",
"1502 346 CURVE SMOOTH",
"1502 496 OFFCURVE",
"1414 600 OFFCURVE",
"1262 654 CURVE"
);
},
{
closed = 1;
nodes = (
"962 960 OFFCURVE",
"994 928 OFFCURVE",
"994 864 CURVE SMOOTH",
"994 798 OFFCURVE",
"960 766 OFFCURVE",
"890 766 CURVE SMOOTH",
"712 766 LINE",
"712 960 LINE",
"898 960 LINE SMOOTH"
);
},
{
closed = 1;
nodes = (
"712 304 LINE",
"712 490 LINE",
"908 490 LINE SMOOTH",
"964 490 OFFCURVE",
"992 452 OFFCURVE",
"992 398 CURVE SMOOTH",
"992 344 OFFCURVE",
"964 304 OFFCURVE",
"908 304 CURVE SMOOTH"
);
}
);
width = 1572;
}
);
leftKerningGroup = H;
leftMetricsKey = H;
rightKerningGroup = B;
unicode = 0042;
},
{
color = 6;
glyphname = C;
layers = (
{
anchors = (
{
name = bottom;
position = "{401, 0}";
},
{
name = top;
position = "{401, 1260}";
}
);
background = {
paths = (
{
closed = 1;
nodes = (
"240 56 OFFCURVE",
"152 208 OFFCURVE",
"152 628 CURVE SMOOTH",
"152 1044 OFFCURVE",
"240 1194 OFFCURVE",
"450 1194 CURVE SMOOTH",
"598 1194 OFFCURVE",
"700 1120 OFFCURVE",
"700 802 CURVE",
"762 802 LINE",
"762 1260 LINE",
"720 1260 LINE",
"708 1142 LINE",
"700 1142 LINE",
"644 1228 OFFCURVE",
"576 1268 OFFCURVE",
"450 1268 CURVE SMOOTH",
"174 1268 OFFCURVE",
"60 1074 OFFCURVE",
"60 626 CURVE SMOOTH",
"60 184 OFFCURVE",
"170 -20 OFFCURVE",
"436 -20 CURVE SMOOTH",
"660 -20 OFFCURVE",
"770 124 OFFCURVE",
"770 464 CURVE",
"700 464 LINE",
"700 136 OFFCURVE",
"592 56 OFFCURVE",
"444 56 CURVE SMOOTH"
);
}
);
};
layerId = "E9E6D55E-9446-45F2-B66C-3272698B0216";
paths = (
{
closed = 1;
nodes = (
"240 56 OFFCURVE",
"152 208 OFFCURVE",
"152 628 CURVE SMOOTH",
"152 1044 OFFCURVE",
"240 1194 OFFCURVE",
"436 1194 CURVE SMOOTH",
"570 1194 OFFCURVE",
"672 1120 OFFCURVE",
"672 802 CURVE",
"734 802 LINE",
"734 1260 LINE",
"692 1260 LINE",
"680 1142 LINE",
"672 1142 LINE",
"616 1228 OFFCURVE",
"548 1268 OFFCURVE",
"436 1268 CURVE SMOOTH",
"174 1268 OFFCURVE",
"60 1074 OFFCURVE",
"60 626 CURVE SMOOTH",
"60 184 OFFCURVE",
"170 -20 OFFCURVE",
"422 -20 CURVE SMOOTH",
"632 -20 OFFCURVE",
"742 124 OFFCURVE",
"742 464 CURVE",
"672 464 LINE",
"672 136 OFFCURVE",
"564 56 OFFCURVE",
"430 56 CURVE SMOOTH"
);
}
);
width = 802;
},
{
anchors = (
{
name = bottom;
position = "{477, 0}";
},
{
name = top;
position = "{477, 1260}";
}
);
background = {
paths = (
{
closed = 1;
nodes = (
"428 186 OFFCURVE",
"374 274 OFFCURVE",
"374 624 CURVE SMOOTH",
"374 944 OFFCURVE",
"420 1072 OFFCURVE",
"530 1072 CURVE SMOOTH",
"634 1072 OFFCURVE",
"652 954 OFFCURVE",
"652 768 CURVE",
"854 768 LINE",
"854 1260 LINE",
"690 1260 LINE",
"666 1148 LINE",
"658 1148 LINE",
"620 1230 OFFCURVE",
"544 1280 OFFCURVE",
"424 1280 CURVE SMOOTH",
"204 1280 OFFCURVE",
"70 1112 OFFCURVE",
"70 642 CURVE SMOOTH",
"70 168 OFFCURVE",
"204 -20 OFFCURVE",
"486 -20 CURVE SMOOTH",
"764 -20 OFFCURVE",
"854 162 OFFCURVE",
"854 544 CURVE",
"656 544 LINE",
"656 248 OFFCURVE",
"604 186 OFFCURVE",
"524 186 CURVE SMOOTH"
);
}
);
};
layerId = "B25F85BC-C782-4067-8484-07202F80B8CD";
paths = (
{
closed = 1;
nodes = (
"428 186 OFFCURVE",
"374 270 OFFCURVE",
"374 624 CURVE SMOOTH",
"374 948 OFFCURVE",
"420 1072 OFFCURVE",
"530 1072 CURVE SMOOTH",
"638 1072 OFFCURVE",
"656 950 OFFCURVE",
"656 768 CURVE",
"884 768 LINE",
"884 1260 LINE",
"710 1260 LINE",
"686 1148 LINE",
"678 1148 LINE",
"642 1226 OFFCURVE",
"568 1280 OFFCURVE",
"436 1280 CURVE SMOOTH",
"204 1280 OFFCURVE",
"70 1114 OFFCURVE",
"70 642 CURVE SMOOTH",
"70 168 OFFCURVE",
"204 -20 OFFCURVE",
"496 -20 CURVE SMOOTH",
"794 -20 OFFCURVE",
"884 162 OFFCURVE",
"884 544 CURVE",
"660 544 LINE",
"650 260 OFFCURVE",
"612 186 OFFCURVE",
"522 186 CURVE SMOOTH"
);
}
);
width = 954;
},
{
anchors = (
{
name = bottom;
position = "{448, 0}";
},
{
name = top;
position = "{448, 1260}";
}
);
layerId = "B817C739-5D48-43E8-AAEE-CE891513D7BC";
paths = (
{
closed = 1;
nodes = (
"438 256 OFFCURVE",
"428 296 OFFCURVE",
"428 588 CURVE SMOOTH",
"428 964 OFFCURVE",
"444 1004 OFFCURVE",
"492 1004 CURVE SMOOTH",
"536 1004 OFFCURVE",
"554 972 OFFCURVE",
"554 708 CURVE",
"856 708 LINE",
"856 1260 LINE",
"614 1260 LINE",
"602 1176 LINE",
"594 1176 LINE",
"568 1242 OFFCURVE",
"502 1280 OFFCURVE",
"386 1280 CURVE SMOOTH",
"154 1280 OFFCURVE",
"32 1116 OFFCURVE",
"32 654 CURVE SMOOTH",
"32 170 OFFCURVE",
"164 -20 OFFCURVE",
"462 -20 CURVE SMOOTH",
"746 -20 OFFCURVE",
"856 154 OFFCURVE",
"856 584 CURVE",
"554 584 LINE",
"554 308 OFFCURVE",
"544 256 OFFCURVE",
"488 256 CURVE SMOOTH"
);
}
);
width = 896;
},
{
anchors = (
{
name = bottom;
position = "{731, 0}";
},
{
name = top;
position = "{731, 1260}";
}
);
background = {
paths = (
{
closed = 0;
nodes = (
"1252 882 LINE",
"1312 882 LINE",
"1312 1330 LINE",
"1256 1330 LINE",
"1244 1218 LINE",
"1236 1218 LINE"
);
}
);
};
guideLines = (
{
position = "{541, 240}";
}
);
layerId = UUID0;
paths = (
{
closed = 1;
nodes = (
"424 62 OFFCURVE",
"248 270 OFFCURVE",
"248 630 CURVE SMOOTH",
"248 994 OFFCURVE",
"426 1202 OFFCURVE",
"780 1202 CURVE SMOOTH",
"1034 1202 OFFCURVE",
"1194 1094 OFFCURVE",
"1248 816 CURVE",
"1312 816 LINE",
"1312 1260 LINE",
"1256 1260 LINE",
"1232 1068 LINE",
"1224 1068 LINE",
"1150 1192 OFFCURVE",
"1008 1284 OFFCURVE",
"768 1284 CURVE SMOOTH",
"378 1284 OFFCURVE",
"150 1042 OFFCURVE",
"150 630 CURVE SMOOTH",
"150 224 OFFCURVE",
"372 -20 OFFCURVE",
"764 -20 CURVE SMOOTH",
"1118 -20 OFFCURVE",
"1332 178 OFFCURVE",
"1332 484 CURVE",
"1246 484 LINE",
"1246 220 OFFCURVE",
"1078 62 OFFCURVE",
"774 62 CURVE SMOOTH"
);
}
);
width = 1462;
},
{
anchors = (
{
name = bottom;
position = "{745, 0}";
},
{
name = top;
position = "{745, 1260}";
}
);
background = {
paths = (
{
closed = 1;
nodes = (
"586 186 OFFCURVE",
"406 284 OFFCURVE",
"406 628 CURVE SMOOTH",
"406 910 OFFCURVE",
"534 1074 OFFCURVE",
"798 1074 CURVE SMOOTH",
"1006 1074 OFFCURVE",
"1132 974 OFFCURVE",
"1152 768 CURVE",
"1358 768 LINE",
"1358 1260 LINE",
"1152 1260 LINE",
"1130 1146 LINE",
"1122 1146 LINE",
"1054 1230 OFFCURVE",
"948 1280 OFFCURVE",
"772 1280 CURVE SMOOTH",
"372 1280 OFFCURVE",
"110 1018 OFFCURVE",
"110 624 CURVE SMOOTH",
"110 248 OFFCURVE",
"346 -20 OFFCURVE",
"774 -20 CURVE SMOOTH",
"1192 -20 OFFCURVE",
"1370 238 OFFCURVE",
"1370 544 CURVE",
"1164 544 LINE",
"1164 300 OFFCURVE",
"1032 186 OFFCURVE",
"800 186 CURVE SMOOTH"
);
}
);
};
layerId = "4355E1B8-19E6-44BD-A1D7-6E3C2DECA4C8";
paths = (
{
closed = 1;
nodes = (
"540 186 OFFCURVE",
"406 334 OFFCURVE",
"406 626 CURVE SMOOTH",
"406 918 OFFCURVE",
"542 1074 OFFCURVE",
"798 1074 CURVE SMOOTH",
"1010 1074 OFFCURVE",
"1132 968 OFFCURVE",
"1152 768 CURVE",
"1378 768 LINE",
"1378 1260 LINE",
"1172 1260 LINE",
"1150 1146 LINE",
"1142 1146 LINE",
"1072 1236 OFFCURVE",
"952 1280 OFFCURVE",
"782 1280 CURVE SMOOTH",
"372 1280 OFFCURVE",
"110 1022 OFFCURVE",
"110 622 CURVE SMOOTH",
"110 226 OFFCURVE",
"366 -20 OFFCURVE",
"778 -20 CURVE SMOOTH",
"1158 -20 OFFCURVE",
"1390 192 OFFCURVE",
"1390 544 CURVE",
"1164 544 LINE",
"1164 310 OFFCURVE",
"1040 186 OFFCURVE",
"802 186 CURVE SMOOTH"
);
}
);
width = 1490;
},
{
anchors = (
{
name = bottom;
position = "{731, 0}";
},
{
name = top;
position = "{731, 1260}";
}
);
layerId = "14C77FDB-037D-4842-9381-6D9ED15DD48C";
paths = (
{
closed = 1;
nodes = (
"662 350 OFFCURVE",
"600 432 OFFCURVE",
"600 626 CURVE SMOOTH",
"600 804 OFFCURVE",
"654 910 OFFCURVE",
"808 910 CURVE SMOOTH",
"936 910 OFFCURVE",
"1000 838 OFFCURVE",
"1000 692 CURVE",
"1420 692 LINE",
"1420 1260 LINE",
"1054 1260 LINE",
"1030 1178 LINE",
"1022 1178 LINE",
"976 1234 OFFCURVE",
"882 1280 OFFCURVE",
"704 1280 CURVE SMOOTH",
"294 1280 OFFCURVE",
"34 1036 OFFCURVE",
"34 634 CURVE SMOOTH",
"34 246 OFFCURVE",
"276 -20 OFFCURVE",
"756 -20 CURVE SMOOTH",
"1264 -20 OFFCURVE",
"1432 278 OFFCURVE",
"1432 604 CURVE",
"1006 604 LINE",
"1006 432 OFFCURVE",
"946 350 OFFCURVE",
"804 350 CURVE SMOOTH"
);
}
);
width = 1462;
}
);
leftKerningGroup = O;
leftMetricsKey = O;
rightKerningGroup = C;
unicode = 0043;
},
{
color = 6;
glyphname = D;
layers = (
{
anchors = (
{
name = bottom;
position = "{457, 0}";
},
{
name = center;
position = "{243, 630}";
},
{
name = top;
position = "{457, 1260}";
}
);
layerId = "E9E6D55E-9446-45F2-B66C-3272698B0216";
paths = (
{
closed = 1;
nodes = (
"26 0 LINE",
"448 0 LINE SMOOTH",
"672 0 OFFCURVE",
"864 188 OFFCURVE",
"864 638 CURVE SMOOTH",
"864 1078 OFFCURVE",
"678 1260 OFFCURVE",
"428 1260 CURVE SMOOTH",
"26 1260 LINE",
"26 1200 LINE",
"94 1200 LINE SMOOTH",
"148 1200 OFFCURVE",
"170 1154 OFFCURVE",
"170 1076 CURVE SMOOTH",
"170 182 LINE SMOOTH",
"170 106 OFFCURVE",
"146 60 OFFCURVE",
"94 60 CURVE SMOOTH",
"26 60 LINE"
);
},
{
closed = 1;
nodes = (
"254 1196 LINE",
"428 1196 LINE SMOOTH",
"652 1196 OFFCURVE",
"774 978 OFFCURVE",
"774 632 CURVE SMOOTH",
"774 272 OFFCURVE",
"642 64 OFFCURVE",
"450 64 CURVE SMOOTH",
"254 64 LINE"
);
}
);
width = 914;
},
{
anchors = (
{
name = bottom;
position = "{536, 0}";
},
{
name = center;
position = "{307, 630}";
},
{
name = top;
position = "{536, 1260}";
}
);
background = {
paths = (
{
closed = 1;
nodes = (
"30 0 LINE",
"554 0 LINE SMOOTH",
"868 0 OFFCURVE",
"1036 240 OFFCURVE",
"1036 630 CURVE SMOOTH",
"1036 1018 OFFCURVE",
"868 1260 OFFCURVE",
"556 1260 CURVE SMOOTH",
"30 1260 LINE",
"30 1080 LINE",
"100 1080 LINE SMOOTH",
"142 1080 OFFCURVE",
"154 1054 OFFCURVE",
"154 1016 CURVE SMOOTH",
"154 244 LINE SMOOTH",
"154 206 OFFCURVE",
"142 180 OFFCURVE",
"100 180 CURVE SMOOTH",
"30 180 LINE"
);
},
{
closed = 1;
nodes = (
"430 1080 LINE",
"562 1080 LINE SMOOTH",
"680 1080 OFFCURVE",
"738 980 OFFCURVE",
"738 620 CURVE SMOOTH",
"738 274 OFFCURVE",
"686 180 OFFCURVE",
"564 180 CURVE SMOOTH",
"430 180 LINE"
);
}
);
};
layerId = "B25F85BC-C782-4067-8484-07202F80B8CD";
paths = (
{
closed = 1;
nodes = (
"30 0 LINE",
"530 0 LINE SMOOTH",
"864 0 OFFCURVE",
"1012 240 OFFCURVE",
"1012 630 CURVE SMOOTH",
"1012 1018 OFFCURVE",
"844 1260 OFFCURVE",
"532 1260 CURVE SMOOTH",
"30 1260 LINE",
"30 1080 LINE",
"100 1080 LINE SMOOTH",
"142 1080 OFFCURVE",
"154 1054 OFFCURVE",
"154 1016 CURVE SMOOTH",
"154 244 LINE SMOOTH",
"154 206 OFFCURVE",
"142 180 OFFCURVE",
"100 180 CURVE SMOOTH",
"30 180 LINE"
);
},
{
closed = 1;
nodes = (
"430 1080 LINE",
"538 1080 LINE SMOOTH",
"676 1080 OFFCURVE",
"714 980 OFFCURVE",
"714 620 CURVE SMOOTH",
"714 274 OFFCURVE",
"662 180 OFFCURVE",
"540 180 CURVE SMOOTH",
"430 180 LINE"
);
}
);
width = 1072;
},
{
anchors = (
{
name = bottom;
position = "{499, 0}";
},
{
name = center;
position = "{291, 630}";
},
{
name = top;
position = "{499, 1260}";
}
);
background = {
paths = (
{
closed = 1;
nodes = (
"14 0 LINE",
"488 0 LINE SMOOTH",
"756 0 OFFCURVE",
"970 188 OFFCURVE",
"970 640 CURVE SMOOTH",
"970 1078 OFFCURVE",
"766 1260 OFFCURVE",
"468 1260 CURVE SMOOTH",
"14 1260 LINE",
"14 1044 LINE",
"48 1044 LINE SMOOTH",
"88 1044 OFFCURVE",
"102 1022 OFFCURVE",
"102 980 CURVE SMOOTH",
"102 278 LINE SMOOTH",
"102 238 OFFCURVE",
"86 216 OFFCURVE",
"48 216 CURVE SMOOTH",
"14 216 LINE"
);
},
{
closed = 1;
nodes = (
"462 1034 LINE",
"512 1034 LINE SMOOTH",
"570 1034 OFFCURVE",
"588 986 OFFCURVE",
"588 644 CURVE SMOOTH",
"588 262 OFFCURVE",
"566 226 OFFCURVE",
"514 226 CURVE SMOOTH",
"462 226 LINE"
);
}
);
};
layerId = "B817C739-5D48-43E8-AAEE-CE891513D7BC";
paths = (
{
closed = 1;
nodes = (
"14 0 LINE",
"568 0 LINE SMOOTH",
"796 0 OFFCURVE",
"970 188 OFFCURVE",
"970 640 CURVE SMOOTH",
"970 1078 OFFCURVE",
"806 1260 OFFCURVE",
"548 1260 CURVE SMOOTH",
"14 1260 LINE",
"14 1044 LINE",
"48 1044 LINE SMOOTH",
"88 1044 OFFCURVE",
"102 1022 OFFCURVE",
"102 980 CURVE SMOOTH",
"102 278 LINE SMOOTH",
"102 238 OFFCURVE",
"86 216 OFFCURVE",
"48 216 CURVE SMOOTH",
"14 216 LINE"
);
},
{
closed = 1;
nodes = (
"462 1034 LINE",
"512 1034 LINE SMOOTH",
"570 1034 OFFCURVE",
"588 986 OFFCURVE",
"588 644 CURVE SMOOTH",
"588 262 OFFCURVE",
"566 226 OFFCURVE",
"514 226 CURVE SMOOTH",
"462 226 LINE"
);
}
);
width = 998;
},
{
anchors = (
{
name = bottom;
position = "{771, 0}";
},
{
name = center;
position = "{313, 630}";
},
{
name = top;
position = "{771, 1260}";
}
);
background = {
paths = (
{
closed = 1;
nodes = (
"62 0 LINE",
"754 0 LINE SMOOTH",
"1166 0 OFFCURVE",
"1422 194 OFFCURVE",
"1422 624 CURVE SMOOTH",
"1422 1058 OFFCURVE",
"1162 1260 OFFCURVE",
"756 1260 CURVE SMOOTH",
"60 1260 LINE",
"60 1188 LINE",
"206 1188 LINE SMOOTH",
"248 1188 OFFCURVE",
"260 1162 OFFCURVE",
"260 1124 CURVE SMOOTH",
"260 136 LINE SMOOTH",
"260 98 OFFCURVE",
"248 72 OFFCURVE",
"206 72 CURVE SMOOTH",
"62 72 LINE"
);
},
{
closed = 1;
nodes = (
"356 1188 LINE",
"756 1188 LINE SMOOTH",
"1102 1188 OFFCURVE",
"1324 1052 OFFCURVE",
"1324 630 CURVE SMOOTH",
"1324 198 OFFCURVE",
"1090 72 OFFCURVE",
"754 72 CURVE SMOOTH",
"356 72 LINE"
);
}
);
};
layerId = UUID0;
paths = (
{
closed = 1;
nodes = (
"42 0 LINE",
"724 0 LINE SMOOTH",
"1136 0 OFFCURVE",
"1392 194 OFFCURVE",
"1392 624 CURVE SMOOTH",
"1392 1058 OFFCURVE",
"1132 1260 OFFCURVE",
"726 1260 CURVE SMOOTH",
"40 1260 LINE",
"40 1188 LINE",
"206 1188 LINE SMOOTH",
"248 1188 OFFCURVE",
"260 1162 OFFCURVE",
"260 1124 CURVE SMOOTH",
"260 136 LINE SMOOTH",
"260 98 OFFCURVE",
"248 72 OFFCURVE",
"206 72 CURVE SMOOTH",
"42 72 LINE"
);
},
{
closed = 1;
nodes = (
"356 1188 LINE",
"726 1188 LINE SMOOTH",
"1072 1188 OFFCURVE",
"1294 1052 OFFCURVE",
"1294 630 CURVE SMOOTH",
"1294 198 OFFCURVE",
"1060 72 OFFCURVE",
"724 72 CURVE SMOOTH",
"356 72 LINE"
);
}
);
width = 1542;
},
{
anchors = (
{
name = bottom;
position = "{805, 0}";
},
{
name = center;
position = "{385, 630}";
},
{
name = top;
position = "{805, 1260}";
}
);
background = {
paths = (
{
closed = 1;
nodes = (
"44 0 LINE",
"838 0 LINE SMOOTH",
"1284 0 OFFCURVE",
"1540 240 OFFCURVE",
"1540 628 CURVE SMOOTH",
"1540 1018 OFFCURVE",
"1284 1260 OFFCURVE",
"840 1260 CURVE SMOOTH",
"44 1260 LINE",
"44 1080 LINE",
"194 1080 LINE SMOOTH",
"236 1080 OFFCURVE",
"248 1054 OFFCURVE",
"248 1016 CURVE SMOOTH",
"248 244 LINE SMOOTH",
"248 206 OFFCURVE",
"236 180 OFFCURVE",
"194 180 CURVE SMOOTH",
"44 180 LINE"
);
},
{
closed = 1;
nodes = (
"524 1080 LINE",
"846 1080 LINE SMOOTH",
"1118 1080 OFFCURVE",
"1242 958 OFFCURVE",
"1242 622 CURVE SMOOTH",
"1242 292 OFFCURVE",
"1124 180 OFFCURVE",
"848 180 CURVE SMOOTH",
"524 180 LINE"
);
}
);
};
layerId = "4355E1B8-19E6-44BD-A1D7-6E3C2DECA4C8";
paths = (
{
closed = 1;
nodes = (
"44 0 LINE",
"928 0 LINE SMOOTH",
"1294 0 OFFCURVE",
"1510 240 OFFCURVE",
"1510 628 CURVE SMOOTH",
"1510 1018 OFFCURVE",
"1294 1260 OFFCURVE",
"930 1260 CURVE SMOOTH",
"44 1260 LINE",
"44 1080 LINE",
"194 1080 LINE SMOOTH",
"236 1080 OFFCURVE",
"248 1054 OFFCURVE",
"248 1016 CURVE SMOOTH",
"248 244 LINE SMOOTH",
"248 206 OFFCURVE",
"236 180 OFFCURVE",
"194 180 CURVE SMOOTH",
"44 180 LINE"
);
},
{
closed = 1;
nodes = (
"524 1080 LINE",
"816 1080 LINE SMOOTH",
"1088 1080 OFFCURVE",
"1212 958 OFFCURVE",
"1212 622 CURVE SMOOTH",
"1212 292 OFFCURVE",
"1094 180 OFFCURVE",
"818 180 CURVE SMOOTH",
"524 180 LINE"
);
}
);
width = 1610;
},
{
anchors = (
{
name = bottom;
position = "{817, 0}";
},
{
name = center;
position = "{464, 630}";
},
{
name = top;
position = "{817, 1260}";
}
);
background = {
paths = (
{
closed = 1;
nodes = (
"34 0 LINE",
"882 0 LINE SMOOTH",
"1382 0 OFFCURVE",
"1654 206 OFFCURVE",
"1654 628 CURVE SMOOTH",
"1654 1054 OFFCURVE",
"1378 1260 OFFCURVE",
"884 1260 CURVE SMOOTH",
"34 1260 LINE",
"34 956 LINE",
"158 956 LINE SMOOTH",
"200 956 OFFCURVE",
"212 930 OFFCURVE",
"212 892 CURVE SMOOTH",
"212 368 LINE SMOOTH",
"212 330 OFFCURVE",
"200 304 OFFCURVE",
"158 304 CURVE SMOOTH",
"34 304 LINE"
);
},
{
closed = 1;
nodes = (
"712 932 LINE",
"884 932 LINE SMOOTH",
"1022 932 OFFCURVE",
"1088 854 OFFCURVE",
"1088 618 CURVE SMOOTH",
"1088 368 OFFCURVE",
"1014 304 OFFCURVE",
"884 304 CURVE SMOOTH",
"712 304 LINE"
);
}
);
};
layerId = "14C77FDB-037D-4842-9381-6D9ED15DD48C";
paths = (
{
closed = 1;
nodes = (
"34 0 LINE",
"882 0 LINE SMOOTH",
"1362 0 OFFCURVE",
"1594 206 OFFCURVE",
"1594 628 CURVE SMOOTH",
"1594 1054 OFFCURVE",
"1358 1260 OFFCURVE",
"884 1260 CURVE SMOOTH",
"34 1260 LINE",
"34 956 LINE",
"158 956 LINE SMOOTH",
"200 956 OFFCURVE",
"212 930 OFFCURVE",
"212 892 CURVE SMOOTH",
"212 368 LINE SMOOTH",
"212 330 OFFCURVE",
"200 304 OFFCURVE",
"158 304 CURVE SMOOTH",
"34 304 LINE"
);
},
{
closed = 1;
nodes = (
"712 932 LINE",
"824 932 LINE SMOOTH",
"962 932 OFFCURVE",
"1028 854 OFFCURVE",
"1028 618 CURVE SMOOTH",
"1028 368 OFFCURVE",
"954 304 OFFCURVE",
"824 304 CURVE SMOOTH",
"712 304 LINE"
);
}
);
width = 1634;
}
);
leftKerningGroup = H;
leftMetricsKey = H;
rightKerningGroup = O;
unicode = 0044;
},
{
color = 6;
glyphname = E;
layers = (
{
anchors = (
{
name = bottom;
position = "{423, 0}";
},
{
name = ogonek;
position = "{608, 10}";
},
{
name = top;
position = "{423, 1260}";
},
{
name = topleft;
position = "{20, 1260}";
}
);
background = {
paths = (
{
closed = 1;
nodes = (
"26 0 LINE",
"756 0 LINE",
"756 418 LINE",
"692 418 LINE",
"692 106 OFFCURVE",
"658 60 OFFCURVE",
"568 60 CURVE SMOOTH",
"256 60 LINE",
"256 606 LINE",
"402 606 LINE SMOOTH",
"476 606 OFFCURVE",
"484 568 OFFCURVE",
"488 360 CURVE",
"552 360 LINE",
"552 892 LINE",
"488 892 LINE",
"484 708 OFFCURVE",
"476 670 OFFCURVE",
"402 670 CURVE SMOOTH",
"256 670 LINE",
"256 1200 LINE",
"568 1200 LINE SMOOTH",
"654 1200 OFFCURVE",
"692 1154 OFFCURVE",
"692 876 CURVE",
"756 876 LINE",
"756 1260 LINE",
"32 1260 LINE",
"32 1200 LINE",
"78 1200 LINE SMOOTH",
"144 1200 OFFCURVE",
"170 1170 OFFCURVE",
"170 1116 CURVE SMOOTH",
"170 142 LINE SMOOTH",
"170 90 OFFCURVE",
"142 60 OFFCURVE",
"80 60 CURVE SMOOTH",
"26 60 LINE"
);
}
);
};
layerId = "E9E6D55E-9446-45F2-B66C-3272698B0216";
paths = (
{
closed = 1;
nodes = (
"26 0 LINE",
"746 0 LINE",
"746 418 LINE",
"682 418 LINE",
"682 106 OFFCURVE",
"648 60 OFFCURVE",
"558 60 CURVE SMOOTH",
"256 60 LINE",
"256 606 LINE",
"392 606 LINE SMOOTH",
"466 606 OFFCURVE",
"474 568 OFFCURVE",
"478 360 CURVE",
"542 360 LINE",
"542 892 LINE",
"478 892 LINE",
"474 708 OFFCURVE",
"466 670 OFFCURVE",
"392 670 CURVE SMOOTH",
"256 670 LINE",
"256 1200 LINE",
"558 1200 LINE SMOOTH",
"644 1200 OFFCURVE",
"682 1154 OFFCURVE",
"682 876 CURVE",
"746 876 LINE",
"746 1260 LINE",
"32 1260 LINE",
"32 1200 LINE",
"78 1200 LINE SMOOTH",
"144 1200 OFFCURVE",
"170 1170 OFFCURVE",
"170 1116 CURVE SMOOTH",
"170 142 LINE SMOOTH",
"170 90 OFFCURVE",
"142 60 OFFCURVE",
"80 60 CURVE SMOOTH",
"26 60 LINE"
);
}
);
width = 846;
},
{
anchors = (
{
name = bottom;
position = "{503, 0}";
},
{
name = ogonek;
position = "{799, 10}";
},
{
name = top;
position = "{503, 1260}";
},
{
name = topleft;
position = "{20, 1260}";
}
);
background = {
paths = (
{
closed = 1;
nodes = (
"30 0 LINE",
"986 0 LINE",
"986 544 LINE",
"748 544 LINE",
"748 224 OFFCURVE",
"722 180 OFFCURVE",
"628 180 CURVE SMOOTH",
"430 180 LINE",
"430 536 LINE",
"440 536 LINE SMOOTH",
"512 536 OFFCURVE",
"524 492 OFFCURVE",
"524 336 CURVE",
"666 336 LINE",
"666 896 LINE",
"524 896 LINE",
"524 732 OFFCURVE",
"514 700 OFFCURVE",
"440 700 CURVE SMOOTH",
"430 700 LINE",
"430 1080 LINE",
"624 1080 LINE SMOOTH",
"708 1080 OFFCURVE",
"748 1014 OFFCURVE",
"748 708 CURVE",
"986 708 LINE",
"986 1260 LINE",
"30 1260 LINE",
"30 1080 LINE",
"102 1080 LINE SMOOTH",
"142 1080 OFFCURVE",
"154 1058 OFFCURVE",
"154 1008 CURVE SMOOTH",
"154 246 LINE SMOOTH",
"154 204 OFFCURVE",
"142 180 OFFCURVE",
"104 180 CURVE SMOOTH",
"30 180 LINE"
);
}
);
};
layerId = "B25F85BC-C782-4067-8484-07202F80B8CD";
paths = (
{
closed = 1;
nodes = (
"30 0 LINE",
"926 0 LINE",
"926 544 LINE",
"688 544 LINE",
"688 224 OFFCURVE",
"662 180 OFFCURVE",
"568 180 CURVE SMOOTH",
"430 180 LINE",
"430 536 LINE",
"440 536 LINE SMOOTH",
"482 536 OFFCURVE",
"494 492 OFFCURVE",
"494 356 CURVE",
"626 356 LINE",
"626 876 LINE",
"494 876 LINE",
"494 732 OFFCURVE",
"484 700 OFFCURVE",
"440 700 CURVE SMOOTH",
"430 700 LINE",
"430 1080 LINE",
"564 1080 LINE SMOOTH",
"688 1080 OFFCURVE",
"688 1014 OFFCURVE",
"688 708 CURVE",
"926 708 LINE",
"926 1260 LINE",
"30 1260 LINE",
"30 1080 LINE",
"102 1080 LINE SMOOTH",
"142 1080 OFFCURVE",
"154 1058 OFFCURVE",
"154 1008 CURVE SMOOTH",
"154 246 LINE SMOOTH",
"154 204 OFFCURVE",
"142 180 OFFCURVE",
"104 180 CURVE SMOOTH",
"30 180 LINE"
);
}
);
width = 1006;
},
{
anchors = (
{
name = bottom;
position = "{479, 0}";
},
{
name = ogonek;
position = "{862, 10}";
},
{
name = top;
position = "{479, 1260}";
},
{
name = topleft;
position = "{20, 1260}";
}
);
background = {
paths = (
{
closed = 1;
nodes = (
"14 0 LINE",
"948 0 LINE",
"948 592 LINE",
"646 592 LINE",
"646 260 OFFCURVE",
"612 216 OFFCURVE",
"548 216 CURVE SMOOTH",
"462 216 LINE",
"462 608 LINE",
"468 608 LINE",
"490 608 OFFCURVE",
"496 594 OFFCURVE",
"496 422 CURVE",
"610 422 LINE",
"610 856 LINE",
"496 856 LINE",
"496 694 OFFCURVE",
"490 672 OFFCURVE",
"468 672 CURVE SMOOTH",
"462 672 LINE",
"462 1044 LINE",
"542 1044 LINE SMOOTH",
"612 1044 OFFCURVE",
"646 998 OFFCURVE",
"646 684 CURVE",
"948 684 LINE",
"948 1260 LINE",
"14 1260 LINE",
"14 1044 LINE",
"50 1044 LINE SMOOTH",
"90 1044 OFFCURVE",
"102 1022 OFFCURVE",
"102 972 CURVE SMOOTH",
"102 282 LINE SMOOTH",
"102 240 OFFCURVE",
"88 216 OFFCURVE",
"52 216 CURVE SMOOTH",
"14 216 LINE"
);
}
);
};
layerId = "B817C739-5D48-43E8-AAEE-CE891513D7BC";
paths = (
{
closed = 1;
nodes = (
"14 0 LINE",
"918 0 LINE",
"918 592 LINE",
"626 592 LINE",
"626 260 OFFCURVE",
"602 216 OFFCURVE",
"548 216 CURVE SMOOTH",
"462 216 LINE",
"462 568 LINE",
"468 568 LINE",
"490 568 OFFCURVE",
"496 534 OFFCURVE",
"496 402 CURVE",
"590 402 LINE",
"590 876 LINE",
"496 876 LINE",
"496 754 OFFCURVE",
"490 712 OFFCURVE",
"468 712 CURVE SMOOTH",
"462 712 LINE",
"462 1044 LINE",
"542 1044 LINE SMOOTH",
"602 1044 OFFCURVE",
"626 998 OFFCURVE",
"626 684 CURVE",
"918 684 LINE",
"918 1260 LINE",
"14 1260 LINE",
"14 1044 LINE",
"50 1044 LINE SMOOTH",
"90 1044 OFFCURVE",
"102 1022 OFFCURVE",
"102 972 CURVE SMOOTH",
"102 282 LINE SMOOTH",
"102 240 OFFCURVE",
"88 216 OFFCURVE",
"52 216 CURVE SMOOTH",
"14 216 LINE"
);
}
);
width = 958;
},
{
anchors = (
{
name = bottom;
position = "{703, 0}";
},
{
name = ogonek;
position = "{905, 10}";
},
{
name = top;
position = "{703, 1260}";
},
{
name = topleft;
position = "{20, 1260}";
}
);
background = {
paths = (
{
closed = 1;
nodes = (
"62 0 LINE",
"1246 0 LINE",
"1246 422 LINE",
"1182 422 LINE",
"1182 156 OFFCURVE",
"1172 72 OFFCURVE",
"1058 72 CURVE SMOOTH",
"356 72 LINE",
"356 606 LINE",
"772 606 LINE SMOOTH",
"846 606 OFFCURVE",
"854 568 OFFCURVE",
"858 380 CURVE",
"922 380 LINE",
"922 892 LINE",
"858 892 LINE",
"854 708 OFFCURVE",
"846 670 OFFCURVE",
"772 670 CURVE SMOOTH",
"356 670 LINE",
"356 1188 LINE",
"1058 1188 LINE SMOOTH",
"1172 1188 OFFCURVE",
"1182 1098 OFFCURVE",
"1182 836 CURVE",
"1246 836 LINE",
"1246 1260 LINE",
"60 1260 LINE",
"60 1188 LINE",
"208 1188 LINE SMOOTH",
"246 1188 OFFCURVE",
"260 1166 OFFCURVE",
"260 1124 CURVE SMOOTH",
"260 134 LINE SMOOTH",
"260 94 OFFCURVE",
"244 72 OFFCURVE",
"210 72 CURVE SMOOTH",
"62 72 LINE"
);
}
);
};
layerId = UUID0;
paths = (
{
closed = 1;
nodes = (
"42 0 LINE",
"1226 0 LINE",
"1226 422 LINE",
"1162 422 LINE",
"1162 156 OFFCURVE",
"1152 72 OFFCURVE",
"1038 72 CURVE SMOOTH",
"356 72 LINE",
"356 606 LINE",
"752 606 LINE SMOOTH",
"826 606 OFFCURVE",
"834 568 OFFCURVE",
"838 340 CURVE",
"902 340 LINE",
"902 932 LINE",
"838 932 LINE",
"834 708 OFFCURVE",
"826 670 OFFCURVE",
"752 670 CURVE SMOOTH",
"356 670 LINE",
"356 1188 LINE",
"1038 1188 LINE SMOOTH",
"1152 1188 OFFCURVE",
"1162 1098 OFFCURVE",
"1162 836 CURVE",
"1226 836 LINE",
"1226 1260 LINE",
"40 1260 LINE",
"40 1188 LINE",
"208 1188 LINE SMOOTH",
"246 1188 OFFCURVE",
"260 1166 OFFCURVE",
"260 1124 CURVE SMOOTH",
"260 134 LINE SMOOTH",
"260 94 OFFCURVE",
"244 72 OFFCURVE",
"210 72 CURVE SMOOTH",
"42 72 LINE"
);
}
);
width = 1406;
},
{
anchors = (
{
name = bottom;
position = "{739, 0}";
},
{
name = ogonek;
position = "{838, 10}";
},
{
name = top;
position = "{739, 1260}";
},
{
name = topleft;
position = "{20, 1260}";
}
);
background = {
paths = (
{
closed = 1;
nodes = (
"44 0 LINE",
"1418 0 LINE",
"1418 538 LINE",
"1182 538 LINE",
"1182 264 OFFCURVE",
"1140 180 OFFCURVE",
"986 180 CURVE SMOOTH",
"524 180 LINE",
"524 556 LINE",
"640 556 LINE SMOOTH",
"754 556 OFFCURVE",
"778 520 OFFCURVE",
"778 392 CURVE",
"970 392 LINE",
"970 896 LINE",
"778 896 LINE",
"778 752 OFFCURVE",
"756 720 OFFCURVE",
"640 720 CURVE SMOOTH",
"524 720 LINE",
"524 1080 LINE",
"972 1080 LINE SMOOTH",
"1128 1080 OFFCURVE",
"1182 994 OFFCURVE",
"1182 708 CURVE",
"1418 708 LINE",
"1418 1260 LINE",
"44 1260 LINE",
"44 1080 LINE",
"196 1080 LINE SMOOTH",
"236 1080 OFFCURVE",
"248 1058 OFFCURVE",
"248 1008 CURVE SMOOTH",
"248 246 LINE SMOOTH",
"248 204 OFFCURVE",
"236 180 OFFCURVE",
"198 180 CURVE SMOOTH",
"44 180 LINE"
);
}
);
};
layerId = "4355E1B8-19E6-44BD-A1D7-6E3C2DECA4C8";
paths = (
{
closed = 1;
nodes = (
"44 0 LINE",
"1378 0 LINE",
"1378 538 LINE",
"1142 538 LINE",
"1142 264 OFFCURVE",
"1100 180 OFFCURVE",
"946 180 CURVE SMOOTH",
"524 180 LINE",
"524 556 LINE",
"630 556 LINE SMOOTH",
"724 556 OFFCURVE",
"748 520 OFFCURVE",
"748 372 CURVE",
"930 372 LINE",
"930 916 LINE",
"748 916 LINE",
"748 752 OFFCURVE",
"726 720 OFFCURVE",
"630 720 CURVE SMOOTH",
"524 720 LINE",
"524 1080 LINE",
"932 1080 LINE SMOOTH",
"1088 1080 OFFCURVE",
"1142 994 OFFCURVE",
"1142 708 CURVE",
"1378 708 LINE",
"1378 1260 LINE",
"44 1260 LINE",
"44 1080 LINE",
"196 1080 LINE SMOOTH",
"236 1080 OFFCURVE",
"248 1058 OFFCURVE",
"248 1008 CURVE SMOOTH",
"248 246 LINE SMOOTH",
"248 204 OFFCURVE",
"236 180 OFFCURVE",
"198 180 CURVE SMOOTH",
"44 180 LINE"
);
}
);
width = 1478;
},
{
anchors = (
{
name = bottom;
position = "{745, 0}";
},
{
name = ogonek;
position = "{1341, 10}";
},
{
name = top;
position = "{745, 1260}";
},
{
name = topleft;
position = "{20, 1260}";
}
);
background = {
paths = (
{
closed = 1;
nodes = (
"34 0 LINE",
"1480 0 LINE",
"1480 568 LINE",
"1040 568 LINE",
"1040 334 OFFCURVE",
"996 304 OFFCURVE",
"904 304 CURVE SMOOTH",
"712 304 LINE",
"712 540 LINE",
"724 540 LINE SMOOTH",
"758 540 OFFCURVE",
"786 480 OFFCURVE",
"786 426 CURVE",
"998 426 LINE",
"998 830 LINE",
"786 830 LINE",
"786 742 OFFCURVE",
"760 724 OFFCURVE",
"726 724 CURVE SMOOTH",
"712 724 LINE",
"712 956 LINE",
"896 956 LINE SMOOTH",
"994 956 OFFCURVE",
"1040 932 OFFCURVE",
"1040 692 CURVE",
"1480 692 LINE",
"1480 1260 LINE",
"34 1260 LINE",
"34 956 LINE",
"160 956 LINE SMOOTH",
"200 956 OFFCURVE",
"212 934 OFFCURVE",
"212 884 CURVE SMOOTH",
"212 370 LINE SMOOTH",
"212 328 OFFCURVE",
"200 304 OFFCURVE",
"162 304 CURVE SMOOTH",
"34 304 LINE"
);
}
);
};
layerId = "14C77FDB-037D-4842-9381-6D9ED15DD48C";
paths = (
{
closed = 1;
nodes = (
"34 0 LINE",
"1430 0 LINE",
"1430 568 LINE",
"1020 568 LINE",
"1020 334 OFFCURVE",
"976 304 OFFCURVE",
"884 304 CURVE SMOOTH",
"712 304 LINE",
"712 540 LINE",
"724 540 LINE SMOOTH",
"748 540 OFFCURVE",
"776 480 OFFCURVE",
"776 406 CURVE",
"968 406 LINE",
"968 850 LINE",
"776 850 LINE",
"776 742 OFFCURVE",
"750 724 OFFCURVE",
"726 724 CURVE SMOOTH",
"712 724 LINE",
"712 956 LINE",
"876 956 LINE SMOOTH",
"994 956 OFFCURVE",
"1020 932 OFFCURVE",
"1020 692 CURVE",
"1430 692 LINE",
"1430 1260 LINE",
"34 1260 LINE",
"34 956 LINE",
"160 956 LINE SMOOTH",
"200 956 OFFCURVE",
"212 934 OFFCURVE",
"212 884 CURVE SMOOTH",
"212 370 LINE SMOOTH",
"212 328 OFFCURVE",
"200 304 OFFCURVE",
"162 304 CURVE SMOOTH",
"34 304 LINE"
);
}
);
width = 1490;
}
);
leftKerningGroup = H;
leftMetricsKey = H;
rightKerningGroup = E;
unicode = 0045;
},
{
color = 6;
glyphname = F;
layers = (
{
anchors = (
{
name = bottom;
position = "{408, 0}";
},
{
name = top;
position = "{408, 1260}";
}
);
layerId = "E9E6D55E-9446-45F2-B66C-3272698B0216";
paths = (
{
closed = 1;
nodes = (
"26 0 LINE",
"460 0 LINE",
"460 60 LINE",
"346 60 LINE SMOOTH",
"284 60 OFFCURVE",
"256 90 OFFCURVE",
"256 142 CURVE SMOOTH",
"256 592 LINE",
"382 592 LINE SMOOTH",
"456 592 OFFCURVE",
"464 554 OFFCURVE",
"468 382 CURVE",
"532 382 LINE",
"532 844 LINE",
"468 844 LINE",
"464 694 OFFCURVE",
"456 656 OFFCURVE",
"382 656 CURVE SMOOTH",
"256 656 LINE",
"256 1200 LINE",
"548 1200 LINE SMOOTH",
"634 1200 OFFCURVE",
"672 1154 OFFCURVE",
"672 876 CURVE",
"736 876 LINE",
"736 1260 LINE",
"32 1260 LINE",
"32 1200 LINE",
"78 1200 LINE SMOOTH",
"144 1200 OFFCURVE",
"170 1170 OFFCURVE",
"170 1116 CURVE SMOOTH",
"170 142 LINE SMOOTH",
"170 90 OFFCURVE",
"142 60 OFFCURVE",
"80 60 CURVE SMOOTH",
"26 60 LINE"
);
}
);
width = 816;
},
{
anchors = (
{
name = bottom;
position = "{483, 0}";
},
{
name = top;
position = "{483, 1260}";
}
);
background = {
paths = (
{
closed = 1;
nodes = (
"30 0 LINE",
"654 0 LINE",
"654 180 LINE",
"520 180 LINE SMOOTH",
"458 180 OFFCURVE",
"430 210 OFFCURVE",
"430 262 CURVE SMOOTH",
"430 550 LINE",
"440 550 LINE SMOOTH",
"512 550 OFFCURVE",
"524 512 OFFCURVE",
"524 372 CURVE",
"666 372 LINE",
"666 896 LINE",
"524 896 LINE",
"524 746 OFFCURVE",
"514 714 OFFCURVE",
"440 714 CURVE SMOOTH",
"430 714 LINE",
"430 1080 LINE",
"616 1080 LINE SMOOTH",
"706 1080 OFFCURVE",
"748 1034 OFFCURVE",
"748 722 CURVE",
"966 722 LINE",
"966 1260 LINE",
"30 1260 LINE",
"30 1080 LINE",
"98 1080 LINE SMOOTH",
"140 1080 OFFCURVE",
"154 1064 OFFCURVE",
"154 1010 CURVE SMOOTH",
"154 242 LINE SMOOTH",
"154 196 OFFCURVE",
"134 180 OFFCURVE",
"104 180 CURVE SMOOTH",
"30 180 LINE"
);
}
);
};
layerId = "B25F85BC-C782-4067-8484-07202F80B8CD";
paths = (
{
closed = 1;
nodes = (
"30 0 LINE",
"614 0 LINE",
"614 180 LINE",
"520 180 LINE SMOOTH",
"458 180 OFFCURVE",
"430 210 OFFCURVE",
"430 262 CURVE SMOOTH",
"430 550 LINE",
"440 550 LINE SMOOTH",
"482 550 OFFCURVE",
"494 512 OFFCURVE",
"494 372 CURVE",
"616 372 LINE",
"616 896 LINE",
"494 896 LINE",
"494 746 OFFCURVE",
"484 714 OFFCURVE",
"440 714 CURVE SMOOTH",
"430 714 LINE",
"430 1080 LINE",
"556 1080 LINE SMOOTH",
"706 1080 OFFCURVE",
"688 1034 OFFCURVE",
"688 722 CURVE",
"906 722 LINE",
"906 1260 LINE",
"30 1260 LINE",
"30 1080 LINE",
"98 1080 LINE SMOOTH",
"140 1080 OFFCURVE",
"154 1064 OFFCURVE",
"154 1010 CURVE SMOOTH",
"154 242 LINE SMOOTH",
"154 196 OFFCURVE",
"134 180 OFFCURVE",
"104 180 CURVE SMOOTH",
"30 180 LINE"
);
}
);
width = 966;
},
{
anchors = (
{
name = bottom;
position = "{479, 0}";
},
{
name = top;
position = "{479, 1260}";
}
);
background = {
paths = (
{
closed = 1;
nodes = (
"14 0 LINE",
"654 0 LINE",
"654 216 LINE",
"520 216 LINE SMOOTH",
"490 216 OFFCURVE",
"462 246 OFFCURVE",
"462 298 CURVE SMOOTH",
"462 606 LINE",
"472 606 LINE SMOOTH",
"490 606 OFFCURVE",
"496 584 OFFCURVE",
"496 422 CURVE",
"610 422 LINE",
"610 856 LINE",
"496 856 LINE",
"496 682 OFFCURVE",
"486 670 OFFCURVE",
"472 670 CURVE SMOOTH",
"462 670 LINE",
"462 1044 LINE",
"538 1044 LINE SMOOTH",
"606 1044 OFFCURVE",
"646 1018 OFFCURVE",
"646 682 CURVE",
"948 682 LINE",
"948 1260 LINE",
"14 1260 LINE",
"14 1044 LINE",
"46 1044 LINE SMOOTH",
"86 1044 OFFCURVE",
"102 1028 OFFCURVE",
"102 974 CURVE SMOOTH",
"102 278 LINE SMOOTH",
"102 234 OFFCURVE",
"82 216 OFFCURVE",
"52 216 CURVE SMOOTH",
"14 216 LINE"
);
}
);
};
layerId = "B817C739-5D48-43E8-AAEE-CE891513D7BC";
paths = (
{
closed = 1;
nodes = (
"14 0 LINE",
"654 0 LINE",
"654 216 LINE",
"520 216 LINE SMOOTH",
"490 216 OFFCURVE",
"462 246 OFFCURVE",
"462 298 CURVE SMOOTH",
"462 566 LINE",
"472 566 LINE SMOOTH",
"490 566 OFFCURVE",
"496 544 OFFCURVE",
"496 402 CURVE",
"590 402 LINE",
"590 876 LINE",
"496 876 LINE",
"496 722 OFFCURVE",
"486 710 OFFCURVE",
"472 710 CURVE SMOOTH",
"462 710 LINE",
"462 1044 LINE",
"558 1044 LINE SMOOTH",
"596 1044 OFFCURVE",
"626 1018 OFFCURVE",
"626 682 CURVE",
"918 682 LINE",
"918 1260 LINE",
"14 1260 LINE",
"14 1044 LINE",
"46 1044 LINE SMOOTH",
"86 1044 OFFCURVE",
"102 1028 OFFCURVE",
"102 974 CURVE SMOOTH",
"102 278 LINE SMOOTH",
"102 234 OFFCURVE",
"82 216 OFFCURVE",
"52 216 CURVE SMOOTH",
"14 216 LINE"
);
}
);
width = 958;
},
{
anchors = (
{
name = bottom;
position = "{684, 0}";
},
{
name = top;
position = "{684, 1260}";
}
);
background = {
paths = (
{
closed = 1;
nodes = (
"62 0 LINE",
"548 0 LINE",
"548 72 LINE",
"414 72 LINE SMOOTH",
"384 72 OFFCURVE",
"356 102 OFFCURVE",
"356 154 CURVE SMOOTH",
"356 594 LINE",
"764 594 LINE SMOOTH",
"818 594 OFFCURVE",
"838 552 OFFCURVE",
"838 396 CURVE",
"902 396 LINE",
"902 858 LINE",
"838 858 LINE",
"838 690 OFFCURVE",
"818 658 OFFCURVE",
"764 658 CURVE SMOOTH",
"356 658 LINE",
"356 1188 LINE",
"1028 1188 LINE SMOOTH",
"1122 1188 OFFCURVE",
"1162 1158 OFFCURVE",
"1162 836 CURVE",
"1226 836 LINE",
"1226 1260 LINE",
"60 1260 LINE",
"60 1188 LINE",
"204 1188 LINE SMOOTH",
"244 1188 OFFCURVE",
"260 1172 OFFCURVE",
"260 1116 CURVE SMOOTH",
"260 134 LINE SMOOTH",
"260 90 OFFCURVE",
"240 72 OFFCURVE",
"210 72 CURVE SMOOTH",
"62 72 LINE"
);
}
);
};
layerId = UUID0;
paths = (
{
closed = 1;
nodes = (
"42 0 LINE",
"628 0 LINE",
"628 72 LINE",
"414 72 LINE SMOOTH",
"384 72 OFFCURVE",
"356 102 OFFCURVE",
"356 154 CURVE SMOOTH",
"356 594 LINE",
"764 594 LINE SMOOTH",
"818 594 OFFCURVE",
"838 552 OFFCURVE",
"838 356 CURVE",
"902 356 LINE",
"902 898 LINE",
"838 898 LINE",
"838 690 OFFCURVE",
"818 658 OFFCURVE",
"764 658 CURVE SMOOTH",
"356 658 LINE",
"356 1188 LINE",
"1028 1188 LINE SMOOTH",
"1122 1188 OFFCURVE",
"1162 1158 OFFCURVE",
"1162 836 CURVE",
"1226 836 LINE",
"1226 1260 LINE",
"40 1260 LINE",
"40 1188 LINE",
"204 1188 LINE SMOOTH",
"244 1188 OFFCURVE",
"260 1172 OFFCURVE",
"260 1116 CURVE SMOOTH",
"260 134 LINE SMOOTH",
"260 90 OFFCURVE",
"240 72 OFFCURVE",
"210 72 CURVE SMOOTH",
"42 72 LINE"
);
}
);
width = 1368;
},
{
anchors = (
{
name = bottom;
position = "{714, 0}";
},
{
name = top;
position = "{714, 1260}";
}
);
background = {
paths = (
{
closed = 1;
nodes = (
"44 0 LINE",
"816 0 LINE",
"816 180 LINE",
"582 180 LINE SMOOTH",
"542 180 OFFCURVE",
"524 200 OFFCURVE",
"524 242 CURVE SMOOTH",
"524 540 LINE",
"652 540 LINE SMOOTH",
"752 540 OFFCURVE",
"778 498 OFFCURVE",
"778 382 CURVE",
"970 382 LINE",
"970 866 LINE",
"778 866 LINE",
"778 736 OFFCURVE",
"752 704 OFFCURVE",
"652 704 CURVE SMOOTH",
"524 704 LINE",
"524 1080 LINE",
"956 1080 LINE SMOOTH",
"1096 1080 OFFCURVE",
"1162 1010 OFFCURVE",
"1162 742 CURVE",
"1398 742 LINE",
"1398 1260 LINE",
"44 1260 LINE",
"44 1080 LINE",
"192 1080 LINE SMOOTH",
"232 1080 OFFCURVE",
"248 1064 OFFCURVE",
"248 1008 CURVE SMOOTH",
"248 242 LINE SMOOTH",
"248 198 OFFCURVE",
"228 180 OFFCURVE",
"198 180 CURVE SMOOTH",
"44 180 LINE"
);
}
);
};
layerId = "4355E1B8-19E6-44BD-A1D7-6E3C2DECA4C8";
paths = (
{
closed = 1;
nodes = (
"44 0 LINE",
"816 0 LINE",
"816 180 LINE",
"582 180 LINE SMOOTH",
"542 180 OFFCURVE",
"524 200 OFFCURVE",
"524 242 CURVE SMOOTH",
"524 540 LINE",
"652 540 LINE SMOOTH",
"732 540 OFFCURVE",
"758 498 OFFCURVE",
"758 362 CURVE",
"930 362 LINE",
"930 886 LINE",
"758 886 LINE",
"758 736 OFFCURVE",
"732 704 OFFCURVE",
"652 704 CURVE SMOOTH",
"524 704 LINE",
"524 1080 LINE",
"916 1080 LINE SMOOTH",
"1056 1080 OFFCURVE",
"1122 1010 OFFCURVE",
"1122 742 CURVE",
"1348 742 LINE",
"1348 1260 LINE",
"44 1260 LINE",
"44 1080 LINE",
"192 1080 LINE SMOOTH",
"232 1080 OFFCURVE",
"248 1064 OFFCURVE",
"248 1008 CURVE SMOOTH",
"248 242 LINE SMOOTH",
"248 198 OFFCURVE",
"228 180 OFFCURVE",
"198 180 CURVE SMOOTH",
"44 180 LINE"
);
}
);
width = 1428;
},
{
anchors = (
{
name = bottom;
position = "{725, 0}";
},
{
name = top;
position = "{725, 1260}";
}
);
background = {
paths = (
{
closed = 1;
nodes = (
"34 0 LINE",
"944 0 LINE",
"944 304 LINE",
"770 304 LINE SMOOTH",
"730 304 OFFCURVE",
"712 324 OFFCURVE",
"712 366 CURVE SMOOTH",
"712 528 LINE",
"726 528 LINE SMOOTH",
"760 528 OFFCURVE",
"786 482 OFFCURVE",
"786 426 CURVE",
"998 426 LINE",
"998 830 LINE",
"786 830 LINE",
"786 756 OFFCURVE",
"758 712 OFFCURVE",
"726 712 CURVE SMOOTH",
"712 712 LINE",
"712 956 LINE",
"916 956 LINE SMOOTH",
"1008 956 OFFCURVE",
"1040 886 OFFCURVE",
"1040 694 CURVE",
"1480 694 LINE",
"1480 1260 LINE",
"34 1260 LINE",
"34 956 LINE",
"156 956 LINE SMOOTH",
"196 956 OFFCURVE",
"212 940 OFFCURVE",
"212 884 CURVE SMOOTH",
"212 366 LINE SMOOTH",
"212 322 OFFCURVE",
"192 304 OFFCURVE",
"162 304 CURVE SMOOTH",
"34 304 LINE"
);
}
);
};
layerId = "14C77FDB-037D-4842-9381-6D9ED15DD48C";
paths = (
{
closed = 1;
nodes = (
"34 0 LINE",
"944 0 LINE",
"944 304 LINE",
"770 304 LINE SMOOTH",
"730 304 OFFCURVE",
"712 324 OFFCURVE",
"712 366 CURVE SMOOTH",
"712 528 LINE",
"726 528 LINE SMOOTH",
"750 528 OFFCURVE",
"776 482 OFFCURVE",
"776 406 CURVE",
"968 406 LINE",
"968 850 LINE",
"776 850 LINE",
"776 756 OFFCURVE",
"748 712 OFFCURVE",
"726 712 CURVE SMOOTH",
"712 712 LINE",
"712 956 LINE",
"896 956 LINE SMOOTH",
"1008 956 OFFCURVE",
"1020 886 OFFCURVE",
"1020 674 CURVE",
"1410 674 LINE",
"1410 1260 LINE",
"34 1260 LINE",
"34 956 LINE",
"156 956 LINE SMOOTH",
"196 956 OFFCURVE",
"212 940 OFFCURVE",
"212 884 CURVE SMOOTH",
"212 366 LINE SMOOTH",
"212 322 OFFCURVE",
"192 304 OFFCURVE",
"162 304 CURVE SMOOTH",
"34 304 LINE"
);
}
);
width = 1450;
}
);
leftKerningGroup = H;
leftMetricsKey = H;
rightKerningGroup = F;
unicode = 0046;
},
{
color = 6;
glyphname = G;
layers = (
{
anchors = (
{
name = bottom;
position = "{446, 0}";
},
{
name = top;
position = "{446, 1260}";
}
);
background = {
paths = (
{
closed = 1;
nodes = (
"234 56 OFFCURVE",
"152 218 OFFCURVE",
"152 626 CURVE SMOOTH",
"152 1034 OFFCURVE",
"236 1194 OFFCURVE",
"450 1194 CURVE SMOOTH",
"626 1194 OFFCURVE",
"700 1076 OFFCURVE",
"700 800 CURVE",
"762 800 LINE",
"762 1260 LINE",
"720 1260 LINE",
"708 1142 LINE",
"700 1142 LINE",
"642 1232 OFFCURVE",
"570 1268 OFFCURVE",
"450 1268 CURVE SMOOTH",
"176 1268 OFFCURVE",
"60 1078 OFFCURVE",
"60 630 CURVE SMOOTH",
"60 186 OFFCURVE",
"176 -20 OFFCURVE",
"424 -20 CURVE SMOOTH",
"626 -20 OFFCURVE",
"758 132 OFFCURVE",
"758 364 CURVE",
"688 364 LINE",
"688 156 OFFCURVE",
"608 56 OFFCURVE",
"444 56 CURVE SMOOTH"
);
},
{
closed = 1;
nodes = (
"530 542 LINE",
"596 542 LINE SMOOTH",
"658 542 OFFCURVE",
"688 516 OFFCURVE",
"688 458 CURVE SMOOTH",
"688 116 LINE",
"696 116 LINE",
"708 0 LINE",
"770 0 LINE",
"770 458 LINE SMOOTH",
"770 516 OFFCURVE",
"800 542 OFFCURVE",
"862 542 CURVE SMOOTH",
"900 542 LINE",
"900 602 LINE",
"530 602 LINE"
);
}
);
};
layerId = "E9E6D55E-9446-45F2-B66C-3272698B0216";
paths = (
{
closed = 1;
nodes = (
"234 56 OFFCURVE",
"152 218 OFFCURVE",
"152 626 CURVE SMOOTH",
"152 1034 OFFCURVE",
"236 1194 OFFCURVE",
"436 1194 CURVE SMOOTH",
"598 1194 OFFCURVE",
"672 1076 OFFCURVE",
"672 800 CURVE",
"734 800 LINE",
"734 1260 LINE",
"692 1260 LINE",
"680 1142 LINE",
"672 1142 LINE",
"614 1232 OFFCURVE",
"542 1268 OFFCURVE",
"436 1268 CURVE SMOOTH",
"176 1268 OFFCURVE",
"60 1078 OFFCURVE",
"60 630 CURVE SMOOTH",
"60 186 OFFCURVE",
"176 -20 OFFCURVE",
"410 -20 CURVE SMOOTH",
"598 -20 OFFCURVE",
"730 132 OFFCURVE",
"730 364 CURVE",
"660 364 LINE",
"660 156 OFFCURVE",
"580 56 OFFCURVE",
"430 56 CURVE SMOOTH"
);
},
{
closed = 1;
nodes = (
"516 542 LINE",
"568 542 LINE SMOOTH",
"644 542 OFFCURVE",
"660 516 OFFCURVE",
"660 458 CURVE SMOOTH",
"660 116 LINE",
"668 116 LINE",
"680 0 LINE",
"742 0 LINE",
"742 458 LINE SMOOTH",
"742 516 OFFCURVE",
"772 542 OFFCURVE",
"834 542 CURVE SMOOTH",
"872 542 LINE",
"872 602 LINE",
"516 602 LINE"
);
}
);
width = 892;
},
{
anchors = (
{
name = bottom;
position = "{515, 0}";
},
{
name = top;
position = "{515, 1260}";
}
);
background = {
paths = (
{
closed = 1;
nodes = (
"416 186 OFFCURVE",
"374 314 OFFCURVE",
"374 624 CURVE SMOOTH",
"374 948 OFFCURVE",
"422 1072 OFFCURVE",
"550 1072 CURVE SMOOTH",
"656 1072 OFFCURVE",
"692 992 OFFCURVE",
"692 752 CURVE",
"904 752 LINE",
"904 1260 LINE",
"730 1260 LINE",
"706 1148 LINE",
"698 1148 LINE",
"654 1238 OFFCURVE",
"578 1280 OFFCURVE",
"454 1280 CURVE SMOOTH",
"188 1280 OFFCURVE",
"70 1082 OFFCURVE",
"70 632 CURVE SMOOTH",
"70 194 OFFCURVE",
"184 -20 OFFCURVE",
"416 -20 CURVE SMOOTH",
"608 -20 OFFCURVE",
"734 142 OFFCURVE",
"734 388 CURVE",
"656 388 LINE",
"656 278 OFFCURVE",
"594 186 OFFCURVE",
"518 186 CURVE SMOOTH"
);
},
{
closed = 1;
nodes = (
"512 476 LINE",
"602 476 LINE SMOOTH",
"640 476 OFFCURVE",
"656 456 OFFCURVE",
"656 412 CURVE SMOOTH",
"656 102 LINE",
"664 102 LINE",
"704 0 LINE",
"922 0 LINE",
"922 412 LINE SMOOTH",
"922 454 OFFCURVE",
"938 476 OFFCURVE",
"968 476 CURVE SMOOTH",
"1028 476 LINE",
"1028 656 LINE",
"512 656 LINE"
);
}
);
};
layerId = "B25F85BC-C782-4067-8484-07202F80B8CD";
paths = (
{
closed = 1;
nodes = (
"416 186 OFFCURVE",
"374 314 OFFCURVE",
"374 624 CURVE SMOOTH",
"374 948 OFFCURVE",
"422 1072 OFFCURVE",
"550 1072 CURVE SMOOTH",
"656 1072 OFFCURVE",
"692 992 OFFCURVE",
"692 752 CURVE",
"904 752 LINE",
"904 1260 LINE",
"730 1260 LINE",
"706 1148 LINE",
"698 1148 LINE",
"654 1238 OFFCURVE",
"578 1280 OFFCURVE",
"454 1280 CURVE SMOOTH",
"188 1280 OFFCURVE",
"70 1082 OFFCURVE",
"70 632 CURVE SMOOTH",
"70 194 OFFCURVE",
"184 -20 OFFCURVE",
"416 -20 CURVE SMOOTH",
"608 -20 OFFCURVE",
"734 142 OFFCURVE",
"734 388 CURVE",
"656 388 LINE",
"656 278 OFFCURVE",
"594 186 OFFCURVE",
"518 186 CURVE SMOOTH"
);
},
{
closed = 1;
nodes = (
"512 476 LINE",
"602 476 LINE SMOOTH",
"640 476 OFFCURVE",
"656 456 OFFCURVE",
"656 412 CURVE SMOOTH",
"656 102 LINE",
"664 102 LINE",
"704 0 LINE",
"922 0 LINE",
"922 412 LINE SMOOTH",
"922 454 OFFCURVE",
"938 476 OFFCURVE",
"968 476 CURVE SMOOTH",
"1028 476 LINE",
"1028 656 LINE",
"512 656 LINE"
);
}
);
width = 1030;
},
{
anchors = (
{
name = bottom;
position = "{469, 0}";
},
{
name = top;
position = "{469, 1260}";
}
);
background = {
paths = (
{
closed = 1;
nodes = (
"438 256 OFFCURVE",
"428 310 OFFCURVE",
"428 618 CURVE SMOOTH",
"428 942 OFFCURVE",
"438 1004 OFFCURVE",
"492 1004 CURVE SMOOTH",
"542 1004 OFFCURVE",
"554 944 OFFCURVE",
"554 696 CURVE",
"864 696 LINE",
"864 1260 LINE",
"614 1260 LINE",
"602 1176 LINE",
"594 1176 LINE",
"566 1246 OFFCURVE",
"496 1280 OFFCURVE",
"388 1280 CURVE SMOOTH",
"138 1280 OFFCURVE",
"32 1090 OFFCURVE",
"32 640 CURVE SMOOTH",
"32 196 OFFCURVE",
"136 -20 OFFCURVE",
"350 -20 CURVE SMOOTH",
"558 -20 OFFCURVE",
"676 190 OFFCURVE",
"676 564 CURVE",
"558 344 LINE",
"558 284 OFFCURVE",
"538 256 OFFCURVE",
"494 256 CURVE SMOOTH"
);
},
{
closed = 1;
nodes = (
"470 432 LINE",
"506 432 LINE SMOOTH",
"542 432 OFFCURVE",
"558 412 OFFCURVE",
"558 368 CURVE SMOOTH",
"558 84 LINE",
"566 84 LINE",
"606 0 LINE",
"890 0 LINE",
"890 368 LINE SMOOTH",
"890 430 OFFCURVE",
"892 432 OFFCURVE",
"932 432 CURVE SMOOTH",
"958 432 LINE",
"958 648 LINE",
"470 648 LINE"
);
}
);
};
layerId = "B817C739-5D48-43E8-AAEE-CE891513D7BC";
paths = (
{
closed = 1;
nodes = (
"438 256 OFFCURVE",
"428 310 OFFCURVE",
"428 618 CURVE SMOOTH",
"428 942 OFFCURVE",
"438 1004 OFFCURVE",
"492 1004 CURVE SMOOTH",
"542 1004 OFFCURVE",
"554 944 OFFCURVE",
"554 696 CURVE",
"844 696 LINE",
"844 1260 LINE",
"614 1260 LINE",
"602 1176 LINE",
"594 1176 LINE",
"566 1246 OFFCURVE",
"496 1280 OFFCURVE",
"388 1280 CURVE SMOOTH",
"138 1280 OFFCURVE",
"32 1090 OFFCURVE",
"32 640 CURVE SMOOTH",
"32 196 OFFCURVE",
"136 -20 OFFCURVE",
"350 -20 CURVE SMOOTH",
"558 -20 OFFCURVE",
"676 190 OFFCURVE",
"676 564 CURVE",
"558 344 LINE",
"558 284 OFFCURVE",
"538 256 OFFCURVE",
"494 256 CURVE SMOOTH"
);
},
{
closed = 1;
nodes = (
"470 432 LINE",
"506 432 LINE SMOOTH",
"542 432 OFFCURVE",
"558 412 OFFCURVE",
"558 368 CURVE SMOOTH",
"558 84 LINE",
"566 84 LINE",
"606 0 LINE",
"870 0 LINE",
"870 368 LINE SMOOTH",
"870 430 OFFCURVE",
"872 432 OFFCURVE",
"912 432 CURVE SMOOTH",
"938 432 LINE",
"938 648 LINE",
"470 648 LINE"
);
}
);
width = 938;
},
{
anchors = (
{
name = bottom;
position = "{766, 0}";
},
{
name = top;
position = "{766, 1260}";
}
);
layerId = UUID0;
paths = (
{
closed = 1;
nodes = (
"432 62 OFFCURVE",
"248 260 OFFCURVE",
"248 630 CURVE SMOOTH",
"248 998 OFFCURVE",
"434 1198 OFFCURVE",
"780 1198 CURVE SMOOTH",
"1048 1198 OFFCURVE",
"1196 1076 OFFCURVE",
"1248 812 CURVE",
"1320 812 LINE",
"1320 1260 LINE",
"1256 1260 LINE",
"1232 1064 LINE",
"1224 1064 LINE",
"1140 1206 OFFCURVE",
"982 1280 OFFCURVE",
"768 1280 CURVE SMOOTH",
"378 1280 OFFCURVE",
"150 1038 OFFCURVE",
"150 628 CURVE SMOOTH",
"150 220 OFFCURVE",
"376 -20 OFFCURVE",
"764 -20 CURVE SMOOTH",
"1108 -20 OFFCURVE",
"1322 166 OFFCURVE",
"1322 464 CURVE",
"1236 464 LINE",
"1236 208 OFFCURVE",
"1070 62 OFFCURVE",
"776 62 CURVE SMOOTH"
);
},
{
closed = 1;
nodes = (
"996 588 LINE",
"1182 588 LINE SMOOTH",
"1220 588 OFFCURVE",
"1236 568 OFFCURVE",
"1236 524 CURVE SMOOTH",
"1236 180 LINE",
"1244 180 LINE",
"1268 0 LINE",
"1332 0 LINE",
"1332 524 LINE SMOOTH",
"1332 566 OFFCURVE",
"1348 588 OFFCURVE",
"1378 588 CURVE SMOOTH",
"1492 588 LINE",
"1492 660 LINE",
"996 660 LINE"
);
}
);
width = 1532;
},
{
anchors = (
{
name = bottom;
position = "{778, 0}";
},
{
name = top;
position = "{778, 1260}";
}
);
background = {
paths = (
{
closed = 1;
nodes = (
"538 186 OFFCURVE",
"406 336 OFFCURVE",
"406 624 CURVE SMOOTH",
"406 920 OFFCURVE",
"540 1074 OFFCURVE",
"798 1074 CURVE SMOOTH",
"1014 1074 OFFCURVE",
"1132 966 OFFCURVE",
"1152 752 CURVE",
"1358 752 LINE",
"1358 1260 LINE",
"1152 1260 LINE",
"1130 1146 LINE",
"1122 1146 LINE",
"1048 1236 OFFCURVE",
"934 1280 OFFCURVE",
"772 1280 CURVE SMOOTH",
"374 1280 OFFCURVE",
"110 1020 OFFCURVE",
"110 626 CURVE SMOOTH",
"110 240 OFFCURVE",
"360 -20 OFFCURVE",
"728 -20 CURVE SMOOTH",
"1022 -20 OFFCURVE",
"1268 190 OFFCURVE",
"1268 442 CURVE",
"1124 402 LINE",
"1124 272 OFFCURVE",
"992 186 OFFCURVE",
"794 186 CURVE SMOOTH"
);
},
{
closed = 1;
nodes = (
"880 494 LINE",
"1070 494 LINE SMOOTH",
"1108 494 OFFCURVE",
"1124 474 OFFCURVE",
"1124 430 CURVE SMOOTH",
"1124 124 LINE",
"1132 124 LINE",
"1200 0 LINE",
"1400 0 LINE",
"1400 430 LINE SMOOTH",
"1400 462 OFFCURVE",
"1422 494 OFFCURVE",
"1446 494 CURVE SMOOTH",
"1556 494 LINE",
"1556 674 LINE",
"880 674 LINE"
);
}
);
};
layerId = "4355E1B8-19E6-44BD-A1D7-6E3C2DECA4C8";
paths = (
{
closed = 1;
nodes = (
"538 186 OFFCURVE",
"406 330 OFFCURVE",
"406 626 CURVE SMOOTH",
"406 924 OFFCURVE",
"540 1074 OFFCURVE",
"806 1074 CURVE SMOOTH",
"1030 1074 OFFCURVE",
"1152 966 OFFCURVE",
"1172 752 CURVE",
"1378 752 LINE",
"1378 1260 LINE",
"1172 1260 LINE",
"1150 1146 LINE",
"1142 1146 LINE",
"1068 1236 OFFCURVE",
"950 1280 OFFCURVE",
"780 1280 CURVE SMOOTH",
"374 1280 OFFCURVE",
"110 1024 OFFCURVE",
"110 626 CURVE SMOOTH",
"110 244 OFFCURVE",
"360 -20 OFFCURVE",
"722 -20 CURVE SMOOTH",
"1038 -20 OFFCURVE",
"1288 184 OFFCURVE",
"1288 442 CURVE",
"1144 402 LINE",
"1144 272 OFFCURVE",
"1008 186 OFFCURVE",
"804 186 CURVE SMOOTH"
);
},
{
closed = 1;
nodes = (
"920 494 LINE",
"1090 494 LINE SMOOTH",
"1118 494 OFFCURVE",
"1144 462 OFFCURVE",
"1144 430 CURVE SMOOTH",
"1144 124 LINE",
"1152 124 LINE",
"1220 0 LINE",
"1420 0 LINE",
"1420 430 LINE SMOOTH",
"1420 462 OFFCURVE",
"1442 494 OFFCURVE",
"1466 494 CURVE SMOOTH",
"1556 494 LINE",
"1556 674 LINE",
"920 674 LINE"
);
}
);
width = 1556;
},
{
anchors = (
{
name = bottom;
position = "{791, 0}";
},
{
name = top;
position = "{791, 1260}";
}
);
background = {
paths = (
{
closed = 1;
nodes = (
"680 260 OFFCURVE",
"600 328 OFFCURVE",
"600 588 CURVE SMOOTH",
"600 814 OFFCURVE",
"660 910 OFFCURVE",
"808 910 CURVE SMOOTH",
"932 910 OFFCURVE",
"1000 844 OFFCURVE",
"1000 726 CURVE",
"1420 726 LINE",
"1420 1260 LINE",
"1054 1260 LINE",
"1030 1178 LINE",
"1022 1178 LINE",
"968 1244 OFFCURVE",
"856 1280 OFFCURVE",
"700 1280 CURVE SMOOTH",
"290 1280 OFFCURVE",
"34 1032 OFFCURVE",
"34 634 CURVE SMOOTH",
"34 244 OFFCURVE",
"278 -20 OFFCURVE",
"632 -20 CURVE SMOOTH",
"964 -20 OFFCURVE",
"1232 210 OFFCURVE",
"1232 492 CURVE",
"1006 324 LINE",
"1006 286 OFFCURVE",
"918 260 OFFCURVE",
"828 260 CURVE SMOOTH"
);
},
{
closed = 1;
nodes = (
"796 372 LINE",
"952 372 LINE SMOOTH",
"990 372 OFFCURVE",
"1006 362 OFFCURVE",
"1006 336 CURVE SMOOTH",
"1006 90 LINE",
"1014 90 LINE",
"1114 0 LINE",
"1474 0 LINE",
"1474 308 LINE SMOOTH",
"1474 370 OFFCURVE",
"1476 372 OFFCURVE",
"1520 372 CURVE SMOOTH",
"1602 372 LINE",
"1602 656 LINE",
"796 656 LINE"
);
}
);
};
layerId = "14C77FDB-037D-4842-9381-6D9ED15DD48C";
paths = (
{
closed = 1;
nodes = (
"680 260 OFFCURVE",
"600 328 OFFCURVE",
"600 588 CURVE SMOOTH",
"600 814 OFFCURVE",
"660 910 OFFCURVE",
"808 910 CURVE SMOOTH",
"932 910 OFFCURVE",
"1000 844 OFFCURVE",
"1000 726 CURVE",
"1420 726 LINE",
"1420 1260 LINE",
"1054 1260 LINE",
"1030 1178 LINE",
"1022 1178 LINE",
"968 1244 OFFCURVE",
"856 1280 OFFCURVE",
"700 1280 CURVE SMOOTH",
"290 1280 OFFCURVE",
"34 1032 OFFCURVE",
"34 634 CURVE SMOOTH",
"34 244 OFFCURVE",
"278 -20 OFFCURVE",
"632 -20 CURVE SMOOTH",
"964 -20 OFFCURVE",
"1232 136 OFFCURVE",
"1232 492 CURVE",
"1006 334 LINE",
"1006 296 OFFCURVE",
"918 260 OFFCURVE",
"828 260 CURVE SMOOTH"
);
},
{
closed = 1;
nodes = (
"796 372 LINE",
"972 372 LINE SMOOTH",
"998 372 OFFCURVE",
"1006 364 OFFCURVE",
"1006 342 CURVE SMOOTH",
"1006 70 LINE",
"1014 70 LINE",
"1114 0 LINE",
"1474 0 LINE",
"1474 308 LINE SMOOTH",
"1474 370 OFFCURVE",
"1476 372 OFFCURVE",
"1520 372 CURVE SMOOTH",
"1602 372 LINE",
"1602 656 LINE",
"796 656 LINE"
);
}
);
width = 1582;
}
);
leftKerningGroup = O;
leftMetricsKey = O;
rightKerningGroup = G;
unicode = 0047;
},
{
color = 6;
glyphname = H;
layers = (
{
anchors = (
{
name = bottom;
position = "{487, 0}";
},
{
name = center;
position = "{487, 630}";
},
{
name = top;
position = "{487, 1260}";
},
{
name = topleft;
position = "{20, 1260}";
}
);
layerId = "E9E6D55E-9446-45F2-B66C-3272698B0216";
paths = (
{
closed = 1;
nodes = (
"26 0 LINE",
"398 0 LINE",
"398 60 LINE",
"324 60 LINE SMOOTH",
"276 60 OFFCURVE",
"254 90 OFFCURVE",
"254 142 CURVE",
"254 1116 LINE",
"254 1170 OFFCURVE",
"274 1200 OFFCURVE",
"326 1200 CURVE SMOOTH",
"398 1200 LINE",
"398 1260 LINE",
"26 1260 LINE",
"26 1200 LINE",
"98 1200 LINE SMOOTH",
"150 1200 OFFCURVE",
"170 1170 OFFCURVE",
"170 1116 CURVE SMOOTH",
"170 142 LINE SMOOTH",
"170 90 OFFCURVE",
"148 60 OFFCURVE",
"100 60 CURVE SMOOTH",
"26 60 LINE"
);
},
{
closed = 1;
nodes = (
"238 606 LINE",
"738 606 LINE",
"738 670 LINE",
"238 670 LINE"
);
},
{
closed = 1;
nodes = (
"578 0 LINE",
"948 0 LINE",
"948 60 LINE",
"876 60 LINE SMOOTH",
"828 60 OFFCURVE",
"806 90 OFFCURVE",
"806 142 CURVE SMOOTH",
"806 1116 LINE SMOOTH",
"806 1168 OFFCURVE",
"826 1200 OFFCURVE",
"878 1200 CURVE SMOOTH",
"948 1200 LINE",
"948 1260 LINE",
"578 1260 LINE",
"578 1200 LINE",
"650 1200 LINE SMOOTH",
"702 1200 OFFCURVE",
"722 1170 OFFCURVE",
"722 1116 CURVE",
"722 142 LINE",
"722 90 OFFCURVE",
"700 60 OFFCURVE",
"652 60 CURVE SMOOTH",
"578 60 LINE"
);
}
);
width = 974;
},
{
anchors = (
{
name = bottom;
position = "{564, 0}";
},
{
name = center;
position = "{564, 630}";
},
{
name = top;
position = "{564, 1260}";
},
{
name = topleft;
position = "{20, 1260}";
}
);
background = {
paths = (
{
closed = 1;
nodes = (
"30 0 LINE",
"526 0 LINE",
"526 180 LINE",
"476 180 LINE SMOOTH",
"442 180 OFFCURVE",
"430 206 OFFCURVE",
"430 244 CURVE SMOOTH",
"430 1016 LINE SMOOTH",
"430 1054 OFFCURVE",
"442 1080 OFFCURVE",
"476 1080 CURVE SMOOTH",
"526 1080 LINE",
"526 1260 LINE",
"30 1260 LINE",
"30 1080 LINE",
"100 1080 LINE SMOOTH",
"142 1080 OFFCURVE",
"154 1054 OFFCURVE",
"154 1016 CURVE SMOOTH",
"154 244 LINE SMOOTH",
"154 206 OFFCURVE",
"142 180 OFFCURVE",
"100 180 CURVE SMOOTH",
"30 180 LINE"
);
},
{
closed = 1;
nodes = (
"232 542 LINE",
"836 542 LINE",
"836 742 LINE",
"232 742 LINE"
);
},
{
closed = 1;
nodes = (
"582 0 LINE",
"1098 0 LINE",
"1098 180 LINE",
"1008 180 LINE SMOOTH",
"974 180 OFFCURVE",
"962 206 OFFCURVE",
"962 244 CURVE SMOOTH",
"962 1016 LINE SMOOTH",
"962 1054 OFFCURVE",
"974 1080 OFFCURVE",
"1008 1080 CURVE SMOOTH",
"1098 1080 LINE",
"1098 1260 LINE",
"582 1260 LINE",
"582 1080 LINE",
"632 1080 LINE SMOOTH",
"674 1080 OFFCURVE",
"686 1054 OFFCURVE",
"686 1016 CURVE SMOOTH",
"686 244 LINE SMOOTH",
"686 206 OFFCURVE",
"674 180 OFFCURVE",
"632 180 CURVE SMOOTH",
"582 180 LINE"
);
}
);
};
layerId = "B25F85BC-C782-4067-8484-07202F80B8CD";
paths = (
{
closed = 1;
nodes = (
"30 0 LINE",
"526 0 LINE",
"526 180 LINE",
"476 180 LINE SMOOTH",
"442 180 OFFCURVE",
"430 206 OFFCURVE",
"430 244 CURVE SMOOTH",
"430 1016 LINE SMOOTH",
"430 1054 OFFCURVE",
"442 1080 OFFCURVE",
"476 1080 CURVE SMOOTH",
"526 1080 LINE",
"526 1260 LINE",
"30 1260 LINE",
"30 1080 LINE",
"100 1080 LINE SMOOTH",
"142 1080 OFFCURVE",
"154 1054 OFFCURVE",
"154 1016 CURVE SMOOTH",
"154 244 LINE SMOOTH",
"154 206 OFFCURVE",
"142 180 OFFCURVE",
"100 180 CURVE SMOOTH",
"30 180 LINE"
);
},
{
closed = 1;
nodes = (
"360 558 LINE",
"788 558 LINE",
"752 732 LINE",
"392 732 LINE"
);
},
{
closed = 1;
nodes = (
"582 0 LINE",
"1098 0 LINE",
"1098 180 LINE",
"1008 180 LINE SMOOTH",
"974 180 OFFCURVE",
"962 206 OFFCURVE",
"962 244 CURVE SMOOTH",
"962 1016 LINE SMOOTH",
"962 1054 OFFCURVE",
"974 1080 OFFCURVE",
"1008 1080 CURVE SMOOTH",
"1098 1080 LINE",
"1098 1260 LINE",
"582 1260 LINE",
"582 1080 LINE",
"632 1080 LINE SMOOTH",
"674 1080 OFFCURVE",
"686 1054 OFFCURVE",
"686 1016 CURVE SMOOTH",
"686 244 LINE SMOOTH",
"686 206 OFFCURVE",
"674 180 OFFCURVE",
"632 180 CURVE SMOOTH",
"582 180 LINE"
);
}
);
width = 1128;
},
{
anchors = (
{
name = bottom;
position = "{516, 0}";
},
{
name = center;
position = "{516, 630}";
},
{
name = top;
position = "{516, 1260}";
},
{
name = topleft;
position = "{20, 1260}";
}
);
layerId = "B817C739-5D48-43E8-AAEE-CE891513D7BC";
paths = (
{
closed = 1;
nodes = (
"14 0 LINE",
"502 0 LINE",
"502 216 LINE",
"488 216 LINE SMOOTH",
"470 216 OFFCURVE",
"462 222 OFFCURVE",
"462 242 CURVE SMOOTH",
"462 1018 LINE SMOOTH",
"462 1034 OFFCURVE",
"468 1044 OFFCURVE",
"488 1044 CURVE SMOOTH",
"502 1044 LINE",
"502 1260 LINE",
"14 1260 LINE",
"14 1044 LINE",
"50 1044 LINE SMOOTH",
"88 1044 OFFCURVE",
"102 1022 OFFCURVE",
"102 980 CURVE SMOOTH",
"102 278 LINE SMOOTH",
"102 238 OFFCURVE",
"86 216 OFFCURVE",
"52 216 CURVE SMOOTH",
"14 216 LINE"
);
},
{
closed = 1;
nodes = (
"430 536 LINE",
"602 536 LINE",
"602 752 LINE",
"430 752 LINE"
);
},
{
closed = 1;
nodes = (
"530 0 LINE",
"1018 0 LINE",
"1018 216 LINE",
"980 216 LINE SMOOTH",
"946 216 OFFCURVE",
"930 238 OFFCURVE",
"930 278 CURVE SMOOTH",
"930 980 LINE SMOOTH",
"930 1022 OFFCURVE",
"944 1044 OFFCURVE",
"982 1044 CURVE SMOOTH",
"1018 1044 LINE",
"1018 1260 LINE",
"530 1260 LINE",
"530 1044 LINE",
"544 1044 LINE SMOOTH",
"564 1044 OFFCURVE",
"570 1034 OFFCURVE",
"570 1018 CURVE SMOOTH",
"570 242 LINE SMOOTH",
"570 222 OFFCURVE",
"562 216 OFFCURVE",
"544 216 CURVE SMOOTH",
"530 216 LINE"
);
}
);
width = 1032;
},
{
anchors = (
{
name = bottom;
position = "{802, 0}";
},
{
name = center;
position = "{802, 630}";
},
{
name = top;
position = "{802, 1260}";
},
{
name = topleft;
position = "{20, 1260}";
}
);
layerId = UUID0;
paths = (
{
closed = 1;
nodes = (
"42 0 LINE",
"574 0 LINE",
"574 72 LINE",
"402 72 LINE SMOOTH",
"368 72 OFFCURVE",
"356 98 OFFCURVE",
"356 136 CURVE SMOOTH",
"356 1124 LINE SMOOTH",
"356 1162 OFFCURVE",
"368 1188 OFFCURVE",
"402 1188 CURVE SMOOTH",
"576 1188 LINE",
"576 1260 LINE",
"40 1260 LINE",
"40 1188 LINE",
"206 1188 LINE SMOOTH",
"248 1188 OFFCURVE",
"260 1162 OFFCURVE",
"260 1124 CURVE SMOOTH",
"260 136 LINE SMOOTH",
"260 98 OFFCURVE",
"248 72 OFFCURVE",
"206 72 CURVE SMOOTH",
"42 72 LINE"
);
},
{
closed = 1;
nodes = (
"334 616 LINE",
"1298 616 LINE",
"1298 688 LINE",
"334 688 LINE"
);
},
{
closed = 1;
nodes = (
"1030 0 LINE",
"1562 0 LINE",
"1562 72 LINE",
"1390 72 LINE SMOOTH",
"1356 72 OFFCURVE",
"1344 98 OFFCURVE",
"1344 136 CURVE SMOOTH",
"1344 1124 LINE SMOOTH",
"1344 1162 OFFCURVE",
"1356 1188 OFFCURVE",
"1390 1188 CURVE SMOOTH",
"1564 1188 LINE",
"1564 1260 LINE",
"1028 1260 LINE",
"1028 1188 LINE",
"1194 1188 LINE SMOOTH",
"1236 1188 OFFCURVE",
"1248 1162 OFFCURVE",
"1248 1124 CURVE SMOOTH",
"1248 136 LINE SMOOTH",
"1248 98 OFFCURVE",
"1236 72 OFFCURVE",
"1194 72 CURVE SMOOTH",
"1030 72 LINE"
);
}
);
width = 1604;
},
{
anchors = (
{
name = bottom;
position = "{872, 0}";
},
{
name = center;
position = "{872, 630}";
},
{
name = top;
position = "{872, 1260}";
},
{
name = topleft;
position = "{20, 1260}";
}
);
layerId = "4355E1B8-19E6-44BD-A1D7-6E3C2DECA4C8";
paths = (
{
closed = 1;
nodes = (
"44 0 LINE",
"720 0 LINE",
"720 180 LINE",
"570 180 LINE SMOOTH",
"536 180 OFFCURVE",
"524 206 OFFCURVE",
"524 244 CURVE SMOOTH",
"524 1016 LINE SMOOTH",
"524 1054 OFFCURVE",
"536 1080 OFFCURVE",
"570 1080 CURVE SMOOTH",
"720 1080 LINE",
"720 1260 LINE",
"44 1260 LINE",
"44 1080 LINE",
"194 1080 LINE SMOOTH",
"236 1080 OFFCURVE",
"248 1054 OFFCURVE",
"248 1016 CURVE SMOOTH",
"248 244 LINE SMOOTH",
"248 206 OFFCURVE",
"236 180 OFFCURVE",
"194 180 CURVE SMOOTH",
"44 180 LINE"
);
},
{
closed = 1;
nodes = (
"444 542 LINE",
"1308 542 LINE",
"1308 742 LINE",
"444 742 LINE"
);
},
{
closed = 1;
nodes = (
"1024 0 LINE",
"1700 0 LINE",
"1700 180 LINE",
"1550 180 LINE SMOOTH",
"1516 180 OFFCURVE",
"1504 206 OFFCURVE",
"1504 244 CURVE SMOOTH",
"1504 1016 LINE SMOOTH",
"1504 1054 OFFCURVE",
"1516 1080 OFFCURVE",
"1550 1080 CURVE SMOOTH",
"1700 1080 LINE",
"1700 1260 LINE",
"1024 1260 LINE",
"1024 1080 LINE",
"1174 1080 LINE SMOOTH",
"1216 1080 OFFCURVE",
"1228 1054 OFFCURVE",
"1228 1016 CURVE SMOOTH",
"1228 244 LINE SMOOTH",
"1228 206 OFFCURVE",
"1216 180 OFFCURVE",
"1174 180 CURVE SMOOTH",
"1024 180 LINE"
);
}
);
width = 1744;
},
{
anchors = (
{
name = bottom;
position = "{886, 0}";
},
{
name = center;
position = "{886, 630}";
},
{
name = top;
position = "{886, 1260}";
},
{
name = topleft;
position = "{20, 1260}";
}
);
layerId = "14C77FDB-037D-4842-9381-6D9ED15DD48C";
paths = (
{
closed = 1;
nodes = (
"34 0 LINE",
"852 0 LINE",
"852 304 LINE",
"758 304 LINE SMOOTH",
"724 304 OFFCURVE",
"712 330 OFFCURVE",
"712 368 CURVE SMOOTH",
"712 892 LINE SMOOTH",
"712 930 OFFCURVE",
"724 956 OFFCURVE",
"758 956 CURVE SMOOTH",
"852 956 LINE",
"852 1260 LINE",
"34 1260 LINE",
"34 956 LINE",
"158 956 LINE SMOOTH",
"200 956 OFFCURVE",
"212 930 OFFCURVE",
"212 892 CURVE SMOOTH",
"212 368 LINE SMOOTH",
"212 330 OFFCURVE",
"200 304 OFFCURVE",
"158 304 CURVE SMOOTH",
"34 304 LINE"
);
},
{
closed = 1;
nodes = (
"458 476 LINE",
"1280 476 LINE",
"1280 782 LINE",
"458 782 LINE"
);
},
{
closed = 1;
nodes = (
"920 0 LINE",
"1738 0 LINE",
"1738 304 LINE",
"1614 304 LINE SMOOTH",
"1572 304 OFFCURVE",
"1560 330 OFFCURVE",
"1560 368 CURVE SMOOTH",
"1560 892 LINE SMOOTH",
"1560 930 OFFCURVE",
"1572 956 OFFCURVE",
"1614 956 CURVE SMOOTH",
"1738 956 LINE",
"1738 1260 LINE",
"920 1260 LINE",
"920 956 LINE",
"1014 956 LINE SMOOTH",
"1048 956 OFFCURVE",
"1060 930 OFFCURVE",
"1060 892 CURVE SMOOTH",
"1060 368 LINE",
"1060 330 OFFCURVE",
"1048 304 OFFCURVE",
"1014 304 CURVE SMOOTH",
"920 304 LINE"
);
}
);
width = 1772;
}
);
leftKerningGroup = H;
rightKerningGroup = H;
unicode = 0048;
},
{
glyphname = I;
layers = (
{
anchors = (
{
name = bottom;
position = "{211, 0}";
},
{
name = ogonek;
position = "{380, 10}";
},
{
name = top;
position = "{211, 1260}";
},
{
name = topleft;
position = "{20, 1260}";
}
);
layerId = "E9E6D55E-9446-45F2-B66C-3272698B0216";
paths = (
{
closed = 1;
nodes = (
"26 0 LINE",
"396 0 LINE",
"396 60 LINE",
"342 60 LINE SMOOTH",
"280 60 OFFCURVE",
"252 90 OFFCURVE",
"252 142 CURVE SMOOTH",
"252 1116 LINE SMOOTH",
"252 1170 OFFCURVE",
"278 1200 OFFCURVE",
"344 1200 CURVE SMOOTH",
"396 1200 LINE",
"396 1260 LINE",
"26 1260 LINE",
"26 1200 LINE",
"78 1200 LINE SMOOTH",
"144 1200 OFFCURVE",
"170 1170 OFFCURVE",
"170 1116 CURVE SMOOTH",
"170 142 LINE SMOOTH",
"170 90 OFFCURVE",
"142 60 OFFCURVE",
"80 60 CURVE SMOOTH",
"26 60 LINE"
);
}
);
width = 422;
},
{
anchors = (
{
name = bottom;
position = "{278, 0}";
},
{
name = ogonek;
position = "{500, 10}";
},
{
name = top;
position = "{278, 1260}";
},
{
name = topleft;
position = "{20, 1260}";
}
);
layerId = "B25F85BC-C782-4067-8484-07202F80B8CD";
paths = (
{
closed = 1;
nodes = (
"30 0 LINE",
"526 0 LINE",
"526 180 LINE",
"476 180 LINE SMOOTH",
"442 180 OFFCURVE",
"430 206 OFFCURVE",
"430 244 CURVE SMOOTH",
"430 1016 LINE SMOOTH",
"430 1054 OFFCURVE",
"442 1080 OFFCURVE",
"476 1080 CURVE SMOOTH",
"526 1080 LINE",
"526 1260 LINE",
"30 1260 LINE",
"30 1080 LINE",
"100 1080 LINE SMOOTH",
"142 1080 OFFCURVE",
"154 1054 OFFCURVE",
"154 1016 CURVE SMOOTH",
"154 244 LINE SMOOTH",
"154 206 OFFCURVE",
"142 180 OFFCURVE",
"100 180 CURVE SMOOTH",
"30 180 LINE"
);
}
);
width = 556;
},
{
anchors = (
{
name = bottom;
position = "{283, 0}";
},
{
name = ogonek;
position = "{509, 10}";
},
{
name = top;
position = "{283, 1260}";
},
{
name = topleft;
position = "{20, 1260}";
}
);
layerId = "B817C739-5D48-43E8-AAEE-CE891513D7BC";
paths = (
{
closed = 1;
nodes = (
"14 0 LINE",
"552 0 LINE",
"552 216 LINE",
"514 216 LINE SMOOTH",
"480 216 OFFCURVE",
"464 238 OFFCURVE",
"464 278 CURVE SMOOTH",
"464 980 LINE SMOOTH",
"464 1022 OFFCURVE",
"478 1044 OFFCURVE",
"516 1044 CURVE SMOOTH",
"552 1044 LINE",
"552 1260 LINE",
"14 1260 LINE",
"14 1044 LINE",
"50 1044 LINE SMOOTH",
"88 1044 OFFCURVE",
"102 1022 OFFCURVE",
"102 980 CURVE SMOOTH",
"102 278 LINE SMOOTH",
"102 238 OFFCURVE",
"86 216 OFFCURVE",
"52 216 CURVE SMOOTH",
"14 216 LINE"
);
}
);
width = 566;
},
{
anchors = (
{
name = bottom;
position = "{288, 0}";
},
{
name = ogonek;
position = "{416, 10}";
},
{
name = top;
position = "{288, 1260}";
},
{
name = topleft;
position = "{20, 1260}";
}
);
layerId = UUID0;
paths = (
{
closed = 1;
nodes = (
"42 0 LINE",
"534 0 LINE",
"534 72 LINE",
"382 72 LINE SMOOTH",
"348 72 OFFCURVE",
"336 98 OFFCURVE",
"336 136 CURVE SMOOTH",
"336 1122 LINE SMOOTH",
"336 1160 OFFCURVE",
"348 1186 OFFCURVE",
"382 1186 CURVE SMOOTH",
"536 1186 LINE",
"536 1258 LINE",
"40 1258 LINE",
"40 1186 LINE",
"186 1186 LINE SMOOTH",
"228 1186 OFFCURVE",
"240 1160 OFFCURVE",
"240 1122 CURVE SMOOTH",
"240 136 LINE SMOOTH",
"240 98 OFFCURVE",
"228 72 OFFCURVE",
"186 72 CURVE SMOOTH",
"42 72 LINE"
);
}
);
width = 576;
},
{
anchors = (
{
name = bottom;
position = "{382, 0}";
},
{
name = ogonek;
position = "{688, 10}";
},
{
name = top;
position = "{382, 1260}";
},
{
name = topleft;
position = "{20, 1260}";
}
);
layerId = "4355E1B8-19E6-44BD-A1D7-6E3C2DECA4C8";
paths = (
{
closed = 1;
nodes = (
"44 0 LINE",
"720 0 LINE",
"720 180 LINE",
"570 180 LINE SMOOTH",
"536 180 OFFCURVE",
"524 206 OFFCURVE",
"524 244 CURVE SMOOTH",
"524 1016 LINE SMOOTH",
"524 1054 OFFCURVE",
"536 1080 OFFCURVE",
"570 1080 CURVE SMOOTH",
"720 1080 LINE",
"720 1260 LINE",
"44 1260 LINE",
"44 1080 LINE",
"194 1080 LINE SMOOTH",
"236 1080 OFFCURVE",
"248 1054 OFFCURVE",
"248 1016 CURVE SMOOTH",
"248 244 LINE SMOOTH",
"248 206 OFFCURVE",
"236 180 OFFCURVE",
"194 180 CURVE SMOOTH",
"44 180 LINE"
);
}
);
width = 764;
},
{
anchors = (
{
name = bottom;
position = "{463, 0}";
},
{
name = ogonek;
position = "{833, 10}";
},
{
name = top;
position = "{463, 1260}";
},
{
name = topleft;
position = "{20, 1260}";
}
);
layerId = "14C77FDB-037D-4842-9381-6D9ED15DD48C";
paths = (
{
closed = 1;
nodes = (
"34 0 LINE",
"892 0 LINE",
"892 304 LINE",
"758 304 LINE SMOOTH",
"724 304 OFFCURVE",
"712 330 OFFCURVE",
"712 368 CURVE SMOOTH",
"712 892 LINE SMOOTH",
"712 930 OFFCURVE",
"724 956 OFFCURVE",
"758 956 CURVE SMOOTH",
"892 956 LINE",
"892 1260 LINE",
"34 1260 LINE",
"34 956 LINE",
"158 956 LINE SMOOTH",
"200 956 OFFCURVE",
"212 930 OFFCURVE",
"212 892 CURVE SMOOTH",
"212 368 LINE SMOOTH",
"212 330 OFFCURVE",
"200 304 OFFCURVE",
"158 304 CURVE SMOOTH",
"34 304 LINE"
);
}
);
width = 926;
}
);
leftKerningGroup = H;
leftMetricsKey = H;
rightKerningGroup = H;
rightMetricsKey = H;
unicode = 0049;
},
{
glyphname = J;
layers = (
{
anchors = (
{
name = bottom;
position = "{376, 0}";
},
{
name = top;
position = "{376, 1260}";
}
);
layerId = "E9E6D55E-9446-45F2-B66C-3272698B0216";
paths = (
{
closed = 1;
nodes = (
"128 246 OFFCURVE",
"182 244 OFFCURVE",
"182 308 CURVE SMOOTH",
"182 350 OFFCURVE",
"158 372 OFFCURVE",
"116 372 CURVE SMOOTH",
"58 372 OFFCURVE",
"30 330 OFFCURVE",
"30 246 CURVE SMOOTH",
"30 84 OFFCURVE",
"136 -20 OFFCURVE",
"304 -20 CURVE SMOOTH",
"482 -20 OFFCURVE",
"584 92 OFFCURVE",
"584 290 CURVE SMOOTH",
"584 1116 LINE SMOOTH",
"584 1174 OFFCURVE",
"606 1200 OFFCURVE",
"656 1200 CURVE SMOOTH",
"726 1200 LINE",
"726 1260 LINE",
"356 1260 LINE",
"356 1200 LINE",
"428 1200 LINE SMOOTH",
"478 1200 OFFCURVE",
"500 1174 OFFCURVE",
"500 1116 CURVE SMOOTH",
"500 284 LINE SMOOTH",
"500 134 OFFCURVE",
"432 56 OFFCURVE",
"302 56 CURVE SMOOTH",
"200 56 OFFCURVE",
"128 110 OFFCURVE",
"128 186 CURVE SMOOTH"
);
}
);
width = 752;
},
{
anchors = (
{
name = bottom;
position = "{446, 0}";
},
{
name = top;
position = "{446, 1260}";
}
);
layerId = "B25F85BC-C782-4067-8484-07202F80B8CD";
paths = (
{
closed = 1;
nodes = (
"218 320 OFFCURVE",
"308 304 OFFCURVE",
"308 414 CURVE SMOOTH",
"308 488 OFFCURVE",
"264 532 OFFCURVE",
"192 532 CURVE SMOOTH",
"88 532 OFFCURVE",
"20 438 OFFCURVE",
"20 294 CURVE SMOOTH",
"20 94 OFFCURVE",
"146 -20 OFFCURVE",
"364 -20 CURVE SMOOTH",
"594 -20 OFFCURVE",
"726 108 OFFCURVE",
"726 330 CURVE SMOOTH",
"726 1016 LINE SMOOTH",
"726 1058 OFFCURVE",
"744 1080 OFFCURVE",
"778 1080 CURVE SMOOTH",
"862 1080 LINE",
"862 1260 LINE",
"306 1260 LINE",
"306 1080 LINE",
"398 1080 LINE SMOOTH",
"432 1080 OFFCURVE",
"450 1058 OFFCURVE",
"450 1016 CURVE SMOOTH",
"450 364 LINE SMOOTH",
"450 238 OFFCURVE",
"406 176 OFFCURVE",
"318 176 CURVE SMOOTH",
"258 176 OFFCURVE",
"218 206 OFFCURVE",
"218 252 CURVE SMOOTH"
);
}
);
width = 892;
},
{
anchors = (
{
name = bottom;
position = "{456, 0}";
},
{
name = top;
position = "{456, 1260}";
}
);
layerId = "B817C739-5D48-43E8-AAEE-CE891513D7BC";
paths = (
{
closed = 1;
nodes = (
"318 342 OFFCURVE",
"388 336 OFFCURVE",
"388 428 CURVE SMOOTH",
"388 508 OFFCURVE",
"334 552 OFFCURVE",
"240 552 CURVE SMOOTH",
"82 552 OFFCURVE",
"20 428 OFFCURVE",
"20 292 CURVE SMOOTH",
"20 98 OFFCURVE",
"148 -20 OFFCURVE",
"398 -20 CURVE SMOOTH",
"656 -20 OFFCURVE",
"810 106 OFFCURVE",
"810 330 CURVE SMOOTH",
"810 988 LINE SMOOTH",
"810 1022 OFFCURVE",
"828 1044 OFFCURVE",
"858 1044 CURVE SMOOTH",
"898 1044 LINE",
"898 1260 LINE",
"306 1260 LINE",
"306 1044 LINE",
"398 1044 LINE SMOOTH",
"432 1044 OFFCURVE",
"450 1022 OFFCURVE",
"450 980 CURVE SMOOTH",
"450 364 LINE SMOOTH",
"450 254 OFFCURVE",
"430 216 OFFCURVE",
"376 216 CURVE SMOOTH",
"338 216 OFFCURVE",
"318 236 OFFCURVE",
"318 272 CURVE SMOOTH"
);
}
);
width = 912;
},
{
anchors = (
{
name = bottom;
position = "{593, 0}";
},
{
name = top;
position = "{593, 1260}";
}
);
layerId = UUID0;
paths = (
{
closed = 1;
nodes = (
"158 354 OFFCURVE",
"222 342 OFFCURVE",
"222 410 CURVE SMOOTH",
"222 454 OFFCURVE",
"196 476 OFFCURVE",
"156 476 CURVE SMOOTH",
"90 476 OFFCURVE",
"60 416 OFFCURVE",
"60 314 CURVE SMOOTH",
"60 98 OFFCURVE",
"194 -20 OFFCURVE",
"472 -20 CURVE SMOOTH",
"772 -20 OFFCURVE",
"926 118 OFFCURVE",
"926 390 CURVE SMOOTH",
"926 1124 LINE SMOOTH",
"926 1166 OFFCURVE",
"942 1188 OFFCURVE",
"974 1188 CURVE SMOOTH",
"1126 1188 LINE",
"1126 1260 LINE",
"632 1260 LINE",
"632 1188 LINE",
"782 1188 LINE SMOOTH",
"814 1188 OFFCURVE",
"830 1166 OFFCURVE",
"830 1124 CURVE SMOOTH",
"830 384 LINE SMOOTH",
"830 162 OFFCURVE",
"714 56 OFFCURVE",
"472 56 CURVE SMOOTH",
"268 56 OFFCURVE",
"158 130 OFFCURVE",
"158 258 CURVE SMOOTH"
);
}
);
width = 1186;
},
{
anchors = (
{
name = bottom;
position = "{585, 0}";
},
{
name = top;
position = "{585, 1260}";
}
);
layerId = "4355E1B8-19E6-44BD-A1D7-6E3C2DECA4C8";
paths = (
{
closed = 1;
nodes = (
"262 364 OFFCURVE",
"372 356 OFFCURVE",
"372 470 CURVE SMOOTH",
"372 546 OFFCURVE",
"326 590 OFFCURVE",
"240 590 CURVE SMOOTH",
"102 590 OFFCURVE",
"44 476 OFFCURVE",
"44 338 CURVE SMOOTH",
"44 134 OFFCURVE",
"172 -20 OFFCURVE",
"472 -20 CURVE SMOOTH",
"778 -20 OFFCURVE",
"930 140 OFFCURVE",
"930 410 CURVE SMOOTH",
"930 1016 LINE SMOOTH",
"930 1058 OFFCURVE",
"948 1080 OFFCURVE",
"982 1080 CURVE SMOOTH",
"1126 1080 LINE",
"1126 1260 LINE",
"450 1260 LINE",
"450 1080 LINE",
"602 1080 LINE SMOOTH",
"636 1080 OFFCURVE",
"654 1058 OFFCURVE",
"654 1016 CURVE SMOOTH",
"654 422 LINE SMOOTH",
"654 260 OFFCURVE",
"590 184 OFFCURVE",
"430 184 CURVE SMOOTH",
"310 184 OFFCURVE",
"262 226 OFFCURVE",
"262 280 CURVE SMOOTH"
);
}
);
width = 1170;
},
{
anchors = (
{
name = bottom;
position = "{691, 0}";
},
{
name = top;
position = "{691, 1260}";
}
);
layerId = "14C77FDB-037D-4842-9381-6D9ED15DD48C";
paths = (
{
closed = 1;
nodes = (
"398 420 OFFCURVE",
"468 430 OFFCURVE",
"468 522 CURVE SMOOTH",
"468 616 OFFCURVE",
"394 658 OFFCURVE",
"290 658 CURVE SMOOTH",
"122 658 OFFCURVE",
"40 548 OFFCURVE",
"40 372 CURVE SMOOTH",
"40 118 OFFCURVE",
"212 -20 OFFCURVE",
"590 -20 CURVE SMOOTH",
"972 -20 OFFCURVE",
"1170 120 OFFCURVE",
"1170 450 CURVE SMOOTH",
"1170 900 LINE SMOOTH",
"1170 934 OFFCURVE",
"1188 956 OFFCURVE",
"1218 956 CURVE SMOOTH",
"1348 956 LINE",
"1348 1260 LINE",
"470 1260 LINE",
"470 956 LINE",
"618 956 LINE SMOOTH",
"652 956 OFFCURVE",
"670 934 OFFCURVE",
"670 892 CURVE SMOOTH",
"670 450 LINE SMOOTH",
"670 368 OFFCURVE",
"612 302 OFFCURVE",
"502 302 CURVE SMOOTH",
"442 302 OFFCURVE",
"398 322 OFFCURVE",
"398 366 CURVE SMOOTH"
);
}
);
width = 1382;
}
);
leftKerningGroup = J;
rightKerningGroup = U;
unicode = 004A;
},
{
color = 6;
glyphname = K;
layers = (
{
anchors = (
{
name = bottom;
position = "{468, 0}";
},
{
name = top;
position = "{468, 1260}";
}
);
background = {
paths = (
{
closed = 1;
nodes = (
"26 0 LINE",
"398 0 LINE",
"398 60 LINE",
"308 60 LINE SMOOTH",
"268 60 OFFCURVE",
"254 80 OFFCURVE",
"254 124 CURVE SMOOTH",
"254 1122 LINE SMOOTH",
"254 1172 OFFCURVE",
"276 1200 OFFCURVE",
"332 1200 CURVE SMOOTH",
"398 1200 LINE",
"398 1260 LINE",
"26 1260 LINE",
"26 1200 LINE",
"96 1200 LINE SMOOTH",
"148 1200 OFFCURVE",
"170 1172 OFFCURVE",
"170 1122 CURVE SMOOTH",
"170 124 LINE SMOOTH",
"170 80 OFFCURVE",
"156 60 OFFCURVE",
"116 60 CURVE SMOOTH",
"26 60 LINE"
);
},
{
closed = 1;
nodes = (
"796 1164 LINE SMOOTH",
"820 1194 OFFCURVE",
"838 1200 OFFCURVE",
"864 1200 CURVE SMOOTH",
"926 1200 LINE",
"926 1260 LINE",
"604 1260 LINE",
"604 1200 LINE",
"672 1200 LINE SMOOTH",
"694 1200 OFFCURVE",
"706 1192 OFFCURVE",
"706 1178 CURVE SMOOTH",
"706 1168 OFFCURVE",
"700 1158 OFFCURVE",
"690 1144 CURVE",
"204 530 LINE",
"230 456 LINE"
);
},
{
closed = 1;
nodes = (
"578 0 LINE",
"946 0 LINE",
"946 60 LINE",
"864 60 LINE SMOOTH",
"838 60 OFFCURVE",
"808 68 OFFCURVE",
"796 96 CURVE SMOOTH",
"484 826 LINE",
"426 744 LINE",
"700 108 LINE",
"704 100 OFFCURVE",
"706 92 OFFCURVE",
"706 86 CURVE SMOOTH",
"706 72 OFFCURVE",
"696 60 OFFCURVE",
"672 60 CURVE SMOOTH",
"578 60 LINE"
);
}
);
};
guideLines = (
{
angle = 90;
position = "{473, 361}";
}
);
layerId = "E9E6D55E-9446-45F2-B66C-3272698B0216";
paths = (
{
closed = 1;
nodes = (
"26 0 LINE",
"398 0 LINE",
"398 60 LINE",
"308 60 LINE SMOOTH",
"268 60 OFFCURVE",
"254 80 OFFCURVE",
"254 124 CURVE SMOOTH",
"254 1122 LINE SMOOTH",
"254 1172 OFFCURVE",
"276 1200 OFFCURVE",
"332 1200 CURVE SMOOTH",
"398 1200 LINE",
"398 1260 LINE",
"26 1260 LINE",
"26 1200 LINE",
"96 1200 LINE SMOOTH",
"148 1200 OFFCURVE",
"170 1172 OFFCURVE",
"170 1122 CURVE SMOOTH",
"170 124 LINE SMOOTH",
"170 80 OFFCURVE",
"156 60 OFFCURVE",
"116 60 CURVE SMOOTH",
"26 60 LINE"
);
},
{
closed = 1;
nodes = (
"756 1164 LINE SMOOTH",
"778 1196 OFFCURVE",
"798 1200 OFFCURVE",
"824 1200 CURVE SMOOTH",
"886 1200 LINE",
"886 1260 LINE",
"544 1260 LINE",
"544 1200 LINE",
"632 1200 LINE SMOOTH",
"654 1200 OFFCURVE",
"666 1192 OFFCURVE",
"666 1178 CURVE SMOOTH",
"666 1168 OFFCURVE",
"660 1158 OFFCURVE",
"650 1144 CURVE",
"204 496 LINE",
"230 416 LINE"
);
},
{
closed = 1;
nodes = (
"558 0 LINE",
"926 0 LINE",
"926 60 LINE",
"844 60 LINE SMOOTH",
"818 60 OFFCURVE",
"788 68 OFFCURVE",
"776 96 CURVE SMOOTH",
"464 806 LINE",
"406 724 LINE",
"680 108 LINE",
"684 100 OFFCURVE",
"686 92 OFFCURVE",
"686 86 CURVE SMOOTH",
"686 72 OFFCURVE",
"676 60 OFFCURVE",
"652 60 CURVE SMOOTH",
"558 60 LINE"
);
}
);
width = 936;
},
{
anchors = (
{
name = bottom;
position = "{549, 0}";
},
{
name = top;
position = "{549, 1260}";
}
);
background = {
paths = (
{
closed = 1;
nodes = (
"32 0 LINE",
"524 0 LINE",
"524 180 LINE",
"468 180 LINE SMOOTH",
"444 180 OFFCURVE",
"430 200 OFFCURVE",
"430 230 CURVE SMOOTH",
"430 1016 LINE SMOOTH",
"430 1062 OFFCURVE",
"448 1080 OFFCURVE",
"484 1080 CURVE SMOOTH",
"526 1080 LINE",
"526 1260 LINE",
"30 1260 LINE",
"30 1080 LINE",
"100 1080 LINE SMOOTH",
"140 1080 OFFCURVE",
"154 1060 OFFCURVE",
"154 1016 CURVE SMOOTH",
"154 244 LINE SMOOTH",
"154 200 OFFCURVE",
"140 180 OFFCURVE",
"100 180 CURVE SMOOTH",
"32 180 LINE"
);
},
{
closed = 1;
nodes = (
"936 1044 LINE SMOOTH",
"962 1072 OFFCURVE",
"978 1080 OFFCURVE",
"1004 1080 CURVE SMOOTH",
"1058 1080 LINE",
"1058 1260 LINE",
"608 1260 LINE",
"608 1080 LINE",
"696 1080 LINE SMOOTH",
"718 1080 OFFCURVE",
"728 1068 OFFCURVE",
"728 1054 CURVE SMOOTH",
"728 1044 OFFCURVE",
"722 1034 OFFCURVE",
"714 1024 CURVE SMOOTH",
"170 426 LINE",
"324 372 LINE"
);
},
{
closed = 1;
nodes = (
"582 0 LINE",
"1098 0 LINE",
"1098 180 LINE",
"1028 180 LINE SMOOTH",
"992 180 OFFCURVE",
"976 186 OFFCURVE",
"966 210 CURVE SMOOTH",
"710 814 LINE",
"514 606 LINE",
"676 232 LINE SMOOTH",
"682 218 OFFCURVE",
"684 212 OFFCURVE",
"684 204 CURVE SMOOTH",
"684 188 OFFCURVE",
"672 180 OFFCURVE",
"650 180 CURVE SMOOTH",
"582 180 LINE"
);
}
);
};
guideLines = (
{
angle = 90;
position = "{549, 178}";
}
);
layerId = "B25F85BC-C782-4067-8484-07202F80B8CD";
paths = (
{
closed = 1;
nodes = (
"32 0 LINE",
"524 0 LINE",
"524 180 LINE",
"468 180 LINE SMOOTH",
"444 180 OFFCURVE",
"430 200 OFFCURVE",
"430 230 CURVE SMOOTH",
"430 1016 LINE SMOOTH",
"430 1062 OFFCURVE",
"448 1080 OFFCURVE",
"484 1080 CURVE SMOOTH",
"526 1080 LINE",
"526 1260 LINE",
"30 1260 LINE",
"30 1080 LINE",
"100 1080 LINE SMOOTH",
"140 1080 OFFCURVE",
"154 1060 OFFCURVE",
"154 1016 CURVE SMOOTH",
"154 244 LINE SMOOTH",
"154 200 OFFCURVE",
"140 180 OFFCURVE",
"100 180 CURVE SMOOTH",
"32 180 LINE"
);
},
{
closed = 1;
nodes = (
"916 1044 LINE SMOOTH",
"940 1074 OFFCURVE",
"958 1080 OFFCURVE",
"984 1080 CURVE SMOOTH",
"1048 1080 LINE",
"1048 1260 LINE",
"598 1260 LINE",
"598 1080 LINE",
"676 1080 LINE SMOOTH",
"698 1080 OFFCURVE",
"708 1068 OFFCURVE",
"708 1054 CURVE SMOOTH",
"708 1044 OFFCURVE",
"702 1034 OFFCURVE",
"694 1024 CURVE SMOOTH",
"170 386 LINE",
"324 332 LINE"
);
},
{
closed = 1;
nodes = (
"582 0 LINE",
"1078 0 LINE",
"1078 180 LINE",
"1018 180 LINE SMOOTH",
"982 180 OFFCURVE",
"966 186 OFFCURVE",
"956 210 CURVE SMOOTH",
"720 826 LINE",
"524 618 LINE",
"666 232 LINE SMOOTH",
"672 218 OFFCURVE",
"674 212 OFFCURVE",
"674 204 CURVE SMOOTH",
"674 188 OFFCURVE",
"662 180 OFFCURVE",
"640 180 CURVE SMOOTH",
"582 180 LINE"
);
}
);
width = 1098;
},
{
anchors = (
{
name = bottom;
position = "{517, 0}";
},
{
name = top;
position = "{517, 1260}";
}
);
background = {
paths = (
{
closed = 1;
nodes = (
"16 0 LINE",
"504 0 LINE",
"504 216 LINE",
"482 216 LINE SMOOTH",
"470 216 OFFCURVE",
"464 226 OFFCURVE",
"464 246 CURVE SMOOTH",
"464 1016 LINE SMOOTH",
"464 1034 OFFCURVE",
"470 1044 OFFCURVE",
"488 1044 CURVE SMOOTH",
"504 1044 LINE",
"504 1260 LINE",
"14 1260 LINE",
"14 1044 LINE",
"46 1044 LINE SMOOTH",
"86 1044 OFFCURVE",
"104 1022 OFFCURVE",
"104 978 CURVE SMOOTH",
"104 282 LINE SMOOTH",
"104 238 OFFCURVE",
"86 216 OFFCURVE",
"46 216 CURVE SMOOTH",
"16 216 LINE"
);
},
{
closed = 1;
nodes = (
"906 1008 LINE SMOOTH",
"928 1034 OFFCURVE",
"950 1044 OFFCURVE",
"982 1044 CURVE SMOOTH",
"998 1044 LINE",
"998 1260 LINE",
"532 1260 LINE",
"532 1044 LINE",
"554 1044 LINE SMOOTH",
"572 1044 OFFCURVE",
"582 1034 OFFCURVE",
"582 1018 CURVE SMOOTH",
"582 1006 OFFCURVE",
"578 996 OFFCURVE",
"570 986 CURVE SMOOTH",
"132 390 LINE",
"344 296 LINE"
);
},
{
closed = 1;
nodes = (
"532 0 LINE",
"1020 0 LINE",
"1020 216 LINE",
"988 216 LINE SMOOTH",
"960 216 OFFCURVE",
"944 224 OFFCURVE",
"936 246 CURVE SMOOTH",
"724 826 LINE",
"454 626 LINE",
"564 276 LINE SMOOTH",
"568 264 OFFCURVE",
"572 246 OFFCURVE",
"572 238 CURVE SMOOTH",
"572 224 OFFCURVE",
"566 216 OFFCURVE",
"550 216 CURVE SMOOTH",
"532 216 LINE"
);
}
);
};
layerId = "B817C739-5D48-43E8-AAEE-CE891513D7BC";
paths = (
{
closed = 1;
nodes = (
"16 0 LINE",
"504 0 LINE",
"504 216 LINE",
"482 216 LINE SMOOTH",
"470 216 OFFCURVE",
"464 226 OFFCURVE",
"464 246 CURVE SMOOTH",
"464 1016 LINE SMOOTH",
"464 1034 OFFCURVE",
"470 1044 OFFCURVE",
"488 1044 CURVE SMOOTH",
"504 1044 LINE",
"504 1260 LINE",
"14 1260 LINE",
"14 1044 LINE",
"46 1044 LINE SMOOTH",
"86 1044 OFFCURVE",
"104 1022 OFFCURVE",
"104 978 CURVE SMOOTH",
"104 282 LINE SMOOTH",
"104 238 OFFCURVE",
"86 216 OFFCURVE",
"46 216 CURVE SMOOTH",
"16 216 LINE"
);
},
{
closed = 1;
nodes = (
"906 1008 LINE SMOOTH",
"926 1036 OFFCURVE",
"950 1044 OFFCURVE",
"982 1044 CURVE SMOOTH",
"998 1044 LINE",
"998 1260 LINE",
"532 1260 LINE",
"532 1044 LINE",
"554 1044 LINE SMOOTH",
"572 1044 OFFCURVE",
"582 1034 OFFCURVE",
"582 1018 CURVE SMOOTH",
"582 1006 OFFCURVE",
"578 996 OFFCURVE",
"570 986 CURVE SMOOTH",
"132 350 LINE",
"344 256 LINE"
);
},
{
closed = 1;
nodes = (
"532 0 LINE",
"1020 0 LINE",
"1020 216 LINE",
"988 216 LINE SMOOTH",
"968 216 OFFCURVE",
"954 224 OFFCURVE",
"944 246 CURVE SMOOTH",
"684 826 LINE",
"414 626 LINE",
"566 274 LINE SMOOTH",
"572 260 OFFCURVE",
"580 242 OFFCURVE",
"580 232 CURVE SMOOTH",
"580 224 OFFCURVE",
"574 216 OFFCURVE",
"558 216 CURVE SMOOTH",
"532 216 LINE"
);
}
);
width = 1034;
},
{
anchors = (
{
name = bottom;
position = "{766, 0}";
},
{
name = top;
position = "{766, 1260}";
}
);
background = {
paths = (
{
closed = 1;
nodes = (
"42 0 LINE",
"574 0 LINE",
"574 72 LINE",
"408 72 LINE SMOOTH",
"370 72 OFFCURVE",
"356 90 OFFCURVE",
"356 136 CURVE SMOOTH",
"356 1128 LINE SMOOTH",
"356 1170 OFFCURVE",
"372 1188 OFFCURVE",
"410 1188 CURVE SMOOTH",
"576 1188 LINE",
"576 1260 LINE",
"40 1260 LINE",
"40 1188 LINE",
"206 1188 LINE SMOOTH",
"240 1188 OFFCURVE",
"260 1166 OFFCURVE",
"260 1128 CURVE SMOOTH",
"260 136 LINE SMOOTH",
"260 92 OFFCURVE",
"242 72 OFFCURVE",
"202 72 CURVE SMOOTH",
"42 72 LINE"
);
},
{
closed = 1;
nodes = (
"1314 1152 LINE SMOOTH",
"1346 1176 OFFCURVE",
"1382 1188 OFFCURVE",
"1418 1188 CURVE SMOOTH",
"1520 1188 LINE",
"1520 1260 LINE",
"1028 1260 LINE",
"1028 1188 LINE",
"1164 1188 LINE SMOOTH",
"1180 1188 OFFCURVE",
"1188 1180 OFFCURVE",
"1188 1168 CURVE SMOOTH",
"1188 1158 OFFCURVE",
"1186 1150 OFFCURVE",
"1172 1138 CURVE SMOOTH",
"282 428 LINE",
"308 354 LINE"
);
},
{
closed = 1;
nodes = (
"1030 0 LINE",
"1562 0 LINE",
"1562 72 LINE",
"1448 72 LINE SMOOTH",
"1402 72 OFFCURVE",
"1380 76 OFFCURVE",
"1360 100 CURVE SMOOTH",
"784 788 LINE",
"726 706 LINE",
"1226 124 LINE SMOOTH",
"1234 116 OFFCURVE",
"1236 108 OFFCURVE",
"1236 100 CURVE SMOOTH",
"1236 84 OFFCURVE",
"1222 72 OFFCURVE",
"1198 72 CURVE SMOOTH",
"1030 72 LINE"
);
}
);
};
guideLines = (
{
angle = 90;
position = "{771, 317}";
}
);
layerId = UUID0;
paths = (
{
closed = 1;
nodes = (
"42 0 LINE",
"574 0 LINE",
"574 72 LINE",
"408 72 LINE SMOOTH",
"370 72 OFFCURVE",
"356 90 OFFCURVE",
"356 136 CURVE SMOOTH",
"356 1128 LINE SMOOTH",
"356 1170 OFFCURVE",
"372 1188 OFFCURVE",
"410 1188 CURVE SMOOTH",
"576 1188 LINE",
"576 1260 LINE",
"40 1260 LINE",
"40 1188 LINE",
"206 1188 LINE SMOOTH",
"240 1188 OFFCURVE",
"260 1166 OFFCURVE",
"260 1128 CURVE SMOOTH",
"260 136 LINE SMOOTH",
"260 92 OFFCURVE",
"242 72 OFFCURVE",
"202 72 CURVE SMOOTH",
"42 72 LINE"
);
},
{
closed = 1;
nodes = (
"1264 1152 LINE SMOOTH",
"1296 1178 OFFCURVE",
"1332 1188 OFFCURVE",
"1368 1188 CURVE SMOOTH",
"1480 1188 LINE",
"1480 1260 LINE",
"978 1260 LINE",
"978 1188 LINE",
"1114 1188 LINE SMOOTH",
"1130 1188 OFFCURVE",
"1138 1180 OFFCURVE",
"1138 1168 CURVE SMOOTH",
"1138 1158 OFFCURVE",
"1136 1150 OFFCURVE",
"1122 1138 CURVE SMOOTH",
"282 428 LINE",
"308 354 LINE"
);
},
{
closed = 1;
nodes = (
"1000 0 LINE",
"1532 0 LINE",
"1532 72 LINE",
"1418 72 LINE SMOOTH",
"1372 72 OFFCURVE",
"1350 76 OFFCURVE",
"1330 100 CURVE SMOOTH",
"774 788 LINE",
"716 706 LINE",
"1196 124 LINE SMOOTH",
"1204 116 OFFCURVE",
"1206 108 OFFCURVE",
"1206 100 CURVE SMOOTH",
"1206 84 OFFCURVE",
"1192 72 OFFCURVE",
"1168 72 CURVE SMOOTH",
"1000 72 LINE"
);
}
);
width = 1532;
},
{
anchors = (
{
name = bottom;
position = "{831, 0}";
},
{
name = top;
position = "{831, 1260}";
}
);
background = {
paths = (
{
closed = 1;
nodes = (
"44 0 LINE",
"720 0 LINE",
"720 180 LINE",
"572 180 LINE SMOOTH",
"538 180 OFFCURVE",
"524 200 OFFCURVE",
"524 242 CURVE SMOOTH",
"524 1016 LINE SMOOTH",
"524 1062 OFFCURVE",
"538 1080 OFFCURVE",
"578 1080 CURVE SMOOTH",
"720 1080 LINE",
"720 1260 LINE",
"44 1260 LINE",
"44 1080 LINE",
"194 1080 LINE SMOOTH",
"234 1080 OFFCURVE",
"248 1060 OFFCURVE",
"248 1016 CURVE SMOOTH",
"248 242 LINE SMOOTH",
"248 198 OFFCURVE",
"234 178 OFFCURVE",
"194 178 CURVE SMOOTH",
"44 178 LINE"
);
},
{
closed = 1;
nodes = (
"1512 1056 LINE SMOOTH",
"1540 1074 OFFCURVE",
"1562 1080 OFFCURVE",
"1598 1080 CURVE SMOOTH",
"1668 1080 LINE",
"1668 1260 LINE",
"1004 1260 LINE",
"1004 1080 LINE",
"1142 1080 LINE SMOOTH",
"1162 1080 OFFCURVE",
"1172 1066 OFFCURVE",
"1172 1052 CURVE SMOOTH",
"1172 1042 OFFCURVE",
"1168 1032 OFFCURVE",
"1156 1024 CURVE SMOOTH",
"284 476 LINE",
"458 392 LINE"
);
},
{
closed = 1;
nodes = (
"1024 0 LINE",
"1702 0 LINE",
"1702 178 LINE",
"1608 178 LINE SMOOTH",
"1572 178 OFFCURVE",
"1552 188 OFFCURVE",
"1532 208 CURVE SMOOTH",
"976 810 LINE",
"770 624 LINE",
"1134 242 LINE SMOOTH",
"1144 232 OFFCURVE",
"1150 218 OFFCURVE",
"1150 208 CURVE SMOOTH",
"1150 192 OFFCURVE",
"1140 180 OFFCURVE",
"1120 180 CURVE SMOOTH",
"1024 180 LINE"
);
}
);
};
layerId = "4355E1B8-19E6-44BD-A1D7-6E3C2DECA4C8";
paths = (
{
closed = 1;
nodes = (
"44 0 LINE",
"740 0 LINE",
"740 180 LINE",
"572 180 LINE SMOOTH",
"538 180 OFFCURVE",
"524 200 OFFCURVE",
"524 242 CURVE SMOOTH",
"524 1016 LINE SMOOTH",
"524 1062 OFFCURVE",
"538 1080 OFFCURVE",
"578 1080 CURVE SMOOTH",
"720 1080 LINE",
"720 1260 LINE",
"44 1260 LINE",
"44 1080 LINE",
"194 1080 LINE SMOOTH",
"234 1080 OFFCURVE",
"248 1060 OFFCURVE",
"248 1016 CURVE SMOOTH",
"248 242 LINE SMOOTH",
"248 198 OFFCURVE",
"234 178 OFFCURVE",
"194 178 CURVE SMOOTH",
"44 178 LINE"
);
},
{
closed = 1;
nodes = (
"1412 1056 LINE SMOOTH",
"1440 1076 OFFCURVE",
"1462 1080 OFFCURVE",
"1498 1080 CURVE SMOOTH",
"1588 1080 LINE",
"1588 1260 LINE",
"864 1260 LINE",
"864 1080 LINE",
"1042 1080 LINE SMOOTH",
"1062 1080 OFFCURVE",
"1072 1066 OFFCURVE",
"1072 1052 CURVE SMOOTH",
"1072 1042 OFFCURVE",
"1068 1032 OFFCURVE",
"1056 1024 CURVE SMOOTH",
"284 456 LINE",
"458 372 LINE"
);
},
{
closed = 1;
nodes = (
"904 0 LINE",
"1622 0 LINE",
"1622 178 LINE",
"1528 178 LINE SMOOTH",
"1492 178 OFFCURVE",
"1472 188 OFFCURVE",
"1452 208 CURVE SMOOTH",
"896 810 LINE",
"690 624 LINE",
"1054 242 LINE SMOOTH",
"1064 232 OFFCURVE",
"1070 218 OFFCURVE",
"1070 208 CURVE SMOOTH",
"1070 192 OFFCURVE",
"1060 180 OFFCURVE",
"1040 180 CURVE SMOOTH",
"904 180 LINE"
);
}
);
width = 1662;
},
{
anchors = (
{
name = bottom;
position = "{839, 0}";
},
{
name = top;
position = "{839, 1260}";
}
);
background = {
paths = (
{
closed = 1;
nodes = (
"34 0 LINE",
"852 0 LINE",
"852 304 LINE",
"756 304 LINE SMOOTH",
"726 304 OFFCURVE",
"712 316 OFFCURVE",
"712 352 CURVE SMOOTH",
"712 902 LINE SMOOTH",
"712 936 OFFCURVE",
"728 956 OFFCURVE",
"760 956 CURVE SMOOTH",
"852 956 LINE",
"852 1260 LINE",
"34 1260 LINE",
"34 956 LINE",
"158 956 LINE SMOOTH",
"200 956 OFFCURVE",
"212 934 OFFCURVE",
"212 894 CURVE SMOOTH",
"212 360 LINE SMOOTH",
"212 326 OFFCURVE",
"200 304 OFFCURVE",
"162 304 CURVE SMOOTH",
"34 304 LINE"
);
},
{
closed = 1;
nodes = (
"1522 912 LINE SMOOTH",
"1600 952 OFFCURVE",
"1614 956 OFFCURVE",
"1646 956 CURVE SMOOTH",
"1712 956 LINE",
"1712 1260 LINE",
"920 1260 LINE",
"920 956 LINE",
"998 956 LINE SMOOTH",
"1016 956 OFFCURVE",
"1026 946 OFFCURVE",
"1026 930 CURVE SMOOTH",
"1026 916 OFFCURVE",
"1018 906 OFFCURVE",
"990 892 CURVE SMOOTH",
"374 580 LINE",
"586 426 LINE"
);
},
{
closed = 1;
nodes = (
"920 0 LINE",
"1738 0 LINE",
"1738 304 LINE",
"1618 304 LINE SMOOTH",
"1580 304 OFFCURVE",
"1562 312 OFFCURVE",
"1542 344 CURVE SMOOTH",
"1250 802 LINE",
"868 616 LINE",
"1040 358 LINE SMOOTH",
"1046 348 OFFCURVE",
"1050 340 OFFCURVE",
"1050 332 CURVE SMOOTH",
"1050 316 OFFCURVE",
"1038 304 OFFCURVE",
"1016 304 CURVE SMOOTH",
"920 304 LINE"
);
}
);
};
layerId = "14C77FDB-037D-4842-9381-6D9ED15DD48C";
paths = (
{
closed = 1;
nodes = (
"34 0 LINE",
"824 0 LINE",
"824 304 LINE",
"756 304 LINE SMOOTH",
"726 304 OFFCURVE",
"712 316 OFFCURVE",
"712 352 CURVE SMOOTH",
"712 902 LINE SMOOTH",
"712 936 OFFCURVE",
"728 956 OFFCURVE",
"760 956 CURVE SMOOTH",
"820 956 LINE",
"820 1260 LINE",
"34 1260 LINE",
"34 956 LINE",
"158 956 LINE SMOOTH",
"200 956 OFFCURVE",
"212 934 OFFCURVE",
"212 894 CURVE SMOOTH",
"212 360 LINE SMOOTH",
"212 326 OFFCURVE",
"200 304 OFFCURVE",
"162 304 CURVE SMOOTH",
"34 304 LINE"
);
},
{
closed = 1;
nodes = (
"1482 912 LINE SMOOTH",
"1556 958 OFFCURVE",
"1574 956 OFFCURVE",
"1606 956 CURVE SMOOTH",
"1652 956 LINE",
"1652 1260 LINE",
"888 1260 LINE",
"888 956 LINE",
"958 956 LINE SMOOTH",
"976 956 OFFCURVE",
"986 946 OFFCURVE",
"986 930 CURVE SMOOTH",
"986 916 OFFCURVE",
"978 910 OFFCURVE",
"950 892 CURVE SMOOTH",
"374 520 LINE",
"586 366 LINE"
);
},
{
closed = 1;
nodes = (
"892 0 LINE",
"1678 0 LINE",
"1678 304 LINE",
"1594 304 LINE SMOOTH",
"1556 304 OFFCURVE",
"1542 314 OFFCURVE",
"1518 344 CURVE SMOOTH",
"1190 782 LINE",
"828 596 LINE",
"1000 358 LINE SMOOTH",
"1006 348 OFFCURVE",
"1010 340 OFFCURVE",
"1010 332 CURVE SMOOTH",
"1010 316 OFFCURVE",
"998 304 OFFCURVE",
"976 304 CURVE SMOOTH",
"892 304 LINE"
);
}
);
width = 1678;
}
);
leftKerningGroup = H;
leftMetricsKey = H;
rightKerningGroup = K;
unicode = 004B;
},
{
color = 6;
glyphname = L;
layers = (
{
anchors = (
{
name = bottom;
position = "{378, 0}";
},
{
name = center;
position = "{224, 631}";
},
{
name = top;
position = "{378, 1260}";
},
{
name = topright;
position = "{736, 1260}";
}
);
layerId = "E9E6D55E-9446-45F2-B66C-3272698B0216";
paths = (
{
closed = 1;
nodes = (
"26 0 LINE",
"696 0 LINE",
"696 418 LINE",
"632 418 LINE",
"632 106 OFFCURVE",
"598 60 OFFCURVE",
"508 60 CURVE SMOOTH",
"256 60 LINE",
"256 1118 LINE SMOOTH",
"256 1170 OFFCURVE",
"276 1200 OFFCURVE",
"328 1200 CURVE SMOOTH",
"436 1200 LINE",
"436 1260 LINE",
"32 1260 LINE",
"32 1200 LINE",
"78 1200 LINE SMOOTH",
"144 1200 OFFCURVE",
"170 1170 OFFCURVE",
"170 1116 CURVE SMOOTH",
"170 142 LINE SMOOTH",
"170 90 OFFCURVE",
"142 60 OFFCURVE",
"80 60 CURVE SMOOTH",
"26 60 LINE"
);
}
);
width = 756;
},
{
anchors = (
{
name = bottom;
position = "{501, 0}";
},
{
name = center;
position = "{326, 640}";
},
{
name = top;
position = "{501, 1260}";
},
{
name = topright;
position = "{982, 1260}";
}
);
layerId = "B25F85BC-C782-4067-8484-07202F80B8CD";
paths = (
{
closed = 1;
nodes = (
"30 0 LINE",
"942 0 LINE",
"942 594 LINE",
"704 594 LINE",
"704 224 OFFCURVE",
"678 180 OFFCURVE",
"584 180 CURVE SMOOTH",
"430 180 LINE",
"430 1020 LINE SMOOTH",
"430 1054 OFFCURVE",
"444 1080 OFFCURVE",
"482 1080 CURVE SMOOTH",
"566 1080 LINE",
"566 1260 LINE",
"30 1260 LINE",
"30 1080 LINE",
"102 1080 LINE SMOOTH",
"142 1080 OFFCURVE",
"154 1058 OFFCURVE",
"154 1008 CURVE SMOOTH",
"154 246 LINE SMOOTH",
"154 204 OFFCURVE",
"142 180 OFFCURVE",
"104 180 CURVE SMOOTH",
"30 180 LINE"
);
}
);
width = 1002;
},
{
anchors = (
{
name = bottom;
position = "{439, 0}";
},
{
name = center;
position = "{283, 630}";
},
{
name = top;
position = "{439, 1260}";
},
{
name = topright;
position = "{858, 1260}";
}
);
background = {
paths = (
{
closed = 1;
nodes = (
"14 0 LINE",
"888 0 LINE",
"888 626 LINE",
"586 626 LINE",
"586 260 OFFCURVE",
"562 216 OFFCURVE",
"508 216 CURVE SMOOTH",
"462 216 LINE",
"462 980 LINE SMOOTH",
"462 1020 OFFCURVE",
"480 1044 OFFCURVE",
"526 1044 CURVE SMOOTH",
"592 1044 LINE",
"592 1260 LINE",
"14 1260 LINE",
"14 1044 LINE",
"50 1044 LINE SMOOTH",
"90 1044 OFFCURVE",
"102 1022 OFFCURVE",
"102 972 CURVE SMOOTH",
"102 282 LINE SMOOTH",
"102 240 OFFCURVE",
"88 216 OFFCURVE",
"52 216 CURVE SMOOTH",
"14 216 LINE"
);
}
);
};
layerId = "B817C739-5D48-43E8-AAEE-CE891513D7BC";
paths = (
{
closed = 1;
nodes = (
"14 0 LINE",
"858 0 LINE",
"858 604 LINE",
"556 604 LINE",
"556 238 OFFCURVE",
"542 216 OFFCURVE",
"498 216 CURVE SMOOTH",
"462 216 LINE",
"462 980 LINE SMOOTH",
"462 1020 OFFCURVE",
"480 1044 OFFCURVE",
"526 1044 CURVE SMOOTH",
"592 1044 LINE",
"592 1260 LINE",
"14 1260 LINE",
"14 1044 LINE",
"50 1044 LINE SMOOTH",
"90 1044 OFFCURVE",
"102 1022 OFFCURVE",
"102 972 CURVE SMOOTH",
"102 282 LINE SMOOTH",
"102 240 OFFCURVE",
"88 216 OFFCURVE",
"52 216 CURVE SMOOTH",
"14 216 LINE"
);
}
);
width = 878;
},
{
anchors = (
{
name = bottom;
position = "{623, 0}";
},
{
name = center;
position = "{307, 630}";
},
{
name = top;
position = "{623, 1260}";
},
{
name = topright;
position = "{1226, 1260}";
}
);
background = {
paths = (
{
closed = 1;
nodes = (
"62 0 LINE",
"1186 0 LINE",
"1186 498 LINE",
"1122 498 LINE",
"1122 156 OFFCURVE",
"1112 72 OFFCURVE",
"998 72 CURVE SMOOTH",
"356 72 LINE",
"356 1124 LINE SMOOTH",
"356 1166 OFFCURVE",
"370 1188 OFFCURVE",
"410 1188 CURVE SMOOTH",
"596 1188 LINE",
"596 1260 LINE",
"60 1260 LINE",
"60 1188 LINE",
"208 1188 LINE SMOOTH",
"246 1188 OFFCURVE",
"260 1166 OFFCURVE",
"260 1124 CURVE SMOOTH",
"260 134 LINE SMOOTH",
"260 94 OFFCURVE",
"244 72 OFFCURVE",
"210 72 CURVE SMOOTH",
"62 72 LINE"
);
}
);
};
layerId = UUID0;
paths = (
{
closed = 1;
nodes = (
"42 0 LINE",
"1146 0 LINE",
"1146 498 LINE",
"1082 498 LINE",
"1082 156 OFFCURVE",
"1072 72 OFFCURVE",
"958 72 CURVE SMOOTH",
"356 72 LINE",
"356 1124 LINE SMOOTH",
"356 1166 OFFCURVE",
"370 1188 OFFCURVE",
"410 1188 CURVE SMOOTH",
"636 1188 LINE",
"636 1260 LINE",
"40 1260 LINE",
"40 1188 LINE",
"208 1188 LINE SMOOTH",
"246 1188 OFFCURVE",
"260 1166 OFFCURVE",
"260 1124 CURVE SMOOTH",
"260 134 LINE SMOOTH",
"260 94 OFFCURVE",
"244 72 OFFCURVE",
"210 72 CURVE SMOOTH",
"42 72 LINE"
);
}
);
width = 1246;
},
{
anchors = (
{
name = bottom;
position = "{671, 0}";
},
{
name = center;
position = "{387, 630}";
},
{
name = top;
position = "{671, 1260}";
},
{
name = topright;
position = "{1322, 1260}";
}
);
background = {
paths = (
{
closed = 1;
nodes = (
"44 0 LINE",
"1358 0 LINE",
"1358 594 LINE",
"1122 594 LINE",
"1122 264 OFFCURVE",
"1080 180 OFFCURVE",
"926 180 CURVE SMOOTH",
"524 180 LINE",
"524 1008 LINE SMOOTH",
"524 1062 OFFCURVE",
"536 1080 OFFCURVE",
"578 1080 CURVE SMOOTH",
"760 1080 LINE",
"760 1260 LINE",
"44 1260 LINE",
"44 1080 LINE",
"196 1080 LINE SMOOTH",
"236 1080 OFFCURVE",
"248 1058 OFFCURVE",
"248 1008 CURVE SMOOTH",
"248 246 LINE SMOOTH",
"248 204 OFFCURVE",
"236 180 OFFCURVE",
"198 180 CURVE SMOOTH",
"44 180 LINE"
);
}
);
};
layerId = "4355E1B8-19E6-44BD-A1D7-6E3C2DECA4C8";
paths = (
{
closed = 1;
nodes = (
"44 0 LINE",
"1302 0 LINE",
"1302 594 LINE",
"1066 594 LINE",
"1066 264 OFFCURVE",
"1024 180 OFFCURVE",
"870 180 CURVE SMOOTH",
"524 180 LINE",
"524 1008 LINE SMOOTH",
"524 1062 OFFCURVE",
"536 1080 OFFCURVE",
"578 1080 CURVE SMOOTH",
"760 1080 LINE",
"760 1260 LINE",
"44 1260 LINE",
"44 1080 LINE",
"196 1080 LINE SMOOTH",
"236 1080 OFFCURVE",
"248 1058 OFFCURVE",
"248 1008 CURVE SMOOTH",
"248 246 LINE SMOOTH",
"248 204 OFFCURVE",
"236 180 OFFCURVE",
"198 180 CURVE SMOOTH",
"44 180 LINE"
);
}
);
width = 1342;
},
{
anchors = (
{
name = bottom;
position = "{685, 0}";
},
{
name = center;
position = "{465, 630}";
},
{
name = top;
position = "{685, 1260}";
},
{
name = topright;
position = "{1350, 1260}";
}
);
background = {
paths = (
{
closed = 1;
nodes = (
"34 0 LINE",
"1400 0 LINE",
"1400 604 LINE",
"980 604 LINE",
"980 334 OFFCURVE",
"936 304 OFFCURVE",
"844 304 CURVE SMOOTH",
"712 304 LINE",
"712 896 LINE SMOOTH",
"712 934 OFFCURVE",
"726 956 OFFCURVE",
"764 956 CURVE SMOOTH",
"932 956 LINE",
"932 1260 LINE",
"34 1260 LINE",
"34 956 LINE",
"160 956 LINE SMOOTH",
"200 956 OFFCURVE",
"212 934 OFFCURVE",
"212 884 CURVE SMOOTH",
"212 370 LINE SMOOTH",
"212 328 OFFCURVE",
"200 304 OFFCURVE",
"162 304 CURVE SMOOTH",
"34 304 LINE"
);
}
);
};
layerId = "14C77FDB-037D-4842-9381-6D9ED15DD48C";
paths = (
{
closed = 1;
nodes = (
"34 0 LINE",
"1340 0 LINE",
"1340 604 LINE",
"940 604 LINE",
"940 334 OFFCURVE",
"896 304 OFFCURVE",
"804 304 CURVE SMOOTH",
"712 304 LINE",
"712 896 LINE SMOOTH",
"712 934 OFFCURVE",
"726 956 OFFCURVE",
"764 956 CURVE SMOOTH",
"932 956 LINE",
"932 1260 LINE",
"34 1260 LINE",
"34 956 LINE",
"160 956 LINE SMOOTH",
"200 956 OFFCURVE",
"212 934 OFFCURVE",
"212 884 CURVE SMOOTH",
"212 370 LINE SMOOTH",
"212 328 OFFCURVE",
"200 304 OFFCURVE",
"162 304 CURVE SMOOTH",
"34 304 LINE"
);
}
);
width = 1370;
}
);
leftKerningGroup = H;
leftMetricsKey = H;
rightKerningGroup = L;
unicode = 004C;
},
{
color = 6;
glyphname = M;
layers = (
{
anchors = (
{
name = bottom;
position = "{560, 0}";
},
{
name = top;
position = "{560, 1260}";
}
);
background = {
paths = (
{
closed = 1;
nodes = (
"60 0 LINE",
"402 0 LINE",
"402 60 LINE",
"344 60 LINE SMOOTH",
"296 60 OFFCURVE",
"274 90 OFFCURVE",
"274 142 CURVE",
"274 1260 LINE",
"60 1260 LINE",
"60 1200 LINE",
"132 1200 LINE SMOOTH",
"184 1200 OFFCURVE",
"204 1170 OFFCURVE",
"204 1116 CURVE SMOOTH",
"204 142 LINE SMOOTH",
"204 90 OFFCURVE",
"182 60 OFFCURVE",
"134 60 CURVE SMOOTH",
"60 60 LINE"
);
},
{
closed = 1;
nodes = (
"690 0 LINE",
"1060 0 LINE",
"1060 60 LINE",
"988 60 LINE SMOOTH",
"940 60 OFFCURVE",
"918 90 OFFCURVE",
"918 142 CURVE SMOOTH",
"918 1116 LINE SMOOTH",
"918 1170 OFFCURVE",
"938 1200 OFFCURVE",
"990 1200 CURVE SMOOTH",
"1060 1200 LINE",
"1060 1260 LINE",
"834 1260 LINE",
"834 142 LINE",
"834 90 OFFCURVE",
"812 60 OFFCURVE",
"764 60 CURVE SMOOTH",
"690 60 LINE"
);
},
{
closed = 1;
nodes = (
"264 1260 LINE",
"272 1154 LINE",
"282 1154 LINE",
"480 0 LINE",
"600 0 LINE",
"826 1154 LINE",
"836 1154 LINE",
"850 1260 LINE",
"772 1260 LINE",
"554 128 LINE",
"544 128 LINE",
"354 1260 LINE"
);
}
);
};
guideLines = (
{
position = "{305, 612}";
}
);
layerId = "E9E6D55E-9446-45F2-B66C-3272698B0216";
paths = (
{
closed = 1;
nodes = (
"30 0 LINE",
"372 0 LINE",
"372 60 LINE",
"314 60 LINE SMOOTH",
"268 60 OFFCURVE",
"244 88 OFFCURVE",
"244 142 CURVE",
"244 1260 LINE",
"30 1260 LINE",
"30 1200 LINE",
"102 1200 LINE SMOOTH",
"152 1200 OFFCURVE",
"174 1174 OFFCURVE",
"174 1116 CURVE SMOOTH",
"174 142 LINE SMOOTH",
"174 88 OFFCURVE",
"150 60 OFFCURVE",
"104 60 CURVE SMOOTH",
"30 60 LINE"
);
},
{
closed = 1;
nodes = (
"720 0 LINE",
"1090 0 LINE",
"1090 60 LINE",
"1018 60 LINE SMOOTH",
"972 60 OFFCURVE",
"948 88 OFFCURVE",
"948 142 CURVE SMOOTH",
"948 1116 LINE SMOOTH",
"948 1174 OFFCURVE",
"970 1200 OFFCURVE",
"1020 1200 CURVE SMOOTH",
"1090 1200 LINE",
"1090 1260 LINE",
"864 1260 LINE",
"864 142 LINE",
"864 88 OFFCURVE",
"840 60 OFFCURVE",
"794 60 CURVE SMOOTH",
"720 60 LINE"
);
},
{
closed = 1;
nodes = (
"234 1260 LINE",
"242 1154 LINE",
"252 1154 LINE",
"486 0 LINE",
"594 0 LINE",
"856 1154 LINE",
"866 1154 LINE",
"880 1260 LINE",
"806 1260 LINE",
"554 128 LINE",
"544 128 LINE",
"320 1260 LINE"
);
}
);
width = 1120;
},
{
anchors = (
{
name = bottom;
position = "{722, 0}";
},
{
name = top;
position = "{722, 1260}";
}
);
background = {
paths = (
{
closed = 1;
nodes = (
"30 0 LINE",
"430 0 LINE",
"430 180 LINE",
"400 180 LINE SMOOTH",
"366 180 OFFCURVE",
"354 206 OFFCURVE",
"354 244 CURVE SMOOTH",
"354 1260 LINE",
"30 1260 LINE",
"30 1080 LINE",
"100 1080 LINE SMOOTH",
"142 1080 OFFCURVE",
"154 1054 OFFCURVE",
"154 1016 CURVE SMOOTH",
"154 244 LINE SMOOTH",
"154 206 OFFCURVE",
"142 180 OFFCURVE",
"100 180 CURVE SMOOTH",
"30 180 LINE"
);
},
{
closed = 1;
nodes = (
"1018 0 LINE",
"1514 0 LINE",
"1514 180 LINE",
"1424 180 LINE SMOOTH",
"1390 180 OFFCURVE",
"1378 206 OFFCURVE",
"1378 244 CURVE SMOOTH",
"1378 1016 LINE SMOOTH",
"1378 1054 OFFCURVE",
"1390 1080 OFFCURVE",
"1424 1080 CURVE SMOOTH",
"1514 1080 LINE",
"1514 1260 LINE",
"1102 1260 LINE",
"1102 244 LINE SMOOTH",
"1102 206 OFFCURVE",
"1090 180 OFFCURVE",
"1048 180 CURVE SMOOTH",
"1018 180 LINE"
);
},
{
closed = 1;
nodes = (
"316 1260 LINE",
"350 1016 LINE",
"362 1016 LINE",
"542 0 LINE",
"902 0 LINE",
"1094 1016 LINE",
"1104 1016 LINE",
"1142 1260 LINE",
"912 1260 LINE",
"762 252 LINE",
"754 252 LINE",
"596 1260 LINE"
);
}
);
};
guideLines = (
{
position = "{368, 543}";
}
);
layerId = "B25F85BC-C782-4067-8484-07202F80B8CD";
paths = (
{
closed = 1;
nodes = (
"30 0 LINE",
"410 0 LINE",
"410 180 LINE",
"380 180 LINE SMOOTH",
"346 180 OFFCURVE",
"334 206 OFFCURVE",
"334 244 CURVE SMOOTH",
"334 1260 LINE",
"30 1260 LINE",
"30 1080 LINE",
"80 1080 LINE SMOOTH",
"122 1080 OFFCURVE",
"134 1054 OFFCURVE",
"134 1016 CURVE SMOOTH",
"134 244 LINE SMOOTH",
"134 206 OFFCURVE",
"122 180 OFFCURVE",
"80 180 CURVE SMOOTH",
"30 180 LINE"
);
},
{
closed = 1;
nodes = (
"918 0 LINE",
"1414 0 LINE",
"1414 180 LINE",
"1324 180 LINE SMOOTH",
"1290 180 OFFCURVE",
"1278 206 OFFCURVE",
"1278 244 CURVE SMOOTH",
"1278 1016 LINE SMOOTH",
"1278 1054 OFFCURVE",
"1290 1080 OFFCURVE",
"1324 1080 CURVE SMOOTH",
"1414 1080 LINE",
"1414 1260 LINE",
"1002 1260 LINE",
"1002 244 LINE SMOOTH",
"1002 206 OFFCURVE",
"990 180 OFFCURVE",
"948 180 CURVE SMOOTH",
"918 180 LINE"
);
},
{
closed = 1;
nodes = (
"296 1260 LINE",
"330 1016 LINE",
"342 1016 LINE",
"512 0 LINE",
"832 0 LINE",
"994 1016 LINE",
"1004 1016 LINE",
"1042 1260 LINE",
"852 1260 LINE",
"702 252 LINE",
"694 252 LINE",
"536 1260 LINE"
);
}
);
width = 1444;
},
{
anchors = (
{
name = bottom;
position = "{678, 0}";
},
{
name = top;
position = "{678, 1260}";
}
);
background = {
paths = (
{
closed = 1;
nodes = (
"-70 0 LINE",
"336 0 LINE",
"336 216 LINE",
"322 216 LINE SMOOTH",
"304 216 OFFCURVE",
"296 222 OFFCURVE",
"296 242 CURVE SMOOTH",
"296 1260 LINE",
"-70 1260 LINE",
"-70 1044 LINE",
"-34 1044 LINE SMOOTH",
"4 1044 OFFCURVE",
"18 1022 OFFCURVE",
"18 980 CURVE SMOOTH",
"18 278 LINE SMOOTH",
"18 238 OFFCURVE",
"2 216 OFFCURVE",
"-32 216 CURVE SMOOTH",
"-70 216 LINE"
);
},
{
closed = 1;
nodes = (
"928 0 LINE",
"1416 0 LINE",
"1416 216 LINE",
"1378 216 LINE SMOOTH",
"1344 216 OFFCURVE",
"1328 238 OFFCURVE",
"1328 278 CURVE SMOOTH",
"1328 980 LINE SMOOTH",
"1328 1022 OFFCURVE",
"1342 1044 OFFCURVE",
"1380 1044 CURVE SMOOTH",
"1416 1044 LINE",
"1416 1260 LINE",
"968 1260 LINE",
"968 242 LINE SMOOTH",
"968 222 OFFCURVE",
"960 216 OFFCURVE",
"942 216 CURVE SMOOTH",
"928 216 LINE"
);
},
{
closed = 1;
nodes = (
"254 1260 LINE",
"294 964 LINE",
"304 964 LINE",
"440 0 LINE",
"816 0 LINE",
"960 964 LINE",
"970 964 LINE",
"1022 1260 LINE",
"766 1260 LINE",
"680 460 LINE",
"670 460 LINE",
"584 1260 LINE"
);
}
);
};
guideLines = (
{
position = "{322, 517}";
}
);
layerId = "B817C739-5D48-43E8-AAEE-CE891513D7BC";
paths = (
{
closed = 1;
nodes = (
"10 0 LINE",
"416 0 LINE",
"416 216 LINE",
"382 216 LINE SMOOTH",
"364 216 OFFCURVE",
"356 222 OFFCURVE",
"356 242 CURVE SMOOTH",
"356 1260 LINE",
"10 1260 LINE",
"10 1044 LINE",
"46 1044 LINE SMOOTH",
"84 1044 OFFCURVE",
"98 1022 OFFCURVE",
"98 980 CURVE SMOOTH",
"98 278 LINE SMOOTH",
"98 238 OFFCURVE",
"82 216 OFFCURVE",
"48 216 CURVE SMOOTH",
"10 216 LINE"
);
},
{
closed = 1;
nodes = (
"858 0 LINE",
"1346 0 LINE",
"1346 216 LINE",
"1308 216 LINE SMOOTH",
"1274 216 OFFCURVE",
"1258 238 OFFCURVE",
"1258 278 CURVE SMOOTH",
"1258 980 LINE SMOOTH",
"1258 1022 OFFCURVE",
"1272 1044 OFFCURVE",
"1310 1044 CURVE SMOOTH",
"1346 1044 LINE",
"1346 1260 LINE",
"918 1260 LINE",
"918 242 LINE SMOOTH",
"918 222 OFFCURVE",
"910 216 OFFCURVE",
"892 216 CURVE SMOOTH",
"858 216 LINE"
);
},
{
closed = 1;
nodes = (
"314 1260 LINE",
"354 964 LINE",
"364 964 LINE",
"490 0 LINE",
"776 0 LINE",
"910 964 LINE",
"920 964 LINE",
"972 1260 LINE",
"756 1260 LINE",
"680 500 LINE",
"670 500 LINE",
"594 1260 LINE"
);
}
);
width = 1356;
},
{
anchors = (
{
name = bottom;
position = "{909, 0}";
},
{
name = top;
position = "{909, 1260}";
}
);
background = {
paths = (
{
closed = 1;
nodes = (
"82 0 LINE",
"548 0 LINE",
"548 72 LINE",
"396 72 LINE SMOOTH",
"362 72 OFFCURVE",
"350 98 OFFCURVE",
"350 136 CURVE SMOOTH",
"350 1260 LINE",
"80 1260 LINE",
"80 1188 LINE",
"226 1188 LINE SMOOTH",
"268 1188 OFFCURVE",
"280 1162 OFFCURVE",
"280 1124 CURVE SMOOTH",
"280 136 LINE SMOOTH",
"280 98 OFFCURVE",
"268 72 OFFCURVE",
"226 72 CURVE SMOOTH",
"82 72 LINE"
);
},
{
closed = 1;
nodes = (
"1124 0 LINE",
"1616 0 LINE",
"1616 72 LINE",
"1464 72 LINE SMOOTH",
"1430 72 OFFCURVE",
"1418 98 OFFCURVE",
"1418 136 CURVE SMOOTH",
"1418 1124 LINE SMOOTH",
"1418 1162 OFFCURVE",
"1430 1188 OFFCURVE",
"1464 1188 CURVE SMOOTH",
"1618 1188 LINE",
"1618 1260 LINE",
"1322 1260 LINE",
"1322 136 LINE SMOOTH",
"1322 98 OFFCURVE",
"1310 72 OFFCURVE",
"1268 72 CURVE SMOOTH",
"1124 72 LINE"
);
},
{
closed = 1;
nodes = (
"304 1260 LINE",
"348 1116 LINE",
"358 1116 LINE",
"768 0 LINE",
"896 0 LINE",
"1314 1116 LINE",
"1324 1116 LINE",
"1378 1260 LINE",
"1290 1260 LINE",
"846 94 LINE",
"838 94 LINE",
"414 1260 LINE"
);
}
);
};
guideLines = (
{
position = "{405, 593}";
}
);
layerId = UUID0;
paths = (
{
closed = 1;
nodes = (
"22 0 LINE",
"528 0 LINE",
"528 72 LINE",
"356 72 LINE SMOOTH",
"322 72 OFFCURVE",
"310 98 OFFCURVE",
"310 136 CURVE SMOOTH",
"310 1260 LINE",
"20 1260 LINE",
"20 1188 LINE",
"186 1188 LINE SMOOTH",
"228 1188 OFFCURVE",
"240 1162 OFFCURVE",
"240 1124 CURVE SMOOTH",
"240 136 LINE SMOOTH",
"240 98 OFFCURVE",
"228 72 OFFCURVE",
"186 72 CURVE SMOOTH",
"22 72 LINE"
);
},
{
closed = 1;
nodes = (
"1264 0 LINE",
"1796 0 LINE",
"1796 72 LINE",
"1624 72 LINE SMOOTH",
"1590 72 OFFCURVE",
"1578 98 OFFCURVE",
"1578 136 CURVE SMOOTH",
"1578 1124 LINE SMOOTH",
"1578 1162 OFFCURVE",
"1590 1188 OFFCURVE",
"1624 1188 CURVE SMOOTH",
"1798 1188 LINE",
"1798 1260 LINE",
"1482 1260 LINE",
"1482 136 LINE SMOOTH",
"1482 98 OFFCURVE",
"1470 72 OFFCURVE",
"1428 72 CURVE SMOOTH",
"1264 72 LINE"
);
},
{
closed = 1;
nodes = (
"264 1260 LINE",
"308 1116 LINE",
"318 1116 LINE",
"838 0 LINE",
"946 0 LINE",
"1474 1116 LINE",
"1484 1116 LINE",
"1538 1260 LINE",
"1456 1260 LINE",
"906 94 LINE",
"898 94 LINE",
"364 1260 LINE"
);
}
);
width = 1818;
},
{
anchors = (
{
name = bottom;
position = "{1034, 0}";
},
{
name = top;
position = "{1034, 1260}";
}
);
guideLines = (
{
position = "{526, 536}";
}
);
layerId = "4355E1B8-19E6-44BD-A1D7-6E3C2DECA4C8";
paths = (
{
closed = 1;
nodes = (
"44 0 LINE",
"644 0 LINE",
"644 180 LINE",
"494 180 LINE SMOOTH",
"460 180 OFFCURVE",
"448 206 OFFCURVE",
"448 244 CURVE SMOOTH",
"448 1260 LINE",
"44 1260 LINE",
"44 1080 LINE",
"194 1080 LINE SMOOTH",
"236 1080 OFFCURVE",
"248 1054 OFFCURVE",
"248 1016 CURVE SMOOTH",
"248 244 LINE SMOOTH",
"248 206 OFFCURVE",
"236 180 OFFCURVE",
"194 180 CURVE SMOOTH",
"44 180 LINE"
);
},
{
closed = 1;
nodes = (
"1348 0 LINE",
"2024 0 LINE",
"2024 180 LINE",
"1874 180 LINE SMOOTH",
"1840 180 OFFCURVE",
"1828 206 OFFCURVE",
"1828 244 CURVE SMOOTH",
"1828 1016 LINE SMOOTH",
"1828 1054 OFFCURVE",
"1840 1080 OFFCURVE",
"1874 1080 CURVE SMOOTH",
"2024 1080 LINE",
"2024 1260 LINE",
"1552 1260 LINE",
"1552 244 LINE SMOOTH",
"1552 206 OFFCURVE",
"1540 180 OFFCURVE",
"1498 180 CURVE SMOOTH",
"1348 180 LINE"
);
},
{
closed = 1;
nodes = (
"344 1260 LINE",
"446 1002 LINE",
"456 1002 LINE",
"836 0 LINE",
"1156 0 LINE",
"1544 1002 LINE",
"1556 1002 LINE",
"1666 1260 LINE",
"1442 1260 LINE",
"1044 242 LINE",
"1034 242 LINE",
"656 1260 LINE"
);
}
);
width = 2068;
},
{
anchors = (
{
name = bottom;
position = "{1072, 0}";
},
{
name = top;
position = "{1072, 1260}";
}
);
background = {
paths = (
{
closed = 1;
nodes = (
"-30 0 LINE",
"548 0 LINE",
"548 304 LINE",
"514 304 LINE SMOOTH",
"480 304 OFFCURVE",
"468 330 OFFCURVE",
"468 368 CURVE SMOOTH",
"468 1260 LINE",
"-30 1260 LINE",
"-30 956 LINE",
"94 956 LINE SMOOTH",
"136 956 OFFCURVE",
"148 930 OFFCURVE",
"148 892 CURVE SMOOTH",
"148 368 LINE SMOOTH",
"148 330 OFFCURVE",
"136 304 OFFCURVE",
"94 304 CURVE SMOOTH",
"-30 304 LINE"
);
},
{
closed = 1;
nodes = (
"1416 0 LINE",
"2174 0 LINE",
"2174 304 LINE",
"2050 304 LINE SMOOTH",
"2008 304 OFFCURVE",
"1996 330 OFFCURVE",
"1996 368 CURVE SMOOTH",
"1996 892 LINE SMOOTH",
"1996 930 OFFCURVE",
"2008 956 OFFCURVE",
"2050 956 CURVE SMOOTH",
"2174 956 LINE",
"2174 1260 LINE",
"1496 1260 LINE",
"1496 368 LINE",
"1496 330 OFFCURVE",
"1484 304 OFFCURVE",
"1450 304 CURVE SMOOTH",
"1416 304 LINE"
);
},
{
closed = 1;
nodes = (
"392 1260 LINE",
"466 910 LINE",
"476 910 LINE",
"704 0 LINE",
"1236 0 LINE",
"1488 910 LINE",
"1498 910 LINE",
"1576 1260 LINE",
"1246 1260 LINE",
"1036 372 LINE",
"1028 372 LINE",
"854 1260 LINE"
);
}
);
};
layerId = "14C77FDB-037D-4842-9381-6D9ED15DD48C";
paths = (
{
closed = 1;
nodes = (
"30 0 LINE",
"608 0 LINE",
"608 304 LINE",
"574 304 LINE SMOOTH",
"540 304 OFFCURVE",
"528 330 OFFCURVE",
"528 368 CURVE SMOOTH",
"528 1260 LINE",
"30 1260 LINE",
"30 956 LINE",
"154 956 LINE SMOOTH",
"196 956 OFFCURVE",
"208 930 OFFCURVE",
"208 892 CURVE SMOOTH",
"208 368 LINE SMOOTH",
"208 330 OFFCURVE",
"196 304 OFFCURVE",
"154 304 CURVE SMOOTH",
"30 304 LINE"
);
},
{
closed = 1;
nodes = (
"1356 0 LINE",
"2114 0 LINE",
"2114 304 LINE",
"1990 304 LINE SMOOTH",
"1948 304 OFFCURVE",
"1936 330 OFFCURVE",
"1936 368 CURVE SMOOTH",
"1936 892 LINE SMOOTH",
"1936 930 OFFCURVE",
"1948 956 OFFCURVE",
"1990 956 CURVE SMOOTH",
"2114 956 LINE",
"2114 1260 LINE",
"1436 1260 LINE",
"1436 368 LINE SMOOTH",
"1436 330 OFFCURVE",
"1424 304 OFFCURVE",
"1390 304 CURVE SMOOTH",
"1356 304 LINE"
);
},
{
closed = 1;
nodes = (
"452 1260 LINE",
"526 950 LINE",
"536 950 LINE",
"724 0 LINE",
"1236 0 LINE",
"1428 950 LINE",
"1438 950 LINE",
"1516 1260 LINE",
"1186 1260 LINE",
"1036 412 LINE",
"1028 412 LINE",
"914 1260 LINE"
);
}
);
width = 2144;
}
);
leftKerningGroup = H;
rightKerningGroup = H;
unicode = 004D;
},
{
color = 6;
glyphname = N;
layers = (
{
anchors = (
{
name = bottom;
position = "{482, 0}";
},
{
name = top;
position = "{482, 1260}";
}
);
background = {
paths = (
{
closed = 1;
nodes = (
"26 0 LINE",
"386 0 LINE",
"386 60 LINE",
"312 60 LINE SMOOTH",
"264 60 OFFCURVE",
"242 90 OFFCURVE",
"242 142 CURVE SMOOTH",
"242 1136 LINE",
"250 1136 LINE",
"736 0 LINE",
"806 0 LINE",
"806 1116 LINE SMOOTH",
"806 1170 OFFCURVE",
"826 1200 OFFCURVE",
"878 1200 CURVE SMOOTH",
"948 1200 LINE",
"948 1260 LINE",
"590 1260 LINE",
"590 1200 LINE",
"662 1200 LINE SMOOTH",
"714 1200 OFFCURVE",
"734 1170 OFFCURVE",
"734 1116 CURVE SMOOTH",
"734 256 LINE",
"726 256 LINE",
"298 1260 LINE",
"26 1260 LINE",
"26 1200 LINE",
"98 1200 LINE SMOOTH",
"150 1200 OFFCURVE",
"170 1170 OFFCURVE",
"170 1116 CURVE SMOOTH",
"170 142 LINE SMOOTH",
"170 90 OFFCURVE",
"148 60 OFFCURVE",
"100 60 CURVE SMOOTH",
"26 60 LINE"
);
}
);
};
layerId = "E9E6D55E-9446-45F2-B66C-3272698B0216";
paths = (
{
closed = 1;
nodes = (
"26 0 LINE",
"386 0 LINE",
"386 60 LINE",
"312 60 LINE SMOOTH",
"264 60 OFFCURVE",
"242 90 OFFCURVE",
"242 142 CURVE SMOOTH",
"242 1136 LINE",
"250 1136 LINE",
"726 0 LINE",
"796 0 LINE",
"796 1116 LINE SMOOTH",
"796 1170 OFFCURVE",
"816 1200 OFFCURVE",
"868 1200 CURVE SMOOTH",
"938 1200 LINE",
"938 1260 LINE",
"580 1260 LINE",
"580 1200 LINE",
"652 1200 LINE SMOOTH",
"704 1200 OFFCURVE",
"724 1170 OFFCURVE",
"724 1116 CURVE SMOOTH",
"724 256 LINE",
"716 256 LINE",
"298 1260 LINE",
"26 1260 LINE",
"26 1200 LINE",
"98 1200 LINE SMOOTH",
"150 1200 OFFCURVE",
"170 1170 OFFCURVE",
"170 1116 CURVE SMOOTH",
"170 142 LINE SMOOTH",
"170 90 OFFCURVE",
"148 60 OFFCURVE",
"100 60 CURVE SMOOTH",
"26 60 LINE"
);
}
);
width = 964;
},
{
anchors = (
{
name = bottom;
position = "{564, 0}";
},
{
name = top;
position = "{564, 1260}";
}
);
background = {
paths = (
{
closed = 1;
nodes = (
"30 0 LINE",
"476 0 LINE",
"476 180 LINE",
"446 180 LINE SMOOTH",
"412 180 OFFCURVE",
"400 206 OFFCURVE",
"400 244 CURVE SMOOTH",
"400 804 LINE",
"408 804 LINE",
"598 0 LINE",
"962 0 LINE",
"962 1016 LINE SMOOTH",
"962 1054 OFFCURVE",
"974 1080 OFFCURVE",
"1016 1080 CURVE SMOOTH",
"1098 1080 LINE",
"1098 1260 LINE",
"612 1260 LINE",
"612 1080 LINE",
"670 1080 LINE SMOOTH",
"704 1080 OFFCURVE",
"716 1054 OFFCURVE",
"716 1016 CURVE SMOOTH",
"716 436 LINE",
"708 436 LINE",
"518 1260 LINE",
"30 1260 LINE",
"30 1080 LINE",
"100 1080 LINE SMOOTH",
"142 1080 OFFCURVE",
"154 1054 OFFCURVE",
"154 1016 CURVE SMOOTH",
"154 244 LINE SMOOTH",
"154 206 OFFCURVE",
"142 180 OFFCURVE",
"100 180 CURVE SMOOTH",
"30 180 LINE"
);
}
);
};
layerId = "B25F85BC-C782-4067-8484-07202F80B8CD";
paths = (
{
closed = 1;
nodes = (
"30 0 LINE",
"466 0 LINE",
"466 180 LINE",
"436 180 LINE SMOOTH",
"402 180 OFFCURVE",
"390 206 OFFCURVE",
"390 244 CURVE SMOOTH",
"390 864 LINE",
"398 864 LINE",
"618 0 LINE",
"962 0 LINE",
"962 1016 LINE SMOOTH",
"962 1054 OFFCURVE",
"974 1080 OFFCURVE",
"1016 1080 CURVE SMOOTH",
"1098 1080 LINE",
"1098 1260 LINE",
"622 1260 LINE",
"622 1080 LINE",
"680 1080 LINE SMOOTH",
"714 1080 OFFCURVE",
"726 1054 OFFCURVE",
"726 1016 CURVE SMOOTH",
"726 376 LINE",
"718 376 LINE",
"498 1260 LINE",
"30 1260 LINE",
"30 1080 LINE",
"100 1080 LINE SMOOTH",
"142 1080 OFFCURVE",
"154 1054 OFFCURVE",
"154 1016 CURVE SMOOTH",
"154 244 LINE SMOOTH",
"154 206 OFFCURVE",
"142 180 OFFCURVE",
"100 180 CURVE SMOOTH",
"30 180 LINE"
);
}
);
width = 1128;
},
{
anchors = (
{
name = bottom;
position = "{516, 0}";
},
{
name = top;
position = "{516, 1260}";
}
);
background = {
paths = (
{
closed = 1;
nodes = (
"14 0 LINE",
"522 0 LINE",
"522 216 LINE",
"468 216 LINE SMOOTH",
"450 216 OFFCURVE",
"442 222 OFFCURVE",
"442 242 CURVE SMOOTH",
"442 560 LINE",
"450 560 LINE",
"652 0 LINE",
"930 0 LINE",
"930 980 LINE SMOOTH",
"930 1022 OFFCURVE",
"944 1044 OFFCURVE",
"982 1044 CURVE SMOOTH",
"1018 1044 LINE",
"1018 1260 LINE",
"510 1260 LINE",
"510 1044 LINE",
"564 1044 LINE SMOOTH",
"584 1044 OFFCURVE",
"590 1034 OFFCURVE",
"590 1018 CURVE SMOOTH",
"590 700 LINE",
"582 700 LINE",
"392 1260 LINE",
"14 1260 LINE",
"14 1044 LINE",
"50 1044 LINE SMOOTH",
"88 1044 OFFCURVE",
"102 1022 OFFCURVE",
"102 980 CURVE SMOOTH",
"102 278 LINE SMOOTH",
"102 238 OFFCURVE",
"86 216 OFFCURVE",
"52 216 CURVE SMOOTH",
"14 216 LINE"
);
}
);
};
layerId = "B817C739-5D48-43E8-AAEE-CE891513D7BC";
paths = (
{
closed = 1;
nodes = (
"14 0 LINE",
"502 0 LINE",
"502 216 LINE",
"448 216 LINE SMOOTH",
"430 216 OFFCURVE",
"422 222 OFFCURVE",
"422 242 CURVE SMOOTH",
"422 600 LINE",
"430 600 LINE",
"632 0 LINE",
"930 0 LINE",
"930 980 LINE SMOOTH",
"930 1022 OFFCURVE",
"944 1044 OFFCURVE",
"982 1044 CURVE SMOOTH",
"1018 1044 LINE",
"1018 1260 LINE",
"530 1260 LINE",
"530 1044 LINE",
"584 1044 LINE SMOOTH",
"604 1044 OFFCURVE",
"610 1034 OFFCURVE",
"610 1018 CURVE SMOOTH",
"610 660 LINE",
"602 660 LINE",
"412 1260 LINE",
"14 1260 LINE",
"14 1044 LINE",
"50 1044 LINE SMOOTH",
"88 1044 OFFCURVE",
"102 1022 OFFCURVE",
"102 980 CURVE SMOOTH",
"102 278 LINE SMOOTH",
"102 238 OFFCURVE",
"86 216 OFFCURVE",
"52 216 CURVE SMOOTH",
"14 216 LINE"
);
}
);
width = 1032;
},
{
anchors = (
{
name = bottom;
position = "{792, 0}";
},
{
name = top;
position = "{792, 1260}";
}
);
background = {
paths = (
{
closed = 1;
nodes = (
"42 0 LINE",
"574 0 LINE",
"574 72 LINE",
"402 72 LINE SMOOTH",
"368 72 OFFCURVE",
"356 98 OFFCURVE",
"356 136 CURVE SMOOTH",
"356 1082 LINE",
"364 1082 LINE",
"1248 0 LINE",
"1344 0 LINE",
"1344 1124 LINE SMOOTH",
"1344 1162 OFFCURVE",
"1356 1188 OFFCURVE",
"1390 1188 CURVE SMOOTH",
"1564 1188 LINE",
"1564 1260 LINE",
"1028 1260 LINE",
"1028 1188 LINE",
"1194 1188 LINE SMOOTH",
"1236 1188 OFFCURVE",
"1248 1162 OFFCURVE",
"1248 1124 CURVE SMOOTH",
"1248 170 LINE",
"1240 170 LINE",
"356 1260 LINE",
"40 1260 LINE",
"40 1188 LINE",
"206 1188 LINE SMOOTH",
"248 1188 OFFCURVE",
"260 1162 OFFCURVE",
"260 1124 CURVE SMOOTH",
"260 136 LINE SMOOTH",
"260 98 OFFCURVE",
"248 72 OFFCURVE",
"206 72 CURVE SMOOTH",
"42 72 LINE"
);
}
);
};
layerId = UUID0;
paths = (
{
closed = 1;
nodes = (
"42 0 LINE",
"566 0 LINE",
"566 72 LINE",
"394 72 LINE SMOOTH",
"360 72 OFFCURVE",
"348 98 OFFCURVE",
"348 136 CURVE SMOOTH",
"348 1082 LINE",
"356 1082 LINE",
"1236 0 LINE",
"1324 0 LINE",
"1324 1124 LINE SMOOTH",
"1324 1162 OFFCURVE",
"1336 1188 OFFCURVE",
"1370 1188 CURVE SMOOTH",
"1544 1188 LINE",
"1544 1260 LINE",
"1016 1260 LINE",
"1016 1188 LINE",
"1182 1188 LINE SMOOTH",
"1224 1188 OFFCURVE",
"1236 1162 OFFCURVE",
"1236 1124 CURVE SMOOTH",
"1236 170 LINE",
"1228 170 LINE",
"348 1260 LINE",
"40 1260 LINE",
"40 1188 LINE",
"206 1188 LINE SMOOTH",
"248 1188 OFFCURVE",
"260 1162 OFFCURVE",
"260 1124 CURVE SMOOTH",
"260 136 LINE SMOOTH",
"260 98 OFFCURVE",
"248 72 OFFCURVE",
"206 72 CURVE SMOOTH",
"42 72 LINE"
);
}
);
width = 1584;
},
{
anchors = (
{
name = bottom;
position = "{852, 0}";
},
{
name = top;
position = "{852, 1260}";
}
);
background = {
paths = (
{
closed = 1;
nodes = (
"44 0 LINE",
"720 0 LINE",
"720 180 LINE",
"570 180 LINE SMOOTH",
"536 180 OFFCURVE",
"524 206 OFFCURVE",
"524 244 CURVE SMOOTH",
"524 794 LINE",
"532 794 LINE",
"1280 0 LINE",
"1504 0 LINE",
"1504 1016 LINE SMOOTH",
"1504 1054 OFFCURVE",
"1516 1080 OFFCURVE",
"1558 1080 CURVE SMOOTH",
"1700 1080 LINE",
"1700 1260 LINE",
"1024 1260 LINE",
"1024 1080 LINE",
"1182 1080 LINE SMOOTH",
"1216 1080 OFFCURVE",
"1228 1054 OFFCURVE",
"1228 1016 CURVE SMOOTH",
"1228 496 LINE",
"1220 496 LINE",
"492 1260 LINE",
"44 1260 LINE",
"44 1080 LINE",
"194 1080 LINE SMOOTH",
"236 1080 OFFCURVE",
"248 1054 OFFCURVE",
"248 1016 CURVE SMOOTH",
"248 244 LINE SMOOTH",
"248 206 OFFCURVE",
"236 180 OFFCURVE",
"194 180 CURVE SMOOTH",
"44 180 LINE"
);
}
);
};
layerId = "4355E1B8-19E6-44BD-A1D7-6E3C2DECA4C8";
paths = (
{
closed = 1;
nodes = (
"44 0 LINE",
"700 0 LINE",
"700 180 LINE",
"550 180 LINE SMOOTH",
"516 180 OFFCURVE",
"504 206 OFFCURVE",
"504 244 CURVE SMOOTH",
"504 824 LINE",
"512 824 LINE",
"1260 0 LINE",
"1464 0 LINE",
"1464 1016 LINE SMOOTH",
"1464 1054 OFFCURVE",
"1476 1080 OFFCURVE",
"1518 1080 CURVE SMOOTH",
"1660 1080 LINE",
"1660 1260 LINE",
"1004 1260 LINE",
"1004 1080 LINE",
"1162 1080 LINE SMOOTH",
"1196 1080 OFFCURVE",
"1208 1054 OFFCURVE",
"1208 1016 CURVE SMOOTH",
"1208 466 LINE",
"1200 466 LINE",
"472 1260 LINE",
"44 1260 LINE",
"44 1080 LINE",
"194 1080 LINE SMOOTH",
"236 1080 OFFCURVE",
"248 1054 OFFCURVE",
"248 1016 CURVE SMOOTH",
"248 244 LINE SMOOTH",
"248 206 OFFCURVE",
"236 180 OFFCURVE",
"194 180 CURVE SMOOTH",
"44 180 LINE"
);
}
);
width = 1704;
},
{
anchors = (
{
name = bottom;
position = "{876, 0}";
},
{
name = top;
position = "{876, 1260}";
}
);
background = {
paths = (
{
closed = 1;
nodes = (
"34 0 LINE",
"852 0 LINE",
"852 304 LINE",
"758 304 LINE SMOOTH",
"724 304 OFFCURVE",
"712 330 OFFCURVE",
"712 368 CURVE SMOOTH",
"712 530 LINE",
"720 530 LINE",
"1180 0 LINE",
"1580 0 LINE",
"1580 892 LINE SMOOTH",
"1580 930 OFFCURVE",
"1592 956 OFFCURVE",
"1634 956 CURVE SMOOTH",
"1758 956 LINE",
"1758 1260 LINE",
"940 1260 LINE",
"940 956 LINE",
"1034 956 LINE SMOOTH",
"1068 956 OFFCURVE",
"1080 930 OFFCURVE",
"1080 892 CURVE SMOOTH",
"1080 722 LINE",
"1072 722 LINE",
"612 1260 LINE",
"34 1260 LINE",
"34 956 LINE",
"158 956 LINE SMOOTH",
"200 956 OFFCURVE",
"212 930 OFFCURVE",
"212 892 CURVE SMOOTH",
"212 368 LINE SMOOTH",
"212 330 OFFCURVE",
"200 304 OFFCURVE",
"158 304 CURVE SMOOTH",
"34 304 LINE"
);
}
);
};
layerId = "14C77FDB-037D-4842-9381-6D9ED15DD48C";
paths = (
{
closed = 1;
nodes = (
"34 0 LINE",
"832 0 LINE",
"832 304 LINE",
"738 304 LINE SMOOTH",
"704 304 OFFCURVE",
"692 330 OFFCURVE",
"692 368 CURVE SMOOTH",
"692 570 LINE",
"700 570 LINE",
"1140 0 LINE",
"1540 0 LINE",
"1540 892 LINE SMOOTH",
"1540 930 OFFCURVE",
"1552 956 OFFCURVE",
"1594 956 CURVE SMOOTH",
"1718 956 LINE",
"1718 1260 LINE",
"920 1260 LINE",
"920 956 LINE",
"1014 956 LINE SMOOTH",
"1048 956 OFFCURVE",
"1060 930 OFFCURVE",
"1060 892 CURVE SMOOTH",
"1060 682 LINE",
"1052 682 LINE",
"592 1260 LINE",
"34 1260 LINE",
"34 956 LINE",
"158 956 LINE SMOOTH",
"200 956 OFFCURVE",
"212 930 OFFCURVE",
"212 892 CURVE SMOOTH",
"212 368 LINE SMOOTH",
"212 330 OFFCURVE",
"200 304 OFFCURVE",
"158 304 CURVE SMOOTH",
"34 304 LINE"
);
}
);
width = 1752;
}
);
leftKerningGroup = H;
leftMetricsKey = H;
rightKerningGroup = N;
unicode = 004E;
},
{
color = 6;
glyphname = Eng;
layers = (
{
layerId = "E9E6D55E-9446-45F2-B66C-3272698B0216";
paths = (
{
closed = 1;
nodes = (
"26 0 LINE",
"386 0 LINE",
"386 60 LINE",
"312 60 LINE SMOOTH",
"264 60 OFFCURVE",
"242 90 OFFCURVE",
"242 142 CURVE SMOOTH",
"242 1136 LINE",
"250 1136 LINE",
"736 0 LINE",
"806 0 LINE",
"806 1116 LINE SMOOTH",
"806 1170 OFFCURVE",
"826 1200 OFFCURVE",
"878 1200 CURVE SMOOTH",
"948 1200 LINE",
"948 1260 LINE",
"590 1260 LINE",
"590 1200 LINE",
"662 1200 LINE SMOOTH",
"714 1200 OFFCURVE",
"734 1170 OFFCURVE",
"734 1116 CURVE SMOOTH",
"734 256 LINE",
"726 256 LINE",
"298 1260 LINE",
"26 1260 LINE",
"26 1200 LINE",
"98 1200 LINE SMOOTH",
"150 1200 OFFCURVE",
"170 1170 OFFCURVE",
"170 1116 CURVE SMOOTH",
"170 142 LINE SMOOTH",
"170 90 OFFCURVE",
"148 60 OFFCURVE",
"100 60 CURVE SMOOTH",
"26 60 LINE"
);
},
{
closed = 1;
nodes = (
"728 -452 OFFCURVE",
"806 -372 OFFCURVE",
"806 -180 CURVE SMOOTH",
"806 900 LINE",
"734 900 LINE",
"734 -182 LINE SMOOTH",
"734 -330 OFFCURVE",
"684 -390 OFFCURVE",
"612 -390 CURVE SMOOTH",
"552 -390 OFFCURVE",
"516 -350 OFFCURVE",
"516 -302 CURVE SMOOTH",
"516 -252 OFFCURVE",
"558 -252 OFFCURVE",
"558 -204 CURVE SMOOTH",
"558 -168 OFFCURVE",
"536 -142 OFFCURVE",
"498 -142 CURVE SMOOTH",
"450 -142 OFFCURVE",
"424 -182 OFFCURVE",
"424 -252 CURVE SMOOTH",
"424 -370 OFFCURVE",
"496 -452 OFFCURVE",
"612 -452 CURVE SMOOTH"
);
}
);
width = 974;
},
{
layerId = "B25F85BC-C782-4067-8484-07202F80B8CD";
paths = (
{
closed = 1;
nodes = (
"30 0 LINE",
"476 0 LINE",
"476 180 LINE",
"446 180 LINE SMOOTH",
"412 180 OFFCURVE",
"400 206 OFFCURVE",
"400 244 CURVE SMOOTH",
"400 744 LINE",
"408 744 LINE",
"718 0 LINE",
"962 0 LINE",
"962 1016 LINE SMOOTH",
"962 1054 OFFCURVE",
"974 1080 OFFCURVE",
"1016 1080 CURVE SMOOTH",
"1098 1080 LINE",
"1098 1260 LINE",
"612 1260 LINE",
"612 1080 LINE",
"670 1080 LINE SMOOTH",
"704 1080 OFFCURVE",
"716 1054 OFFCURVE",
"716 1016 CURVE SMOOTH",
"716 616 LINE",
"708 616 LINE",
"458 1260 LINE",
"30 1260 LINE",
"30 1080 LINE",
"100 1080 LINE SMOOTH",
"142 1080 OFFCURVE",
"154 1054 OFFCURVE",
"154 1016 CURVE SMOOTH",
"154 244 LINE SMOOTH",
"154 206 OFFCURVE",
"142 180 OFFCURVE",
"100 180 CURVE SMOOTH",
"30 180 LINE"
);
},
{
closed = 1;
nodes = (
"862 -452 OFFCURVE",
"962 -330 OFFCURVE",
"962 -102 CURVE SMOOTH",
"962 900 LINE",
"716 900 LINE",
"716 -152 LINE SMOOTH",
"716 -248 OFFCURVE",
"690 -300 OFFCURVE",
"644 -300 CURVE SMOOTH",
"616 -300 OFFCURVE",
"598 -282 OFFCURVE",
"598 -258 CURVE SMOOTH",
"598 -226 OFFCURVE",
"628 -208 OFFCURVE",
"628 -162 CURVE SMOOTH",
"628 -106 OFFCURVE",
"582 -68 OFFCURVE",
"514 -68 CURVE SMOOTH",
"430 -68 OFFCURVE",
"378 -128 OFFCURVE",
"378 -228 CURVE SMOOTH",
"378 -368 OFFCURVE",
"480 -452 OFFCURVE",
"654 -452 CURVE SMOOTH"
);
}
);
width = 1128;
},
{
layerId = "B817C739-5D48-43E8-AAEE-CE891513D7BC";
paths = (
{
closed = 1;
nodes = (
"14 0 LINE",
"522 0 LINE",
"522 216 LINE",
"468 216 LINE SMOOTH",
"450 216 OFFCURVE",
"442 222 OFFCURVE",
"442 242 CURVE SMOOTH",
"442 560 LINE",
"450 560 LINE",
"652 0 LINE",
"930 0 LINE",
"930 980 LINE SMOOTH",
"930 1022 OFFCURVE",
"944 1044 OFFCURVE",
"982 1044 CURVE SMOOTH",
"1018 1044 LINE",
"1018 1260 LINE",
"510 1260 LINE",
"510 1044 LINE",
"564 1044 LINE SMOOTH",
"584 1044 OFFCURVE",
"590 1034 OFFCURVE",
"590 1018 CURVE SMOOTH",
"590 700 LINE",
"582 700 LINE",
"392 1260 LINE",
"14 1260 LINE",
"14 1044 LINE",
"50 1044 LINE SMOOTH",
"88 1044 OFFCURVE",
"102 1022 OFFCURVE",
"102 980 CURVE SMOOTH",
"102 278 LINE SMOOTH",
"102 238 OFFCURVE",
"86 216 OFFCURVE",
"52 216 CURVE SMOOTH",
"14 216 LINE"
);
},
{
closed = 1;
nodes = (
"826 -452 OFFCURVE",
"930 -332 OFFCURVE",
"930 -102 CURVE SMOOTH",
"930 932 LINE",
"612 932 LINE",
"612 -192 LINE SMOOTH",
"612 -252 OFFCURVE",
"594 -280 OFFCURVE",
"558 -280 CURVE SMOOTH",
"532 -280 OFFCURVE",
"514 -266 OFFCURVE",
"514 -242 CURVE SMOOTH",
"514 -212 OFFCURVE",
"544 -208 OFFCURVE",
"544 -162 CURVE SMOOTH",
"544 -98 OFFCURVE",
"498 -58 OFFCURVE",
"390 -58 CURVE SMOOTH",
"272 -58 OFFCURVE",
"210 -124 OFFCURVE",
"210 -226 CURVE SMOOTH",
"210 -366 OFFCURVE",
"344 -452 OFFCURVE",
"564 -452 CURVE SMOOTH"
);
}
);
width = 1032;
},
{
layerId = UUID0;
paths = (
{
closed = 1;
nodes = (
"62 0 LINE",
"554 0 LINE",
"554 72 LINE",
"402 72 LINE SMOOTH",
"368 72 OFFCURVE",
"356 98 OFFCURVE",
"356 136 CURVE SMOOTH",
"356 1082 LINE",
"364 1082 LINE",
"1248 0 LINE",
"1344 0 LINE",
"1344 1124 LINE SMOOTH",
"1344 1162 OFFCURVE",
"1356 1188 OFFCURVE",
"1390 1188 CURVE SMOOTH",
"1544 1188 LINE",
"1544 1260 LINE",
"1048 1260 LINE",
"1048 1188 LINE",
"1194 1188 LINE SMOOTH",
"1236 1188 OFFCURVE",
"1248 1162 OFFCURVE",
"1248 1124 CURVE SMOOTH",
"1248 170 LINE",
"1240 170 LINE",
"356 1260 LINE",
"60 1260 LINE",
"60 1188 LINE",
"206 1188 LINE SMOOTH",
"248 1188 OFFCURVE",
"260 1162 OFFCURVE",
"260 1124 CURVE SMOOTH",
"260 136 LINE SMOOTH",
"260 98 OFFCURVE",
"248 72 OFFCURVE",
"206 72 CURVE SMOOTH",
"62 72 LINE"
);
},
{
closed = 1;
nodes = (
"1222 -452 OFFCURVE",
"1344 -318 OFFCURVE",
"1344 -62 CURVE SMOOTH",
"1344 900 LINE",
"1248 900 LINE",
"1248 -62 LINE SMOOTH",
"1248 -282 OFFCURVE",
"1170 -390 OFFCURVE",
"1012 -390 CURVE SMOOTH",
"916 -390 OFFCURVE",
"850 -348 OFFCURVE",
"850 -284 CURVE SMOOTH",
"850 -232 OFFCURVE",
"898 -228 OFFCURVE",
"898 -176 CURVE SMOOTH",
"898 -138 OFFCURVE",
"870 -110 OFFCURVE",
"834 -110 CURVE SMOOTH",
"788 -110 OFFCURVE",
"758 -156 OFFCURVE",
"758 -230 CURVE SMOOTH",
"758 -368 OFFCURVE",
"856 -452 OFFCURVE",
"1018 -452 CURVE SMOOTH"
);
}
);
width = 1604;
},
{
layerId = "4355E1B8-19E6-44BD-A1D7-6E3C2DECA4C8";
paths = (
{
closed = 1;
nodes = (
"44 0 LINE",
"720 0 LINE",
"720 180 LINE",
"570 180 LINE SMOOTH",
"536 180 OFFCURVE",
"524 206 OFFCURVE",
"524 244 CURVE SMOOTH",
"524 794 LINE",
"532 794 LINE",
"1280 0 LINE",
"1504 0 LINE",
"1504 1016 LINE SMOOTH",
"1504 1054 OFFCURVE",
"1516 1080 OFFCURVE",
"1558 1080 CURVE SMOOTH",
"1700 1080 LINE",
"1700 1260 LINE",
"1024 1260 LINE",
"1024 1080 LINE",
"1182 1080 LINE SMOOTH",
"1216 1080 OFFCURVE",
"1228 1054 OFFCURVE",
"1228 1016 CURVE SMOOTH",
"1228 496 LINE",
"1220 496 LINE",
"492 1260 LINE",
"44 1260 LINE",
"44 1080 LINE",
"194 1080 LINE SMOOTH",
"236 1080 OFFCURVE",
"248 1054 OFFCURVE",
"248 1016 CURVE SMOOTH",
"248 244 LINE SMOOTH",
"248 206 OFFCURVE",
"236 180 OFFCURVE",
"194 180 CURVE SMOOTH",
"44 180 LINE"
);
},
{
closed = 1;
nodes = (
"1356 -450 OFFCURVE",
"1504 -322 OFFCURVE",
"1504 -80 CURVE SMOOTH",
"1504 900 LINE",
"1244 900 LINE",
"1244 -122 LINE SMOOTH",
"1244 -226 OFFCURVE",
"1214 -284 OFFCURVE",
"1116 -284 CURVE SMOOTH",
"1078 -284 OFFCURVE",
"1046 -280 OFFCURVE",
"1046 -248 CURVE SMOOTH",
"1046 -218 OFFCURVE",
"1074 -200 OFFCURVE",
"1074 -150 CURVE SMOOTH",
"1074 -98 OFFCURVE",
"1038 -56 OFFCURVE",
"958 -56 CURVE SMOOTH",
"846 -56 OFFCURVE",
"804 -142 OFFCURVE",
"804 -228 CURVE SMOOTH",
"804 -368 OFFCURVE",
"918 -450 OFFCURVE",
"1120 -450 CURVE SMOOTH"
);
}
);
width = 1744;
},
{
layerId = "14C77FDB-037D-4842-9381-6D9ED15DD48C";
paths = (
{
closed = 1;
nodes = (
"34 0 LINE",
"792 0 LINE",
"792 304 LINE",
"758 304 LINE SMOOTH",
"724 304 OFFCURVE",
"712 330 OFFCURVE",
"712 368 CURVE SMOOTH",
"712 530 LINE",
"720 530 LINE",
"1180 0 LINE",
"1580 0 LINE",
"1580 892 LINE SMOOTH",
"1580 930 OFFCURVE",
"1592 956 OFFCURVE",
"1634 956 CURVE SMOOTH",
"1758 956 LINE",
"1758 1260 LINE",
"940 1260 LINE",
"940 956 LINE",
"1034 956 LINE SMOOTH",
"1068 956 OFFCURVE",
"1080 930 OFFCURVE",
"1080 892 CURVE SMOOTH",
"1080 722 LINE",
"1072 722 LINE",
"612 1260 LINE",
"34 1260 LINE",
"34 956 LINE",
"158 956 LINE SMOOTH",
"200 956 OFFCURVE",
"212 930 OFFCURVE",
"212 892 CURVE SMOOTH",
"212 368 LINE SMOOTH",
"212 330 OFFCURVE",
"200 304 OFFCURVE",
"158 304 CURVE SMOOTH",
"34 304 LINE"
);
},
{
closed = 1;
nodes = (
"1406 -452 OFFCURVE",
"1580 -324 OFFCURVE",
"1580 -52 CURVE SMOOTH",
"1580 960 LINE",
"1122 960 LINE",
"1122 -102 LINE SMOOTH",
"1122 -192 OFFCURVE",
"1102 -230 OFFCURVE",
"1062 -230 CURVE SMOOTH",
"1034 -230 OFFCURVE",
"1024 -214 OFFCURVE",
"1024 -196 CURVE SMOOTH",
"1024 -164 OFFCURVE",
"1054 -150 OFFCURVE",
"1054 -106 CURVE SMOOTH",
"1054 -42 OFFCURVE",
"986 2 OFFCURVE",
"884 2 CURVE SMOOTH",
"746 2 OFFCURVE",
"660 -76 OFFCURVE",
"660 -202 CURVE SMOOTH",
"660 -368 OFFCURVE",
"810 -452 OFFCURVE",
"1072 -452 CURVE SMOOTH"
);
}
);
width = 1792;
}
);
leftKerningGroup = H;
rightKerningGroup = N;
unicode = 014A;
},
{
glyphname = O;
layers = (
{
anchors = (
{
name = bottom;
position = "{439, 0}";
},
{
name = center;
position = "{439, 630}";
},
{
name = ogonek;
position = "{790, 10}";
},
{
name = top;
position = "{439, 1260}";
},
{
name = topleft;
position = "{20, 1260}";
},
{
name = topright;
position = "{858, 1260}";
}
);
layerId = "E9E6D55E-9446-45F2-B66C-3272698B0216";
paths = (
{
closed = 1;
nodes = (
"678 -20 OFFCURVE",
"818 218 OFFCURVE",
"818 640 CURVE SMOOTH",
"818 1054 OFFCURVE",
"682 1280 OFFCURVE",
"434 1280 CURVE SMOOTH",
"190 1280 OFFCURVE",
"60 1058 OFFCURVE",
"60 636 CURVE SMOOTH",
"60 212 OFFCURVE",
"192 -20 OFFCURVE",
"432 -20 CURVE SMOOTH"
);
},
{
closed = 1;
nodes = (
"236 56 OFFCURVE",
"152 226 OFFCURVE",
"152 634 CURVE SMOOTH",
"152 1038 OFFCURVE",
"234 1204 OFFCURVE",
"436 1204 CURVE SMOOTH",
"642 1204 OFFCURVE",
"728 1036 OFFCURVE",
"728 634 CURVE SMOOTH",
"728 230 OFFCURVE",
"640 56 OFFCURVE",
"436 56 CURVE SMOOTH"
);
}
);
width = 878;
},
{
anchors = (
{
name = bottom;
position = "{530, 0}";
},
{
name = center;
position = "{530, 630}";
},
{
name = ogonek;
position = "{954, 10}";
},
{
name = top;
position = "{530, 1260}";
},
{
name = topleft;
position = "{20, 1260}";
},
{
name = topright;
position = "{1040, 1260}";
}
);
layerId = "B25F85BC-C782-4067-8484-07202F80B8CD";
paths = (
{
closed = 1;
nodes = (
"840 -24 OFFCURVE",
"990 186 OFFCURVE",
"990 628 CURVE SMOOTH",
"990 1072 OFFCURVE",
"840 1284 OFFCURVE",
"528 1284 CURVE SMOOTH",
"218 1284 OFFCURVE",
"70 1074 OFFCURVE",
"70 630 CURVE SMOOTH",
"70 186 OFFCURVE",
"216 -24 OFFCURVE",
"528 -24 CURVE SMOOTH"
);
},
{
closed = 1;
nodes = (
"420 186 OFFCURVE",
"372 314 OFFCURVE",
"372 622 CURVE SMOOTH",
"372 936 OFFCURVE",
"422 1074 OFFCURVE",
"536 1074 CURVE SMOOTH",
"646 1074 OFFCURVE",
"688 946 OFFCURVE",
"688 616 CURVE SMOOTH",
"688 300 OFFCURVE",
"648 186 OFFCURVE",
"538 186 CURVE SMOOTH"
);
}
);
width = 1060;
},
{
anchors = (
{
name = bottom;
position = "{493, 0}";
},
{
name = center;
position = "{493, 630}";
},
{
name = ogonek;
position = "{887, 10}";
},
{
name = top;
position = "{493, 1260}";
},
{
name = topleft;
position = "{20, 1260}";
},
{
name = topright;
position = "{966, 1260}";
}
);
layerId = "B817C739-5D48-43E8-AAEE-CE891513D7BC";
paths = (
{
closed = 1;
nodes = (
"820 -20 OFFCURVE",
"954 176 OFFCURVE",
"954 654 CURVE SMOOTH",
"954 1114 OFFCURVE",
"832 1280 OFFCURVE",
"490 1280 CURVE SMOOTH",
"152 1280 OFFCURVE",
"32 1114 OFFCURVE",
"32 654 CURVE SMOOTH",
"32 174 OFFCURVE",
"164 -20 OFFCURVE",
"490 -20 CURVE SMOOTH"
);
},
{
closed = 1;
nodes = (
"438 256 OFFCURVE",
"430 296 OFFCURVE",
"430 584 CURVE SMOOTH",
"430 960 OFFCURVE",
"436 1004 OFFCURVE",
"492 1004 CURVE SMOOTH",
"548 1004 OFFCURVE",
"556 956 OFFCURVE",
"556 620 CURVE SMOOTH",
"556 302 OFFCURVE",
"548 256 OFFCURVE",
"492 256 CURVE SMOOTH"
);
}
);
width = 986;
},
{
anchors = (
{
name = bottom;
position = "{800, 0}";
},
{
name = center;
position = "{800, 630}";
},
{
name = ogonek;
position = "{1440, 10}";
},
{
name = top;
position = "{800, 1260}";
},
{
name = topleft;
position = "{20, 1260}";
},
{
name = topright;
position = "{1580, 1260}";
}
);
layerId = UUID0;
paths = (
{
closed = 1;
nodes = (
"1218 -20 OFFCURVE",
"1450 212 OFFCURVE",
"1450 628 CURVE SMOOTH",
"1450 1046 OFFCURVE",
"1218 1280 OFFCURVE",
"804 1280 CURVE SMOOTH",
"388 1280 OFFCURVE",
"150 1042 OFFCURVE",
"150 626 CURVE SMOOTH",
"150 212 OFFCURVE",
"386 -20 OFFCURVE",
"802 -20 CURVE SMOOTH"
);
},
{
closed = 1;
nodes = (
"436 62 OFFCURVE",
"248 252 OFFCURVE",
"248 628 CURVE SMOOTH",
"248 1006 OFFCURVE",
"438 1198 OFFCURVE",
"812 1198 CURVE SMOOTH",
"1178 1198 OFFCURVE",
"1352 1014 OFFCURVE",
"1352 630 CURVE SMOOTH",
"1352 246 OFFCURVE",
"1176 62 OFFCURVE",
"810 62 CURVE SMOOTH"
);
}
);
width = 1600;
},
{
anchors = (
{
name = bottom;
position = "{810, 0}";
},
{
name = center;
position = "{810, 630}";
},
{
name = ogonek;
position = "{1458, 10}";
},
{
name = top;
position = "{810, 1260}";
},
{
name = topleft;
position = "{20, 1260}";
},
{
name = topright;
position = "{1600, 1260}";
}
);
layerId = "4355E1B8-19E6-44BD-A1D7-6E3C2DECA4C8";
paths = (
{
closed = 1;
nodes = (
"1246 -24 OFFCURVE",
"1510 222 OFFCURVE",
"1510 630 CURVE SMOOTH",
"1510 1038 OFFCURVE",
"1246 1284 OFFCURVE",
"810 1284 CURVE SMOOTH",
"372 1284 OFFCURVE",
"110 1038 OFFCURVE",
"110 630 CURVE SMOOTH",
"110 220 OFFCURVE",
"372 -24 OFFCURVE",
"808 -24 CURVE SMOOTH"
);
},
{
closed = 1;
nodes = (
"544 186 OFFCURVE",
"408 332 OFFCURVE",
"408 626 CURVE SMOOTH",
"408 920 OFFCURVE",
"548 1074 OFFCURVE",
"816 1074 CURVE SMOOTH",
"1082 1074 OFFCURVE",
"1212 926 OFFCURVE",
"1212 622 CURVE SMOOTH",
"1212 326 OFFCURVE",
"1086 186 OFFCURVE",
"818 186 CURVE SMOOTH"
);
}
);
width = 1620;
},
{
anchors = (
{
name = bottom;
position = "{804, 0}";
},
{
name = center;
position = "{804, 630}";
},
{
name = ogonek;
position = "{1447, 10}";
},
{
name = top;
position = "{804, 1260}";
},
{
name = topleft;
position = "{20, 1260}";
},
{
name = topright;
position = "{1588, 1260}";
}
);
layerId = "14C77FDB-037D-4842-9381-6D9ED15DD48C";
paths = (
{
closed = 1;
nodes = (
"1310 -20 OFFCURVE",
"1574 202 OFFCURVE",
"1574 630 CURVE SMOOTH",
"1574 1056 OFFCURVE",
"1308 1280 OFFCURVE",
"804 1280 CURVE SMOOTH",
"298 1280 OFFCURVE",
"34 1056 OFFCURVE",
"34 628 CURVE SMOOTH",
"34 202 OFFCURVE",
"296 -20 OFFCURVE",
"802 -20 CURVE SMOOTH"
);
},
{
closed = 1;
nodes = (
"658 350 OFFCURVE",
"600 428 OFFCURVE",
"600 624 CURVE SMOOTH",
"600 824 OFFCURVE",
"662 910 OFFCURVE",
"804 910 CURVE SMOOTH",
"948 910 OFFCURVE",
"1008 824 OFFCURVE",
"1008 624 CURVE SMOOTH",
"1008 426 OFFCURVE",
"952 350 OFFCURVE",
"804 350 CURVE SMOOTH"
);
}
);
width = 1608;
}
);
leftKerningGroup = O;
rightKerningGroup = O;
unicode = 004F;
},
{
color = 6;
glyphname = Oslash;
layers = (
{
components = (
{
name = O;
}
);
guideLines = (
{
angle = 90;
position = "{410, 379}";
},
{
angle = 90;
position = "{30, 85}";
}
);
layerId = "E9E6D55E-9446-45F2-B66C-3272698B0216";
paths = (
{
closed = 1;
nodes = (
"56 -60 LINE",
"134 -60 LINE",
"822 1320 LINE",
"744 1320 LINE"
);
}
);
width = 878;
},
{
components = (
{
name = O;
}
);
guideLines = (
{
angle = 90;
position = "{36, 504}";
},
{
angle = 90;
position = "{495, 504}";
}
);
layerId = "B25F85BC-C782-4067-8484-07202F80B8CD";
paths = (
{
closed = 1;
nodes = (
"52 -80 LINE",
"250 -80 LINE",
"1010 1340 LINE",
"812 1340 LINE"
);
}
);
width = 1060;
},
{
components = (
{
name = O;
}
);
guideLines = (
{
angle = 90;
position = "{16, 528}";
},
{
angle = 90;
position = "{477, 528}";
}
);
layerId = "B817C739-5D48-43E8-AAEE-CE891513D7BC";
paths = (
{
closed = 1;
nodes = (
"22 -80 LINE",
"200 -80 LINE",
"966 1340 LINE",
"788 1340 LINE"
);
}
);
width = 986;
},
{
components = (
{
name = O;
}
);
guideLines = (
{
angle = 90;
position = "{77, 102}";
},
{
angle = 90;
position = "{724, 102}";
}
);
layerId = UUID0;
paths = (
{
closed = 1;
nodes = (
"152 -60 LINE",
"260 -60 LINE",
"1450 1320 LINE",
"1342 1320 LINE"
);
}
);
width = 1600;
},
{
components = (
{
name = O;
}
);
guideLines = (
{
angle = 90;
position = "{55, 528}";
},
{
angle = 90;
position = "{755, 528}";
}
);
layerId = "4355E1B8-19E6-44BD-A1D7-6E3C2DECA4C8";
paths = (
{
closed = 1;
nodes = (
"110 -80 LINE",
"368 -80 LINE",
"1514 1340 LINE",
"1256 1340 LINE"
);
}
);
width = 1620;
},
{
components = (
{
name = O;
}
);
guideLines = (
{
angle = 90;
position = "{18, 516}";
},
{
angle = 90;
position = "{788, 516}";
}
);
layerId = "14C77FDB-037D-4842-9381-6D9ED15DD48C";
paths = (
{
closed = 1;
nodes = (
"40 -80 LINE",
"338 -80 LINE",
"1580 1340 LINE",
"1282 1340 LINE"
);
}
);
width = 1608;
}
);
leftKerningGroup = O;
rightKerningGroup = O;
unicode = 00D8;
},
{
color = 6;
glyphname = OE;
layers = (
{
layerId = "E9E6D55E-9446-45F2-B66C-3272698B0216";
paths = (
{
closed = 1;
nodes = (
"1178 0 LINE",
"1178 418 LINE",
"1114 418 LINE",
"1114 130 OFFCURVE",
"1090 60 OFFCURVE",
"990 60 CURVE SMOOTH",
"678 60 LINE",
"678 606 LINE",
"824 606 LINE SMOOTH",
"896 606 OFFCURVE",
"906 576 OFFCURVE",
"910 360 CURVE",
"974 360 LINE",
"974 892 LINE",
"910 892 LINE",
"906 700 OFFCURVE",
"894 670 OFFCURVE",
"824 670 CURVE SMOOTH",
"678 670 LINE",
"678 1200 LINE",
"990 1200 LINE SMOOTH",
"1086 1200 OFFCURVE",
"1114 1128 OFFCURVE",
"1114 876 CURVE",
"1178 876 LINE",
"1178 1260 LINE",
"434 1260 LINE SMOOTH",
"186 1260 OFFCURVE",
"60 1050 OFFCURVE",
"60 636 CURVE SMOOTH",
"60 218 OFFCURVE",
"188 0 OFFCURVE",
"432 0 CURVE SMOOTH"
);
},
{
closed = 1;
nodes = (
"234 60 OFFCURVE",
"152 220 OFFCURVE",
"152 630 CURVE SMOOTH",
"152 1036 OFFCURVE",
"234 1202 OFFCURVE",
"434 1202 CURVE SMOOTH",
"542 1202 OFFCURVE",
"592 1170 OFFCURVE",
"592 1116 CURVE SMOOTH",
"592 142 LINE SMOOTH",
"592 86 OFFCURVE",
"552 60 OFFCURVE",
"446 60 CURVE SMOOTH"
);
}
);
width = 1278;
},
{
layerId = "B25F85BC-C782-4067-8484-07202F80B8CD";
paths = (
{
closed = 1;
nodes = (
"1554 0 LINE",
"1554 544 LINE",
"1316 544 LINE",
"1316 224 OFFCURVE",
"1290 180 OFFCURVE",
"1196 180 CURVE SMOOTH",
"998 180 LINE",
"998 536 LINE",
"1008 536 LINE SMOOTH",
"1080 536 OFFCURVE",
"1092 492 OFFCURVE",
"1092 336 CURVE",
"1234 336 LINE",
"1234 896 LINE",
"1092 896 LINE",
"1092 732 OFFCURVE",
"1082 700 OFFCURVE",
"1008 700 CURVE SMOOTH",
"998 700 LINE",
"998 1080 LINE",
"1192 1080 LINE SMOOTH",
"1276 1080 OFFCURVE",
"1316 1014 OFFCURVE",
"1316 708 CURVE",
"1554 708 LINE",
"1554 1260 LINE",
"592 1260 LINE SMOOTH",
"222 1260 OFFCURVE",
"70 1074 OFFCURVE",
"70 630 CURVE SMOOTH",
"70 186 OFFCURVE",
"216 0 OFFCURVE",
"588 0 CURVE SMOOTH"
);
},
{
closed = 1;
nodes = (
"420 186 OFFCURVE",
"372 314 OFFCURVE",
"372 622 CURVE SMOOTH",
"372 936 OFFCURVE",
"422 1074 OFFCURVE",
"616 1074 CURVE SMOOTH",
"690 1074 OFFCURVE",
"722 1052 OFFCURVE",
"722 1002 CURVE SMOOTH",
"722 252 LINE SMOOTH",
"722 210 OFFCURVE",
"710 186 OFFCURVE",
"612 186 CURVE SMOOTH"
);
}
);
width = 1634;
},
{
layerId = "B817C739-5D48-43E8-AAEE-CE891513D7BC";
paths = (
{
closed = 1;
nodes = (
"1524 0 LINE",
"1524 592 LINE",
"1222 592 LINE",
"1222 260 OFFCURVE",
"1188 216 OFFCURVE",
"1124 216 CURVE SMOOTH",
"1038 216 LINE",
"1038 608 LINE",
"1044 608 LINE",
"1066 608 OFFCURVE",
"1072 594 OFFCURVE",
"1072 422 CURVE",
"1186 422 LINE",
"1186 856 LINE",
"1072 856 LINE",
"1072 694 OFFCURVE",
"1066 672 OFFCURVE",
"1044 672 CURVE SMOOTH",
"1038 672 LINE",
"1038 1044 LINE",
"1118 1044 LINE SMOOTH",
"1188 1044 OFFCURVE",
"1222 998 OFFCURVE",
"1222 684 CURVE",
"1524 684 LINE",
"1524 1260 LINE",
"590 1260 LINE SMOOTH",
"152 1260 OFFCURVE",
"32 1114 OFFCURVE",
"32 654 CURVE SMOOTH",
"32 174 OFFCURVE",
"164 0 OFFCURVE",
"590 0 CURVE SMOOTH"
);
},
{
closed = 1;
nodes = (
"438 256 OFFCURVE",
"430 296 OFFCURVE",
"430 584 CURVE SMOOTH",
"430 960 OFFCURVE",
"436 1004 OFFCURVE",
"592 1004 CURVE SMOOTH",
"666 1004 OFFCURVE",
"678 982 OFFCURVE",
"678 932 CURVE SMOOTH",
"678 322 LINE SMOOTH",
"678 280 OFFCURVE",
"664 256 OFFCURVE",
"592 256 CURVE SMOOTH"
);
}
);
width = 1594;
},
{
layerId = UUID0;
paths = (
{
closed = 1;
nodes = (
"2066 0 LINE",
"2066 422 LINE",
"2002 422 LINE",
"2002 128 OFFCURVE",
"1982 72 OFFCURVE",
"1878 72 CURVE SMOOTH",
"1176 72 LINE",
"1176 606 LINE",
"1592 606 LINE SMOOTH",
"1662 606 OFFCURVE",
"1674 576 OFFCURVE",
"1678 380 CURVE",
"1742 380 LINE",
"1742 892 LINE",
"1678 892 LINE",
"1674 700 OFFCURVE",
"1662 670 OFFCURVE",
"1592 670 CURVE SMOOTH",
"1176 670 LINE",
"1176 1188 LINE",
"1878 1188 LINE SMOOTH",
"1982 1188 OFFCURVE",
"2002 1130 OFFCURVE",
"2002 836 CURVE",
"2066 836 LINE",
"2066 1260 LINE",
"784 1260 LINE SMOOTH",
"378 1260 OFFCURVE",
"150 1032 OFFCURVE",
"150 626 CURVE SMOOTH",
"150 220 OFFCURVE",
"378 0 OFFCURVE",
"802 0 CURVE SMOOTH"
);
},
{
closed = 1;
nodes = (
"428 78 OFFCURVE",
"248 238 OFFCURVE",
"248 632 CURVE SMOOTH",
"248 1020 OFFCURVE",
"426 1184 OFFCURVE",
"846 1184 CURVE SMOOTH",
"1004 1184 OFFCURVE",
"1080 1160 OFFCURVE",
"1080 1110 CURVE SMOOTH",
"1080 150 LINE SMOOTH",
"1080 94 OFFCURVE",
"1034 78 OFFCURVE",
"868 78 CURVE SMOOTH"
);
}
);
width = 2246;
},
{
layerId = "4355E1B8-19E6-44BD-A1D7-6E3C2DECA4C8";
paths = (
{
closed = 1;
nodes = (
"2242 0 LINE",
"2242 538 LINE",
"2006 538 LINE",
"2006 260 OFFCURVE",
"1962 180 OFFCURVE",
"1810 180 CURVE SMOOTH",
"1348 180 LINE",
"1348 556 LINE",
"1464 556 LINE SMOOTH",
"1574 556 OFFCURVE",
"1602 524 OFFCURVE",
"1602 392 CURVE",
"1794 392 LINE",
"1794 896 LINE",
"1602 896 LINE",
"1602 750 OFFCURVE",
"1578 720 OFFCURVE",
"1464 720 CURVE SMOOTH",
"1348 720 LINE",
"1348 1080 LINE",
"1796 1080 LINE SMOOTH",
"1954 1080 OFFCURVE",
"2006 988 OFFCURVE",
"2006 708 CURVE",
"2242 708 LINE",
"2242 1260 LINE",
"868 1260 LINE SMOOTH",
"364 1260 OFFCURVE",
"110 1050 OFFCURVE",
"110 630 CURVE SMOOTH",
"110 210 OFFCURVE",
"364 0 OFFCURVE",
"868 0 CURVE SMOOTH"
);
},
{
closed = 1;
nodes = (
"554 186 OFFCURVE",
"408 316 OFFCURVE",
"408 624 CURVE SMOOTH",
"408 938 OFFCURVE",
"556 1074 OFFCURVE",
"896 1074 CURVE SMOOTH",
"1030 1074 OFFCURVE",
"1072 1056 OFFCURVE",
"1072 998 CURVE SMOOTH",
"1072 252 LINE SMOOTH",
"1072 202 OFFCURVE",
"1028 186 OFFCURVE",
"898 186 CURVE SMOOTH"
);
}
);
width = 2330;
},
{
layerId = "14C77FDB-037D-4842-9381-6D9ED15DD48C";
paths = (
{
closed = 1;
nodes = (
"2308 0 LINE",
"2308 568 LINE",
"1868 568 LINE",
"1868 334 OFFCURVE",
"1824 304 OFFCURVE",
"1732 304 CURVE SMOOTH",
"1540 304 LINE",
"1540 540 LINE",
"1552 540 LINE SMOOTH",
"1586 540 OFFCURVE",
"1614 480 OFFCURVE",
"1614 426 CURVE",
"1826 426 LINE",
"1826 830 LINE",
"1614 830 LINE",
"1614 742 OFFCURVE",
"1588 724 OFFCURVE",
"1554 724 CURVE SMOOTH",
"1540 724 LINE",
"1540 956 LINE",
"1724 956 LINE SMOOTH",
"1822 956 OFFCURVE",
"1868 932 OFFCURVE",
"1868 692 CURVE",
"2308 692 LINE",
"2308 1260 LINE",
"862 1260 LINE SMOOTH",
"276 1260 OFFCURVE",
"34 1056 OFFCURVE",
"34 628 CURVE SMOOTH",
"34 202 OFFCURVE",
"276 0 OFFCURVE",
"862 0 CURVE SMOOTH"
);
},
{
closed = 1;
nodes = (
"658 350 OFFCURVE",
"600 428 OFFCURVE",
"600 624 CURVE SMOOTH",
"600 824 OFFCURVE",
"662 910 OFFCURVE",
"864 910 CURVE SMOOTH",
"1026 910 OFFCURVE",
"1040 888 OFFCURVE",
"1040 838 CURVE SMOOTH",
"1040 416 LINE SMOOTH",
"1040 374 OFFCURVE",
"1028 350 OFFCURVE",
"864 350 CURVE SMOOTH"
);
}
);
width = 2368;
}
);
leftKerningGroup = O;
rightKerningGroup = E;
unicode = 0152;
},
{
color = 6;
glyphname = P;
layers = (
{
anchors = (
{
name = bottom;
position = "{408, 0}";
},
{
name = top;
position = "{408, 1260}";
}
);
background = {
paths = (
{
closed = 1;
nodes = (
"80 60 LINE SMOOTH",
"140 60 OFFCURVE",
"170 88 OFFCURVE",
"170 142 CURVE SMOOTH",
"170 1116 LINE SMOOTH",
"170 1174 OFFCURVE",
"140 1200 OFFCURVE",
"78 1200 CURVE SMOOTH",
"26 1200 LINE",
"26 1260 LINE",
"422 1260 LINE SMOOTH",
"670 1260 OFFCURVE",
"806 1136 OFFCURVE",
"806 910 CURVE SMOOTH",
"806 674 OFFCURVE",
"660 540 OFFCURVE",
"400 540 CURVE",
"226 540 LINE",
"226 610 LINE",
"404 610 LINE SMOOTH",
"616 610 OFFCURVE",
"716 704 OFFCURVE",
"716 902 CURVE SMOOTH",
"716 1096 OFFCURVE",
"620 1190 OFFCURVE",
"424 1190 CURVE SMOOTH",
"252 1190 LINE",
"252 142 LINE SMOOTH",
"252 88 OFFCURVE",
"282 60 OFFCURVE",
"342 60 CURVE SMOOTH",
"396 60 LINE",
"396 0 LINE",
"26 0 LINE",
"26 60 LINE"
);
}
);
};
layerId = "E9E6D55E-9446-45F2-B66C-3272698B0216";
paths = (
{
closed = 1;
nodes = (
"80 60 LINE SMOOTH",
"140 60 OFFCURVE",
"170 88 OFFCURVE",
"170 142 CURVE SMOOTH",
"170 1116 LINE SMOOTH",
"170 1174 OFFCURVE",
"140 1200 OFFCURVE",
"78 1200 CURVE SMOOTH",
"26 1200 LINE",
"26 1260 LINE",
"402 1260 LINE SMOOTH",
"650 1260 OFFCURVE",
"786 1136 OFFCURVE",
"786 910 CURVE SMOOTH",
"786 674 OFFCURVE",
"640 540 OFFCURVE",
"380 540 CURVE",
"226 540 LINE",
"226 610 LINE",
"384 610 LINE SMOOTH",
"596 610 OFFCURVE",
"696 704 OFFCURVE",
"696 902 CURVE SMOOTH",
"696 1096 OFFCURVE",
"600 1190 OFFCURVE",
"404 1190 CURVE SMOOTH",
"252 1190 LINE",
"252 142 LINE SMOOTH",
"252 88 OFFCURVE",
"282 60 OFFCURVE",
"342 60 CURVE SMOOTH",
"396 60 LINE",
"396 0 LINE",
"26 0 LINE",
"26 60 LINE"
);
}
);
width = 816;
},
{
anchors = (
{
name = bottom;
position = "{482, 0}";
},
{
name = top;
position = "{482, 1260}";
}
);
background = {
paths = (
{
closed = 1;
nodes = (
"104 180 LINE SMOOTH",
"136 180 OFFCURVE",
"154 202 OFFCURVE",
"154 242 CURVE SMOOTH",
"154 1016 LINE SMOOTH",
"154 1062 OFFCURVE",
"136 1080 OFFCURVE",
"92 1080 CURVE SMOOTH",
"30 1080 LINE",
"30 1260 LINE",
"540 1260 LINE SMOOTH",
"842 1260 OFFCURVE",
"984 1146 OFFCURVE",
"984 880 CURVE SMOOTH",
"984 600 OFFCURVE",
"824 480 OFFCURVE",
"518 480 CURVE SMOOTH",
"404 480 LINE",
"404 670 LINE",
"502 670 LINE SMOOTH",
"628 670 OFFCURVE",
"694 736 OFFCURVE",
"694 884 CURVE SMOOTH",
"694 1022 OFFCURVE",
"638 1080 OFFCURVE",
"522 1080 CURVE SMOOTH",
"430 1080 LINE",
"430 242 LINE SMOOTH",
"430 198 OFFCURVE",
"450 180 OFFCURVE",
"500 180 CURVE SMOOTH",
"574 180 LINE",
"574 0 LINE",
"30 0 LINE",
"30 180 LINE"
);
}
);
};
layerId = "B25F85BC-C782-4067-8484-07202F80B8CD";
paths = (
{
closed = 1;
nodes = (
"104 180 LINE SMOOTH",
"136 180 OFFCURVE",
"154 202 OFFCURVE",
"154 242 CURVE SMOOTH",
"154 1016 LINE SMOOTH",
"154 1062 OFFCURVE",
"136 1080 OFFCURVE",
"92 1080 CURVE SMOOTH",
"30 1080 LINE",
"30 1260 LINE",
"500 1260 LINE SMOOTH",
"802 1260 OFFCURVE",
"944 1146 OFFCURVE",
"944 880 CURVE SMOOTH",
"944 600 OFFCURVE",
"784 480 OFFCURVE",
"478 480 CURVE SMOOTH",
"404 480 LINE",
"404 670 LINE",
"472 670 LINE SMOOTH",
"598 670 OFFCURVE",
"664 736 OFFCURVE",
"664 884 CURVE SMOOTH",
"664 1022 OFFCURVE",
"608 1080 OFFCURVE",
"492 1080 CURVE SMOOTH",
"430 1080 LINE",
"430 242 LINE SMOOTH",
"430 198 OFFCURVE",
"450 180 OFFCURVE",
"500 180 CURVE SMOOTH",
"574 180 LINE",
"574 0 LINE",
"30 0 LINE",
"30 180 LINE"
);
}
);
width = 964;
},
{
anchors = (
{
name = bottom;
position = "{472, 0}";
},
{
name = top;
position = "{472, 1260}";
}
);
background = {
paths = (
{
closed = 1;
nodes = (
"52 216 LINE SMOOTH",
"84 216 OFFCURVE",
"102 238 OFFCURVE",
"102 278 CURVE SMOOTH",
"102 980 LINE SMOOTH",
"102 1030 OFFCURVE",
"84 1044 OFFCURVE",
"40 1044 CURVE SMOOTH",
"14 1044 LINE",
"14 1260 LINE",
"500 1260 LINE SMOOTH",
"794 1260 OFFCURVE",
"944 1146 OFFCURVE",
"944 852 CURVE SMOOTH",
"944 554 OFFCURVE",
"790 440 OFFCURVE",
"498 440 CURVE SMOOTH",
"436 440 LINE",
"436 658 LINE",
"482 658 LINE SMOOTH",
"566 658 OFFCURVE",
"594 724 OFFCURVE",
"594 854 CURVE SMOOTH",
"594 998 OFFCURVE",
"560 1044 OFFCURVE",
"502 1044 CURVE SMOOTH",
"462 1044 LINE",
"462 278 LINE SMOOTH",
"462 234 OFFCURVE",
"482 216 OFFCURVE",
"532 216 CURVE SMOOTH",
"594 216 LINE",
"594 0 LINE",
"14 0 LINE",
"14 216 LINE"
);
}
);
};
layerId = "B817C739-5D48-43E8-AAEE-CE891513D7BC";
paths = (
{
closed = 1;
nodes = (
"52 216 LINE SMOOTH",
"84 216 OFFCURVE",
"102 238 OFFCURVE",
"102 278 CURVE SMOOTH",
"102 980 LINE SMOOTH",
"102 1030 OFFCURVE",
"84 1044 OFFCURVE",
"40 1044 CURVE SMOOTH",
"14 1044 LINE",
"14 1260 LINE",
"500 1260 LINE SMOOTH",
"774 1260 OFFCURVE",
"924 1146 OFFCURVE",
"924 852 CURVE SMOOTH",
"924 554 OFFCURVE",
"770 440 OFFCURVE",
"498 440 CURVE SMOOTH",
"436 440 LINE",
"436 658 LINE",
"482 658 LINE SMOOTH",
"546 658 OFFCURVE",
"574 724 OFFCURVE",
"574 854 CURVE SMOOTH",
"574 998 OFFCURVE",
"540 1044 OFFCURVE",
"502 1044 CURVE SMOOTH",
"462 1044 LINE",
"462 278 LINE SMOOTH",
"462 234 OFFCURVE",
"482 216 OFFCURVE",
"532 216 CURVE SMOOTH",
"594 216 LINE",
"594 0 LINE",
"14 0 LINE",
"14 216 LINE"
);
}
);
width = 944;
},
{
anchors = (
{
name = bottom;
position = "{681, 0}";
},
{
name = top;
position = "{681, 1260}";
}
);
background = {
paths = (
{
closed = 1;
nodes = (
"206 72 LINE SMOOTH",
"242 72 OFFCURVE",
"260 90 OFFCURVE",
"260 138 CURVE SMOOTH",
"260 1124 LINE SMOOTH",
"260 1174 OFFCURVE",
"242 1188 OFFCURVE",
"194 1188 CURVE SMOOTH",
"60 1188 LINE",
"60 1260 LINE",
"858 1260 LINE SMOOTH",
"1148 1260 OFFCURVE",
"1302 1124 OFFCURVE",
"1302 886 CURVE SMOOTH",
"1302 634 OFFCURVE",
"1134 500 OFFCURVE",
"836 500 CURVE SMOOTH",
"330 500 LINE",
"330 582 LINE",
"840 582 LINE SMOOTH",
"1090 582 OFFCURVE",
"1212 676 OFFCURVE",
"1212 884 CURVE SMOOTH",
"1212 1084 OFFCURVE",
"1098 1178 OFFCURVE",
"860 1178 CURVE SMOOTH",
"356 1178 LINE",
"356 138 LINE SMOOTH",
"356 88 OFFCURVE",
"374 72 OFFCURVE",
"410 72 CURVE SMOOTH",
"594 72 LINE",
"594 0 LINE",
"62 0 LINE",
"62 72 LINE"
);
}
);
};
layerId = UUID0;
paths = (
{
closed = 1;
nodes = (
"206 72 LINE SMOOTH",
"242 72 OFFCURVE",
"260 90 OFFCURVE",
"260 138 CURVE SMOOTH",
"260 1124 LINE SMOOTH",
"260 1174 OFFCURVE",
"242 1188 OFFCURVE",
"194 1188 CURVE SMOOTH",
"40 1188 LINE",
"40 1260 LINE",
"838 1260 LINE SMOOTH",
"1128 1260 OFFCURVE",
"1282 1124 OFFCURVE",
"1282 886 CURVE SMOOTH",
"1282 634 OFFCURVE",
"1114 500 OFFCURVE",
"816 500 CURVE SMOOTH",
"330 500 LINE",
"330 582 LINE",
"820 582 LINE SMOOTH",
"1070 582 OFFCURVE",
"1192 676 OFFCURVE",
"1192 884 CURVE SMOOTH",
"1192 1084 OFFCURVE",
"1078 1178 OFFCURVE",
"840 1178 CURVE SMOOTH",
"356 1178 LINE",
"356 138 LINE SMOOTH",
"356 88 OFFCURVE",
"374 72 OFFCURVE",
"410 72 CURVE SMOOTH",
"634 72 LINE",
"634 0 LINE",
"42 0 LINE",
"42 72 LINE"
);
}
);
width = 1362;
},
{
anchors = (
{
name = bottom;
position = "{735, 0}";
},
{
name = top;
position = "{735, 1260}";
}
);
background = {
paths = (
{
closed = 1;
nodes = (
"194 180 LINE SMOOTH",
"232 180 OFFCURVE",
"248 200 OFFCURVE",
"248 246 CURVE SMOOTH",
"248 1016 LINE SMOOTH",
"248 1064 OFFCURVE",
"232 1080 OFFCURVE",
"188 1080 CURVE SMOOTH",
"44 1080 LINE",
"44 1260 LINE",
"1026 1260 LINE SMOOTH",
"1316 1260 OFFCURVE",
"1470 1128 OFFCURVE",
"1470 878 CURVE SMOOTH",
"1470 620 OFFCURVE",
"1306 480 OFFCURVE",
"1004 480 CURVE SMOOTH",
"498 480 LINE",
"498 682 LINE",
"948 682 LINE SMOOTH",
"1122 682 OFFCURVE",
"1176 748 OFFCURVE",
"1176 882 CURVE SMOOTH",
"1176 1010 OFFCURVE",
"1110 1070 OFFCURVE",
"968 1070 CURVE SMOOTH",
"524 1070 LINE",
"524 246 LINE SMOOTH",
"524 200 OFFCURVE",
"540 180 OFFCURVE",
"578 180 CURVE SMOOTH",
"762 180 LINE",
"762 0 LINE",
"44 0 LINE",
"44 180 LINE"
);
}
);
};
layerId = "4355E1B8-19E6-44BD-A1D7-6E3C2DECA4C8";
paths = (
{
closed = 1;
nodes = (
"194 180 LINE SMOOTH",
"232 180 OFFCURVE",
"248 200 OFFCURVE",
"248 246 CURVE SMOOTH",
"248 1016 LINE SMOOTH",
"248 1064 OFFCURVE",
"232 1080 OFFCURVE",
"188 1080 CURVE SMOOTH",
"44 1080 LINE",
"44 1260 LINE",
"986 1260 LINE SMOOTH",
"1276 1260 OFFCURVE",
"1430 1128 OFFCURVE",
"1430 878 CURVE SMOOTH",
"1430 620 OFFCURVE",
"1266 480 OFFCURVE",
"964 480 CURVE SMOOTH",
"498 480 LINE",
"498 682 LINE",
"908 682 LINE SMOOTH",
"1082 682 OFFCURVE",
"1136 748 OFFCURVE",
"1136 882 CURVE SMOOTH",
"1136 1010 OFFCURVE",
"1070 1070 OFFCURVE",
"928 1070 CURVE SMOOTH",
"524 1070 LINE",
"524 246 LINE SMOOTH",
"524 200 OFFCURVE",
"540 180 OFFCURVE",
"578 180 CURVE SMOOTH",
"762 180 LINE",
"762 0 LINE",
"44 0 LINE",
"44 180 LINE"
);
}
);
width = 1470;
},
{
anchors = (
{
name = bottom;
position = "{761, 0}";
},
{
name = top;
position = "{761, 1260}";
}
);
background = {
paths = (
{
closed = 1;
nodes = (
"158 304 LINE SMOOTH",
"196 304 OFFCURVE",
"212 324 OFFCURVE",
"212 370 CURVE SMOOTH",
"212 892 LINE SMOOTH",
"212 940 OFFCURVE",
"196 956 OFFCURVE",
"152 956 CURVE SMOOTH",
"34 956 LINE",
"34 1260 LINE",
"1098 1260 LINE SMOOTH",
"1386 1260 OFFCURVE",
"1542 1120 OFFCURVE",
"1542 858 CURVE SMOOTH",
"1542 584 OFFCURVE",
"1368 420 OFFCURVE",
"1076 420 CURVE SMOOTH",
"650 420 LINE",
"650 700 LINE",
"828 700 LINE SMOOTH",
"950 700 OFFCURVE",
"1004 744 OFFCURVE",
"1004 844 CURVE SMOOTH",
"1004 942 OFFCURVE",
"954 988 OFFCURVE",
"848 988 CURVE SMOOTH",
"712 988 LINE",
"712 370 LINE SMOOTH",
"712 324 OFFCURVE",
"728 304 OFFCURVE",
"766 304 CURVE SMOOTH",
"990 304 LINE",
"990 0 LINE",
"34 0 LINE",
"34 304 LINE"
);
}
);
};
layerId = "14C77FDB-037D-4842-9381-6D9ED15DD48C";
paths = (
{
closed = 1;
nodes = (
"158 304 LINE SMOOTH",
"196 304 OFFCURVE",
"212 324 OFFCURVE",
"212 370 CURVE SMOOTH",
"212 892 LINE SMOOTH",
"212 940 OFFCURVE",
"196 956 OFFCURVE",
"152 956 CURVE SMOOTH",
"34 956 LINE",
"34 1260 LINE",
"1048 1260 LINE SMOOTH",
"1336 1260 OFFCURVE",
"1492 1120 OFFCURVE",
"1492 858 CURVE SMOOTH",
"1492 584 OFFCURVE",
"1318 420 OFFCURVE",
"1026 420 CURVE SMOOTH",
"650 420 LINE",
"650 700 LINE",
"788 700 LINE SMOOTH",
"900 700 OFFCURVE",
"954 744 OFFCURVE",
"954 844 CURVE SMOOTH",
"954 942 OFFCURVE",
"904 988 OFFCURVE",
"798 988 CURVE SMOOTH",
"712 988 LINE",
"712 370 LINE SMOOTH",
"712 324 OFFCURVE",
"728 304 OFFCURVE",
"766 304 CURVE SMOOTH",
"940 304 LINE",
"940 0 LINE",
"34 0 LINE",
"34 304 LINE"
);
}
);
width = 1522;
}
);
leftKerningGroup = H;
leftMetricsKey = H;
rightKerningGroup = P;
unicode = 0050;
},
{
color = 6;
glyphname = Thorn;
layers = (
{
layerId = "E9E6D55E-9446-45F2-B66C-3272698B0216";
paths = (
{
closed = 1;
nodes = (
"660 292 OFFCURVE",
"806 426 OFFCURVE",
"806 662 CURVE SMOOTH",
"806 888 OFFCURVE",
"670 1012 OFFCURVE",
"422 1012 CURVE SMOOTH",
"252 1012 LINE",
"252 1116 LINE SMOOTH",
"252 1170 OFFCURVE",
"278 1200 OFFCURVE",
"344 1200 CURVE SMOOTH",
"396 1200 LINE",
"396 1260 LINE",
"26 1260 LINE",
"26 1200 LINE",
"78 1200 LINE SMOOTH",
"144 1200 OFFCURVE",
"170 1170 OFFCURVE",
"170 1116 CURVE SMOOTH",
"170 142 LINE SMOOTH",
"170 88 OFFCURVE",
"140 60 OFFCURVE",
"80 60 CURVE SMOOTH",
"26 60 LINE",
"26 0 LINE",
"396 0 LINE",
"396 60 LINE",
"342 60 LINE SMOOTH",
"282 60 OFFCURVE",
"252 88 OFFCURVE",
"252 142 CURVE SMOOTH",
"252 292 LINE",
"400 292 LINE SMOOTH"
);
},
{
closed = 1;
nodes = (
"252 362 LINE",
"252 942 LINE",
"424 942 LINE SMOOTH",
"620 942 OFFCURVE",
"716 848 OFFCURVE",
"716 654 CURVE SMOOTH",
"716 456 OFFCURVE",
"616 362 OFFCURVE",
"404 362 CURVE SMOOTH"
);
}
);
width = 836;
},
{
layerId = "B25F85BC-C782-4067-8484-07202F80B8CD";
paths = (
{
closed = 1;
nodes = (
"824 280 OFFCURVE",
"984 400 OFFCURVE",
"984 640 CURVE SMOOTH",
"984 866 OFFCURVE",
"842 980 OFFCURVE",
"540 980 CURVE SMOOTH",
"430 980 LINE",
"430 1016 LINE SMOOTH",
"430 1054 OFFCURVE",
"442 1080 OFFCURVE",
"476 1080 CURVE SMOOTH",
"574 1080 LINE",
"574 1260 LINE",
"30 1260 LINE",
"30 1080 LINE",
"100 1080 LINE SMOOTH",
"142 1080 OFFCURVE",
"154 1054 OFFCURVE",
"154 1016 CURVE SMOOTH",
"154 242 LINE SMOOTH",
"154 202 OFFCURVE",
"136 180 OFFCURVE",
"104 180 CURVE SMOOTH",
"30 180 LINE",
"30 0 LINE",
"574 0 LINE",
"574 180 LINE",
"500 180 LINE SMOOTH",
"450 180 OFFCURVE",
"430 198 OFFCURVE",
"430 242 CURVE SMOOTH",
"430 280 LINE",
"518 280 LINE SMOOTH"
);
},
{
closed = 1;
nodes = (
"430 470 LINE",
"430 800 LINE",
"522 800 LINE SMOOTH",
"638 800 OFFCURVE",
"694 742 OFFCURVE",
"694 644 CURVE SMOOTH",
"694 536 OFFCURVE",
"628 470 OFFCURVE",
"502 470 CURVE SMOOTH"
);
}
);
width = 1004;
},
{
background = {
paths = (
{
closed = 1;
nodes = (
"14 0 LINE",
"552 0 LINE",
"552 216 LINE",
"514 216 LINE SMOOTH",
"480 216 OFFCURVE",
"464 238 OFFCURVE",
"464 278 CURVE SMOOTH",
"464 980 LINE SMOOTH",
"464 1022 OFFCURVE",
"478 1044 OFFCURVE",
"516 1044 CURVE SMOOTH",
"552 1044 LINE",
"552 1260 LINE",
"14 1260 LINE",
"14 1044 LINE",
"50 1044 LINE SMOOTH",
"88 1044 OFFCURVE",
"102 1022 OFFCURVE",
"102 980 CURVE SMOOTH",
"102 278 LINE SMOOTH",
"102 238 OFFCURVE",
"86 216 OFFCURVE",
"52 216 CURVE SMOOTH",
"14 216 LINE"
);
}
);
};
layerId = "B817C739-5D48-43E8-AAEE-CE891513D7BC";
paths = (
{
closed = 1;
nodes = (
"790 300 OFFCURVE",
"944 414 OFFCURVE",
"944 632 CURVE SMOOTH",
"944 846 OFFCURVE",
"794 960 OFFCURVE",
"500 960 CURVE SMOOTH",
"464 960 LINE",
"464 980 LINE SMOOTH",
"464 1022 OFFCURVE",
"478 1044 OFFCURVE",
"516 1044 CURVE SMOOTH",
"594 1044 LINE",
"594 1260 LINE",
"14 1260 LINE",
"14 1044 LINE",
"50 1044 LINE SMOOTH",
"88 1044 OFFCURVE",
"102 1022 OFFCURVE",
"102 980 CURVE SMOOTH",
"102 278 LINE SMOOTH",
"102 238 OFFCURVE",
"84 216 OFFCURVE",
"52 216 CURVE SMOOTH",
"14 216 LINE",
"14 0 LINE",
"594 0 LINE",
"594 216 LINE",
"532 216 LINE SMOOTH",
"482 216 OFFCURVE",
"462 234 OFFCURVE",
"462 278 CURVE SMOOTH",
"462 300 LINE",
"498 300 LINE SMOOTH"
);
},
{
closed = 1;
nodes = (
"462 518 LINE",
"462 744 LINE",
"502 744 LINE SMOOTH",
"560 744 OFFCURVE",
"594 698 OFFCURVE",
"594 634 CURVE SMOOTH",
"594 584 OFFCURVE",
"566 518 OFFCURVE",
"498 518 CURVE SMOOTH"
);
}
);
width = 964;
},
{
background = {
paths = (
{
closed = 1;
nodes = (
"62 0 LINE",
"554 0 LINE",
"554 72 LINE",
"402 72 LINE SMOOTH",
"368 72 OFFCURVE",
"356 98 OFFCURVE",
"356 136 CURVE SMOOTH",
"356 1122 LINE SMOOTH",
"356 1160 OFFCURVE",
"368 1186 OFFCURVE",
"402 1186 CURVE SMOOTH",
"556 1186 LINE",
"556 1258 LINE",
"60 1258 LINE",
"60 1186 LINE",
"206 1186 LINE SMOOTH",
"248 1186 OFFCURVE",
"260 1160 OFFCURVE",
"260 1122 CURVE SMOOTH",
"260 136 LINE SMOOTH",
"260 98 OFFCURVE",
"248 72 OFFCURVE",
"206 72 CURVE SMOOTH",
"62 72 LINE"
);
}
);
};
layerId = UUID0;
paths = (
{
closed = 1;
nodes = (
"1134 240 OFFCURVE",
"1302 374 OFFCURVE",
"1302 626 CURVE SMOOTH",
"1302 864 OFFCURVE",
"1148 1000 OFFCURVE",
"858 1000 CURVE SMOOTH",
"356 1000 LINE",
"356 1122 LINE SMOOTH",
"356 1160 OFFCURVE",
"368 1186 OFFCURVE",
"402 1186 CURVE SMOOTH",
"594 1186 LINE",
"594 1258 LINE",
"60 1258 LINE",
"60 1186 LINE",
"206 1186 LINE SMOOTH",
"248 1186 OFFCURVE",
"260 1160 OFFCURVE",
"260 1122 CURVE SMOOTH",
"260 138 LINE SMOOTH",
"260 90 OFFCURVE",
"242 72 OFFCURVE",
"206 72 CURVE SMOOTH",
"62 72 LINE",
"62 0 LINE",
"594 0 LINE",
"594 72 LINE",
"410 72 LINE SMOOTH",
"374 72 OFFCURVE",
"356 88 OFFCURVE",
"356 138 CURVE SMOOTH",
"356 240 LINE",
"836 240 LINE SMOOTH"
);
},
{
closed = 1;
nodes = (
"356 322 LINE",
"356 918 LINE",
"860 918 LINE SMOOTH",
"1098 918 OFFCURVE",
"1212 824 OFFCURVE",
"1212 624 CURVE SMOOTH",
"1212 416 OFFCURVE",
"1090 322 OFFCURVE",
"840 322 CURVE SMOOTH"
);
}
);
width = 1382;
},
{
background = {
paths = (
{
closed = 1;
nodes = (
"44 0 LINE",
"762 0 LINE",
"762 180 LINE",
"570 180 LINE SMOOTH",
"536 180 OFFCURVE",
"524 206 OFFCURVE",
"524 244 CURVE SMOOTH",
"524 1016 LINE SMOOTH",
"524 1054 OFFCURVE",
"536 1080 OFFCURVE",
"570 1080 CURVE SMOOTH",
"762 1080 LINE",
"762 1260 LINE",
"44 1260 LINE",
"44 1080 LINE",
"194 1080 LINE SMOOTH",
"236 1080 OFFCURVE",
"248 1054 OFFCURVE",
"248 1016 CURVE SMOOTH",
"248 244 LINE SMOOTH",
"248 206 OFFCURVE",
"236 180 OFFCURVE",
"194 180 CURVE SMOOTH",
"44 180 LINE"
);
}
);
};
layerId = "4355E1B8-19E6-44BD-A1D7-6E3C2DECA4C8";
paths = (
{
closed = 1;
nodes = (
"1306 286 OFFCURVE",
"1470 426 OFFCURVE",
"1470 644 CURVE SMOOTH",
"1470 854 OFFCURVE",
"1316 986 OFFCURVE",
"1026 986 CURVE SMOOTH",
"524 986 LINE",
"524 1016 LINE SMOOTH",
"524 1054 OFFCURVE",
"536 1080 OFFCURVE",
"570 1080 CURVE SMOOTH",
"762 1080 LINE",
"762 1260 LINE",
"44 1260 LINE",
"44 1080 LINE",
"194 1080 LINE SMOOTH",
"236 1080 OFFCURVE",
"248 1054 OFFCURVE",
"248 1016 CURVE SMOOTH",
"248 246 LINE SMOOTH",
"248 200 OFFCURVE",
"232 180 OFFCURVE",
"194 180 CURVE SMOOTH",
"44 180 LINE",
"44 0 LINE",
"762 0 LINE",
"762 180 LINE",
"578 180 LINE SMOOTH",
"540 180 OFFCURVE",
"524 200 OFFCURVE",
"524 246 CURVE SMOOTH",
"524 286 LINE",
"1004 286 LINE SMOOTH"
);
},
{
closed = 1;
nodes = (
"524 488 LINE",
"524 796 LINE",
"968 796 LINE SMOOTH",
"1110 796 OFFCURVE",
"1176 736 OFFCURVE",
"1176 648 CURVE SMOOTH",
"1176 554 OFFCURVE",
"1122 488 OFFCURVE",
"948 488 CURVE SMOOTH"
);
}
);
width = 1510;
},
{
layerId = "14C77FDB-037D-4842-9381-6D9ED15DD48C";
paths = (
{
closed = 1;
nodes = (
"1428 334 OFFCURVE",
"1542 478 OFFCURVE",
"1542 652 CURVE SMOOTH",
"1542 814 OFFCURVE",
"1446 934 OFFCURVE",
"1158 934 CURVE SMOOTH",
"712 934 LINE",
"712 938 LINE SMOOTH",
"712 956 OFFCURVE",
"724 976 OFFCURVE",
"758 976 CURVE SMOOTH",
"990 976 LINE",
"990 1260 LINE",
"34 1260 LINE",
"34 956 LINE",
"158 956 LINE SMOOTH",
"200 956 OFFCURVE",
"212 930 OFFCURVE",
"212 892 CURVE SMOOTH",
"212 350 LINE SMOOTH",
"212 324 OFFCURVE",
"196 304 OFFCURVE",
"158 304 CURVE SMOOTH",
"34 304 LINE",
"34 0 LINE",
"990 0 LINE",
"990 284 LINE",
"766 284 LINE SMOOTH",
"728 284 OFFCURVE",
"712 304 OFFCURVE",
"712 330 CURVE SMOOTH",
"712 334 LINE",
"1136 334 LINE SMOOTH"
);
},
{
closed = 1;
nodes = (
"712 594 LINE",
"712 682 LINE",
"948 682 LINE SMOOTH",
"990 682 OFFCURVE",
"1004 666 OFFCURVE",
"1004 638 CURVE SMOOTH",
"1004 618 OFFCURVE",
"992 594 OFFCURVE",
"948 594 CURVE SMOOTH"
);
}
);
width = 1572;
}
);
leftKerningGroup = H;
rightKerningGroup = Thorn;
unicode = 00DE;
},
{
glyphname = Q;
layers = (
{
anchors = (
{
name = bottom;
position = "{459, 0}";
},
{
name = top;
position = "{459, 1260}";
}
);
guideLines = (
{
position = "{547, -96}";
}
);
layerId = "E9E6D55E-9446-45F2-B66C-3272698B0216";
paths = (
{
closed = 1;
nodes = (
"668 -20 OFFCURVE",
"818 200 OFFCURVE",
"818 642 CURVE SMOOTH",
"818 1082 OFFCURVE",
"666 1280 OFFCURVE",
"434 1280 CURVE SMOOTH",
"208 1280 OFFCURVE",
"60 1090 OFFCURVE",
"60 638 CURVE SMOOTH",
"60 178 OFFCURVE",
"210 -20 OFFCURVE",
"432 -20 CURVE SMOOTH"
);
},
{
closed = 1;
nodes = (
"234 56 OFFCURVE",
"152 228 OFFCURVE",
"152 636 CURVE SMOOTH",
"152 1034 OFFCURVE",
"232 1204 OFFCURVE",
"436 1204 CURVE SMOOTH",
"640 1204 OFFCURVE",
"728 1038 OFFCURVE",
"728 636 CURVE SMOOTH",
"728 224 OFFCURVE",
"638 56 OFFCURVE",
"436 56 CURVE SMOOTH"
);
},
{
closed = 1;
nodes = (
"654 300 OFFCURVE",
"496 -192 OFFCURVE",
"748 -192 CURVE SMOOTH",
"866 -192 OFFCURVE",
"898 -82 OFFCURVE",
"898 214 CURVE",
"838 214 LINE",
"838 -26 OFFCURVE",
"814 -102 OFFCURVE",
"752 -102 CURVE SMOOTH",
"600 -102 OFFCURVE",
"698 376 OFFCURVE",
"408 376 CURVE SMOOTH",
"260 376 OFFCURVE",
"198 250 OFFCURVE",
"196 176 CURVE SMOOTH",
"194 128 OFFCURVE",
"216 78 OFFCURVE",
"262 78 CURVE SMOOTH",
"276 78 OFFCURVE",
"290 82 OFFCURVE",
"306 90 CURVE",
"278 108 OFFCURVE",
"264 136 OFFCURVE",
"264 168 CURVE SMOOTH",
"264 230 OFFCURVE",
"316 300 OFFCURVE",
"408 300 CURVE SMOOTH"
);
}
);
width = 918;
},
{
anchors = (
{
name = bottom;
position = "{569, 0}";
},
{
name = top;
position = "{569, 1260}";
}
);
layerId = "B25F85BC-C782-4067-8484-07202F80B8CD";
paths = (
{
closed = 1;
nodes = (
"828 -24 OFFCURVE",
"988 168 OFFCURVE",
"990 630 CURVE SMOOTH",
"992 1086 OFFCURVE",
"828 1280 OFFCURVE",
"528 1280 CURVE SMOOTH",
"230 1280 OFFCURVE",
"70 1088 OFFCURVE",
"70 630 CURVE SMOOTH",
"70 168 OFFCURVE",
"230 -24 OFFCURVE",
"528 -24 CURVE SMOOTH"
);
},
{
closed = 1;
nodes = (
"426 186 OFFCURVE",
"372 300 OFFCURVE",
"372 624 CURVE SMOOTH",
"372 948 OFFCURVE",
"428 1070 OFFCURVE",
"536 1070 CURVE SMOOTH",
"640 1070 OFFCURVE",
"688 956 OFFCURVE",
"688 616 CURVE SMOOTH",
"688 294 OFFCURVE",
"646 186 OFFCURVE",
"538 186 CURVE SMOOTH"
);
},
{
closed = 1;
nodes = (
"720 330 OFFCURVE",
"544 -282 OFFCURVE",
"892 -282 CURVE SMOOTH",
"1060 -282 OFFCURVE",
"1138 -138 OFFCURVE",
"1138 174 CURVE",
"972 174 LINE",
"980 12 OFFCURVE",
"956 -62 OFFCURVE",
"894 -62 CURVE SMOOTH",
"712 -62 OFFCURVE",
"918 496 OFFCURVE",
"566 496 CURVE SMOOTH",
"460 496 OFFCURVE",
"380 438 OFFCURVE",
"380 330 CURVE SMOOTH",
"380 246 OFFCURVE",
"410 182 OFFCURVE",
"450 182 CURVE SMOOTH",
"462 182 OFFCURVE",
"478 186 OFFCURVE",
"492 194 CURVE",
"454 214 OFFCURVE",
"436 236 OFFCURVE",
"436 262 CURVE SMOOTH",
"436 302 OFFCURVE",
"468 330 OFFCURVE",
"512 330 CURVE SMOOTH"
);
}
);
width = 1138;
},
{
anchors = (
{
name = bottom;
position = "{589, 0}";
},
{
name = top;
position = "{589, 1260}";
}
);
layerId = "B817C739-5D48-43E8-AAEE-CE891513D7BC";
paths = (
{
closed = 1;
nodes = (
"794 -20 OFFCURVE",
"954 134 OFFCURVE",
"954 656 CURVE SMOOTH",
"954 1142 OFFCURVE",
"812 1280 OFFCURVE",
"486 1280 CURVE SMOOTH",
"174 1280 OFFCURVE",
"32 1142 OFFCURVE",
"32 654 CURVE SMOOTH",
"32 134 OFFCURVE",
"194 -20 OFFCURVE",
"484 -20 CURVE SMOOTH"
);
},
{
closed = 1;
nodes = (
"426 256 OFFCURVE",
"430 308 OFFCURVE",
"430 600 CURVE SMOOTH",
"430 964 OFFCURVE",
"438 1004 OFFCURVE",
"492 1004 CURVE SMOOTH",
"546 1004 OFFCURVE",
"556 968 OFFCURVE",
"556 624 CURVE SMOOTH",
"556 308 OFFCURVE",
"548 256 OFFCURVE",
"492 256 CURVE SMOOTH"
);
},
{
closed = 1;
nodes = (
"616 330 OFFCURVE",
"386 -282 OFFCURVE",
"840 -282 CURVE SMOOTH",
"1080 -282 OFFCURVE",
"1158 -138 OFFCURVE",
"1158 216 CURVE",
"912 216 LINE",
"920 -10 OFFCURVE",
"896 -42 OFFCURVE",
"850 -42 CURVE SMOOTH",
"712 -42 OFFCURVE",
"928 496 OFFCURVE",
"518 496 CURVE SMOOTH",
"440 496 OFFCURVE",
"404 464 OFFCURVE",
"404 368 CURVE SMOOTH",
"404 290 OFFCURVE",
"428 242 OFFCURVE",
"452 242 CURVE SMOOTH",
"460 242 OFFCURVE",
"474 248 OFFCURVE",
"488 256 CURVE",
"458 256 OFFCURVE",
"448 276 OFFCURVE",
"448 294 CURVE SMOOTH",
"448 312 OFFCURVE",
"458 330 OFFCURVE",
"482 330 CURVE SMOOTH"
);
}
);
width = 1178;
},
{
anchors = (
{
name = bottom;
position = "{800, 0}";
},
{
name = top;
position = "{800, 1260}";
}
);
layerId = UUID0;
paths = (
{
closed = 1;
nodes = (
"1202 -20 OFFCURVE",
"1450 196 OFFCURVE",
"1450 628 CURVE SMOOTH",
"1450 1066 OFFCURVE",
"1198 1280 OFFCURVE",
"804 1280 CURVE SMOOTH",
"410 1280 OFFCURVE",
"150 1064 OFFCURVE",
"150 626 CURVE SMOOTH",
"150 198 OFFCURVE",
"400 -20 OFFCURVE",
"802 -20 CURVE SMOOTH"
);
},
{
closed = 1;
nodes = (
"490 62 OFFCURVE",
"248 198 OFFCURVE",
"248 628 CURVE SMOOTH",
"248 1050 OFFCURVE",
"480 1198 OFFCURVE",
"812 1198 CURVE SMOOTH",
"1146 1198 OFFCURVE",
"1352 1048 OFFCURVE",
"1352 630 CURVE SMOOTH",
"1352 202 OFFCURVE",
"1134 62 OFFCURVE",
"810 62 CURVE SMOOTH"
);
},
{
closed = 1;
nodes = (
"1080 300 OFFCURVE",
"928 -192 OFFCURVE",
"1318 -192 CURVE SMOOTH",
"1506 -192 OFFCURVE",
"1580 -78 OFFCURVE",
"1580 214 CURVE",
"1500 214 LINE",
"1500 -16 OFFCURVE",
"1450 -102 OFFCURVE",
"1316 -102 CURVE SMOOTH",
"1000 -102 OFFCURVE",
"1156 386 OFFCURVE",
"746 386 CURVE SMOOTH",
"582 386 OFFCURVE",
"478 306 OFFCURVE",
"478 180 CURVE SMOOTH",
"478 116 OFFCURVE",
"504 78 OFFCURVE",
"548 78 CURVE SMOOTH",
"564 78 OFFCURVE",
"584 82 OFFCURVE",
"596 88 CURVE",
"564 98 OFFCURVE",
"546 126 OFFCURVE",
"546 168 CURVE SMOOTH",
"546 250 OFFCURVE",
"616 300 OFFCURVE",
"730 300 CURVE SMOOTH"
);
}
);
width = 1600;
},
{
anchors = (
{
name = bottom;
position = "{860, 0}";
},
{
name = top;
position = "{860, 1260}";
}
);
layerId = "4355E1B8-19E6-44BD-A1D7-6E3C2DECA4C8";
paths = (
{
closed = 1;
nodes = (
"1254 -24 OFFCURVE",
"1510 228 OFFCURVE",
"1510 630 CURVE SMOOTH",
"1510 1026 OFFCURVE",
"1254 1280 OFFCURVE",
"810 1280 CURVE SMOOTH",
"366 1280 OFFCURVE",
"110 1028 OFFCURVE",
"110 630 CURVE SMOOTH",
"110 228 OFFCURVE",
"364 -24 OFFCURVE",
"808 -24 CURVE SMOOTH"
);
},
{
closed = 1;
nodes = (
"538 186 OFFCURVE",
"408 340 OFFCURVE",
"408 626 CURVE SMOOTH",
"408 908 OFFCURVE",
"540 1070 OFFCURVE",
"816 1070 CURVE SMOOTH",
"1088 1070 OFFCURVE",
"1212 914 OFFCURVE",
"1212 624 CURVE SMOOTH",
"1212 332 OFFCURVE",
"1094 186 OFFCURVE",
"818 186 CURVE SMOOTH"
);
},
{
closed = 1;
nodes = (
"1098 350 OFFCURVE",
"826 -292 OFFCURVE",
"1366 -292 CURVE SMOOTH",
"1608 -292 OFFCURVE",
"1700 -156 OFFCURVE",
"1700 174 CURVE",
"1476 174 LINE",
"1476 6 OFFCURVE",
"1446 -62 OFFCURVE",
"1374 -62 CURVE SMOOTH",
"1158 -62 OFFCURVE",
"1348 530 OFFCURVE",
"832 530 CURVE SMOOTH",
"636 530 OFFCURVE",
"504 444 OFFCURVE",
"504 318 CURVE SMOOTH",
"504 234 OFFCURVE",
"564 182 OFFCURVE",
"664 182 CURVE SMOOTH",
"692 182 OFFCURVE",
"716 186 OFFCURVE",
"728 192 CURVE",
"684 200 OFFCURVE",
"660 224 OFFCURVE",
"660 260 CURVE SMOOTH",
"660 314 OFFCURVE",
"708 350 OFFCURVE",
"784 350 CURVE SMOOTH"
);
}
);
width = 1720;
},
{
anchors = (
{
name = bottom;
position = "{900, 0}";
},
{
name = top;
position = "{900, 1260}";
}
);
layerId = "14C77FDB-037D-4842-9381-6D9ED15DD48C";
paths = (
{
closed = 1;
nodes = (
"1302 -20 OFFCURVE",
"1574 196 OFFCURVE",
"1574 630 CURVE SMOOTH",
"1574 1064 OFFCURVE",
"1298 1280 OFFCURVE",
"804 1280 CURVE SMOOTH",
"308 1280 OFFCURVE",
"34 1064 OFFCURVE",
"34 628 CURVE SMOOTH",
"34 196 OFFCURVE",
"302 -20 OFFCURVE",
"802 -20 CURVE SMOOTH"
);
},
{
closed = 1;
nodes = (
"680 350 OFFCURVE",
"600 398 OFFCURVE",
"600 626 CURVE SMOOTH",
"600 842 OFFCURVE",
"674 910 OFFCURVE",
"804 910 CURVE SMOOTH",
"940 910 OFFCURVE",
"1008 834 OFFCURVE",
"1008 626 CURVE SMOOTH",
"1008 404 OFFCURVE",
"936 350 OFFCURVE",
"804 350 CURVE SMOOTH"
);
},
{
closed = 1;
nodes = (
"1030 450 OFFCURVE",
"770 -312 OFFCURVE",
"1398 -312 CURVE SMOOTH",
"1670 -312 OFFCURVE",
"1780 -172 OFFCURVE",
"1780 174 CURVE",
"1476 174 LINE",
"1476 32 OFFCURVE",
"1454 -26 OFFCURVE",
"1398 -26 CURVE SMOOTH",
"1210 -26 OFFCURVE",
"1362 640 OFFCURVE",
"844 640 CURVE SMOOTH",
"676 640 OFFCURVE",
"576 570 OFFCURVE",
"576 454 CURVE SMOOTH",
"576 378 OFFCURVE",
"622 320 OFFCURVE",
"684 320 CURVE SMOOTH",
"714 320 OFFCURVE",
"752 336 OFFCURVE",
"764 352 CURVE",
"718 358 OFFCURVE",
"700 372 OFFCURVE",
"700 398 CURVE SMOOTH",
"700 430 OFFCURVE",
"724 450 OFFCURVE",
"766 450 CURVE SMOOTH"
);
}
);
width = 1800;
}
);
leftKerningGroup = O;
rightKerningGroup = Q;
unicode = 0051;
},
